<svg width="1096" height="180" viewBox="0 0 1096 180" fill="none" xmlns="http://www.w3.org/2000/svg">
<rect y="1" width="225.233" height="178" rx="8" fill="white"/>
<path d="M33.388 41.612H36.268V45.464H33.388V50H29.212V45.464H16.828V41.612L25.504 24.8H30.004L21.328 41.612H29.212V35.06H33.388V41.612ZM54.0188 28.328L48.9068 35.096C50.7788 35.528 52.2668 36.392 53.3708 37.688C54.4988 38.96 55.0628 40.52 55.0628 42.368C55.0628 44.888 54.2108 46.868 52.5068 48.308C50.8268 49.748 48.7388 50.468 46.2428 50.468C44.2748 50.468 42.5348 50.024 41.0228 49.136C39.5108 48.224 38.4308 46.928 37.7828 45.248L41.3108 43.196C42.0548 45.356 43.6988 46.436 46.2428 46.436C47.6828 46.436 48.8228 46.076 49.6628 45.356C50.5028 44.612 50.9228 43.616 50.9228 42.368C50.9228 41.12 50.5028 40.136 49.6628 39.416C48.8228 38.696 47.6828 38.336 46.2428 38.336H45.3068L43.6508 35.852L49.0868 28.688H38.5388V24.8H54.0188V28.328ZM74.4153 41.612H77.2953V45.464H74.4153V50H70.2393V45.464H57.8553V41.612L66.5313 24.8H71.0313L62.3553 41.612H70.2393V35.06H74.4153V41.612ZM93.6422 34.304H96.8102C99.2102 34.304 101.238 35.024 102.894 36.464C104.55 37.88 105.378 39.848 105.378 42.368C105.378 44.888 104.526 46.868 102.822 48.308C101.142 49.748 99.0542 50.468 96.5582 50.468C94.5182 50.468 92.7422 50 91.2302 49.064C89.7182 48.128 88.6382 46.796 87.9902 45.068L91.5542 43.016C92.2502 45.296 93.9182 46.436 96.5582 46.436C97.9742 46.436 99.1022 46.076 99.9422 45.356C100.806 44.612 101.238 43.616 101.238 42.368C101.238 41.144 100.818 40.172 99.9782 39.452C99.1382 38.708 98.0222 38.336 96.6302 38.336H89.2862L90.2582 24.8H104.298V28.688H94.0742L93.6422 34.304ZM123.915 41.612H126.795V45.464H123.915V50H119.739V45.464H107.355V41.612L116.031 24.8H120.531L111.855 41.612H119.739V35.06H123.915V41.612ZM134.142 34.304H137.31C139.71 34.304 141.738 35.024 143.394 36.464C145.05 37.88 145.878 39.848 145.878 42.368C145.878 44.888 145.026 46.868 143.322 48.308C141.642 49.748 139.554 50.468 137.058 50.468C135.018 50.468 133.242 50 131.73 49.064C130.218 48.128 129.138 46.796 128.49 45.068L132.054 43.016C132.75 45.296 134.418 46.436 137.058 46.436C138.474 46.436 139.602 46.076 140.442 45.356C141.306 44.612 141.738 43.616 141.738 42.368C141.738 41.144 141.318 40.172 140.478 39.452C139.638 38.708 138.522 38.336 137.13 38.336H129.786L130.758 24.8H144.798V28.688H134.574L134.142 34.304ZM169.167 50H163.731V35.888H156.747V31.352H176.151V35.888H169.167V50ZM156.747 24.296H176.151V28.832H156.747V24.296Z" fill="#1A3154"/>
<path d="M20.8182 81.1761C20 81.1761 19.286 80.9886 18.6761 80.6136C18.0663 80.2386 17.5928 79.714 17.2557 79.0398C16.9186 78.3655 16.75 77.5777 16.75 76.6761C16.75 75.7708 16.9186 74.9792 17.2557 74.3011C17.5928 73.6231 18.0663 73.0966 18.6761 72.7216C19.286 72.3466 20 72.1591 20.8182 72.1591C21.6364 72.1591 22.3504 72.3466 22.9602 72.7216C23.5701 73.0966 24.0436 73.6231 24.3807 74.3011C24.7178 74.9792 24.8864 75.7708 24.8864 76.6761C24.8864 77.5777 24.7178 78.3655 24.3807 79.0398C24.0436 79.714 23.5701 80.2386 22.9602 80.6136C22.3504 80.9886 21.6364 81.1761 20.8182 81.1761ZM20.8239 79.75C21.3542 79.75 21.7936 79.6098 22.142 79.3295C22.4905 79.0492 22.7481 78.6761 22.9148 78.2102C23.0852 77.7443 23.1705 77.2311 23.1705 76.6705C23.1705 76.1136 23.0852 75.6023 22.9148 75.1364C22.7481 74.6667 22.4905 74.2898 22.142 74.0057C21.7936 73.7216 21.3542 73.5795 20.8239 73.5795C20.2898 73.5795 19.8466 73.7216 19.4943 74.0057C19.1458 74.2898 18.8864 74.6667 18.7159 75.1364C18.5492 75.6023 18.4659 76.1136 18.4659 76.6705C18.4659 77.2311 18.5492 77.7443 18.7159 78.2102C18.8864 78.6761 19.1458 79.0492 19.4943 79.3295C19.8466 79.6098 20.2898 79.75 20.8239 79.75ZM33.5156 69.0227L34.2202 70.0966C33.9588 70.3352 33.6615 70.5057 33.3281 70.608C32.9986 70.7064 32.6179 70.7689 32.1861 70.7955C31.7543 70.8182 31.2599 70.839 30.7031 70.858C30.0743 70.8769 29.5573 71.0133 29.152 71.267C28.7467 71.517 28.4342 71.8883 28.2145 72.3807C27.9986 72.8693 27.8584 73.483 27.794 74.2216H27.902C28.1861 73.6799 28.58 73.2746 29.0838 73.0057C29.5914 72.7367 30.1615 72.6023 30.794 72.6023C31.4986 72.6023 32.1255 72.7633 32.6747 73.0852C33.224 73.4072 33.6558 73.8788 33.9702 74.5C34.2884 75.1174 34.4474 75.8731 34.4474 76.767C34.4474 77.6723 34.2808 78.4545 33.9474 79.1136C33.6179 79.7727 33.152 80.2822 32.5497 80.642C31.9512 80.9981 31.2448 81.1761 30.4304 81.1761C29.616 81.1761 28.9058 80.9924 28.2997 80.625C27.6974 80.2538 27.2296 79.7045 26.8963 78.9773C26.5668 78.25 26.402 77.3523 26.402 76.2841V75.4205C26.402 73.4242 26.758 71.9223 27.4702 70.9148C28.1823 69.9072 29.2467 69.3902 30.6634 69.3636C31.1217 69.3523 31.5308 69.3504 31.8906 69.358C32.2505 69.3617 32.5649 69.3447 32.8338 69.3068C33.1065 69.2652 33.3338 69.1705 33.5156 69.0227ZM30.4361 79.75C30.9096 79.75 31.3168 79.6307 31.6577 79.392C32.0024 79.1496 32.2675 78.8068 32.4531 78.3636C32.6387 77.9205 32.7315 77.3977 32.7315 76.7955C32.7315 76.2045 32.6387 75.7027 32.4531 75.2898C32.2675 74.8769 32.0024 74.5625 31.6577 74.3466C31.313 74.1269 30.9001 74.017 30.419 74.017C30.063 74.017 29.7448 74.0795 29.4645 74.2045C29.1842 74.3258 28.9437 74.5057 28.7429 74.7443C28.5459 74.983 28.3925 75.2746 28.2827 75.6193C28.1766 75.9602 28.1198 76.3523 28.1122 76.7955C28.1122 77.697 28.3187 78.4148 28.7315 78.9489C29.1482 79.483 29.7164 79.75 30.4361 79.75ZM48.8509 79.5341L48.6918 83.5H47.027V81H45.9418V79.5341H48.8509ZM36.3452 72.2727H38.0099V79.5284H41.027V72.2727H42.6918V79.5284H45.7088V72.2727H47.3736V81H36.3452V72.2727ZM52.3068 78.6193L56.1534 72.2727H57.983V81H56.3182V74.6477L52.4886 81H50.642V72.2727H52.3068V78.6193ZM61.9318 78.6193L65.7784 72.2727H67.608V81H65.9432V74.6477L62.1136 81H60.267V72.2727H61.9318V78.6193ZM65.0511 69.3182H66.4489C66.4489 69.9583 66.2216 70.4792 65.767 70.8807C65.3163 71.2784 64.7064 71.4773 63.9375 71.4773C63.1723 71.4773 62.5644 71.2784 62.1136 70.8807C61.6629 70.4792 61.4375 69.9583 61.4375 69.3182H62.8295C62.8295 69.6023 62.9129 69.8542 63.0795 70.0739C63.2462 70.2898 63.5322 70.3977 63.9375 70.3977C64.3352 70.3977 64.6193 70.2898 64.7898 70.0739C64.964 69.858 65.0511 69.6061 65.0511 69.3182ZM77.8026 81.1761C76.9844 81.1761 76.2704 80.9886 75.6605 80.6136C75.0507 80.2386 74.5772 79.714 74.2401 79.0398C73.9029 78.3655 73.7344 77.5777 73.7344 76.6761C73.7344 75.7708 73.9029 74.9792 74.2401 74.3011C74.5772 73.6231 75.0507 73.0966 75.6605 72.7216C76.2704 72.3466 76.9844 72.1591 77.8026 72.1591C78.6207 72.1591 79.3348 72.3466 79.9446 72.7216C80.5545 73.0966 81.0279 73.6231 81.3651 74.3011C81.7022 74.9792 81.8707 75.7708 81.8707 76.6761C81.8707 77.5777 81.7022 78.3655 81.3651 79.0398C81.0279 79.714 80.5545 80.2386 79.9446 80.6136C79.3348 80.9886 78.6207 81.1761 77.8026 81.1761ZM77.8082 79.75C78.3385 79.75 78.7779 79.6098 79.1264 79.3295C79.4749 79.0492 79.7325 78.6761 79.8991 78.2102C80.0696 77.7443 80.1548 77.2311 80.1548 76.6705C80.1548 76.1136 80.0696 75.6023 79.8991 75.1364C79.7325 74.6667 79.4749 74.2898 79.1264 74.0057C78.7779 73.7216 78.3385 73.5795 77.8082 73.5795C77.2741 73.5795 76.831 73.7216 76.4787 74.0057C76.1302 74.2898 75.8707 74.6667 75.7003 75.1364C75.5336 75.6023 75.4503 76.1136 75.4503 76.6705C75.4503 77.2311 75.5336 77.7443 75.7003 78.2102C75.8707 78.6761 76.1302 79.0492 76.4787 79.3295C76.831 79.6098 77.2741 79.75 77.8082 79.75ZM90.5 69.0227L91.2045 70.0966C90.9432 70.3352 90.6458 70.5057 90.3125 70.608C89.983 70.7064 89.6023 70.7689 89.1705 70.7955C88.7386 70.8182 88.2443 70.839 87.6875 70.858C87.0587 70.8769 86.5417 71.0133 86.1364 71.267C85.7311 71.517 85.4186 71.8883 85.1989 72.3807C84.983 72.8693 84.8428 73.483 84.7784 74.2216H84.8864C85.1705 73.6799 85.5644 73.2746 86.0682 73.0057C86.5758 72.7367 87.1458 72.6023 87.7784 72.6023C88.483 72.6023 89.1098 72.7633 89.6591 73.0852C90.2083 73.4072 90.6402 73.8788 90.9545 74.5C91.2727 75.1174 91.4318 75.8731 91.4318 76.767C91.4318 77.6723 91.2652 78.4545 90.9318 79.1136C90.6023 79.7727 90.1364 80.2822 89.5341 80.642C88.9356 80.9981 88.2292 81.1761 87.4148 81.1761C86.6004 81.1761 85.8902 80.9924 85.2841 80.625C84.6818 80.2538 84.214 79.7045 83.8807 78.9773C83.5511 78.25 83.3864 77.3523 83.3864 76.2841V75.4205C83.3864 73.4242 83.7424 71.9223 84.4545 70.9148C85.1667 69.9072 86.2311 69.3902 87.6477 69.3636C88.1061 69.3523 88.5152 69.3504 88.875 69.358C89.2348 69.3617 89.5492 69.3447 89.8182 69.3068C90.0909 69.2652 90.3182 69.1705 90.5 69.0227ZM87.4205 79.75C87.8939 79.75 88.3011 79.6307 88.642 79.392C88.9867 79.1496 89.2519 78.8068 89.4375 78.3636C89.6231 77.9205 89.7159 77.3977 89.7159 76.7955C89.7159 76.2045 89.6231 75.7027 89.4375 75.2898C89.2519 74.8769 88.9867 74.5625 88.642 74.3466C88.2973 74.1269 87.8845 74.017 87.4034 74.017C87.0473 74.017 86.7292 74.0795 86.4489 74.2045C86.1686 74.3258 85.928 74.5057 85.7273 74.7443C85.5303 74.983 85.3769 75.2746 85.267 75.6193C85.161 75.9602 85.1042 76.3523 85.0966 76.7955C85.0966 77.697 85.303 78.4148 85.7159 78.9489C86.1326 79.483 86.7008 79.75 87.4205 79.75ZM97.0057 81.1761C96.1875 81.1761 95.4735 80.9886 94.8636 80.6136C94.2538 80.2386 93.7803 79.714 93.4432 79.0398C93.1061 78.3655 92.9375 77.5777 92.9375 76.6761C92.9375 75.7708 93.1061 74.9792 93.4432 74.3011C93.7803 73.6231 94.2538 73.0966 94.8636 72.7216C95.4735 72.3466 96.1875 72.1591 97.0057 72.1591C97.8239 72.1591 98.5379 72.3466 99.1477 72.7216C99.7576 73.0966 100.231 73.6231 100.568 74.3011C100.905 74.9792 101.074 75.7708 101.074 76.6761C101.074 77.5777 100.905 78.3655 100.568 79.0398C100.231 79.714 99.7576 80.2386 99.1477 80.6136C98.5379 80.9886 97.8239 81.1761 97.0057 81.1761ZM97.0114 79.75C97.5417 79.75 97.9811 79.6098 98.3295 79.3295C98.678 79.0492 98.9356 78.6761 99.1023 78.2102C99.2727 77.7443 99.358 77.2311 99.358 76.6705C99.358 76.1136 99.2727 75.6023 99.1023 75.1364C98.9356 74.6667 98.678 74.2898 98.3295 74.0057C97.9811 73.7216 97.5417 73.5795 97.0114 73.5795C96.4773 73.5795 96.0341 73.7216 95.6818 74.0057C95.3333 74.2898 95.0739 74.6667 94.9034 75.1364C94.7367 75.6023 94.6534 76.1136 94.6534 76.6705C94.6534 77.2311 94.7367 77.7443 94.9034 78.2102C95.0739 78.6761 95.3333 79.0492 95.6818 79.3295C96.0341 79.6098 96.4773 79.75 97.0114 79.75ZM102.97 84.2727V72.2727H104.629V73.6875H104.771C104.87 73.5057 105.012 73.2955 105.197 73.0568C105.383 72.8182 105.641 72.6098 105.97 72.4318C106.3 72.25 106.735 72.1591 107.277 72.1591C107.982 72.1591 108.61 72.3371 109.163 72.6932C109.716 73.0492 110.15 73.5625 110.464 74.233C110.783 74.9034 110.942 75.7102 110.942 76.6534C110.942 77.5966 110.785 78.4053 110.47 79.0795C110.156 79.75 109.724 80.267 109.175 80.6307C108.625 80.9905 107.999 81.1705 107.294 81.1705C106.764 81.1705 106.33 81.0814 105.993 80.9034C105.66 80.7254 105.398 80.517 105.209 80.2784C105.019 80.0398 104.874 79.8277 104.771 79.642H104.669V84.2727H102.97ZM104.635 76.6364C104.635 77.25 104.724 77.7879 104.902 78.25C105.08 78.7121 105.338 79.0739 105.675 79.3352C106.012 79.5928 106.425 79.7216 106.913 79.7216C107.421 79.7216 107.845 79.5871 108.186 79.3182C108.527 79.0455 108.785 78.6761 108.959 78.2102C109.137 77.7443 109.226 77.2197 109.226 76.6364C109.226 76.0606 109.139 75.5436 108.964 75.0852C108.794 74.6269 108.536 74.2652 108.192 74C107.851 73.7348 107.425 73.6023 106.913 73.6023C106.421 73.6023 106.004 73.7292 105.663 73.983C105.326 74.2367 105.071 74.5909 104.896 75.0455C104.722 75.5 104.635 76.0303 104.635 76.6364ZM116.521 81.1761C115.703 81.1761 114.989 80.9886 114.379 80.6136C113.769 80.2386 113.296 79.714 112.959 79.0398C112.622 78.3655 112.453 77.5777 112.453 76.6761C112.453 75.7708 112.622 74.9792 112.959 74.3011C113.296 73.6231 113.769 73.0966 114.379 72.7216C114.989 72.3466 115.703 72.1591 116.521 72.1591C117.339 72.1591 118.054 72.3466 118.663 72.7216C119.273 73.0966 119.747 73.6231 120.084 74.3011C120.421 74.9792 120.589 75.7708 120.589 76.6761C120.589 77.5777 120.421 78.3655 120.084 79.0398C119.747 79.714 119.273 80.2386 118.663 80.6136C118.054 80.9886 117.339 81.1761 116.521 81.1761ZM116.527 79.75C117.057 79.75 117.497 79.6098 117.845 79.3295C118.194 79.0492 118.451 78.6761 118.618 78.2102C118.788 77.7443 118.874 77.2311 118.874 76.6705C118.874 76.1136 118.788 75.6023 118.618 75.1364C118.451 74.6667 118.194 74.2898 117.845 74.0057C117.497 73.7216 117.057 73.5795 116.527 73.5795C115.993 73.5795 115.55 73.7216 115.197 74.0057C114.849 74.2898 114.589 74.6667 114.419 75.1364C114.252 75.6023 114.169 76.1136 114.169 76.6705C114.169 77.2311 114.252 77.7443 114.419 78.2102C114.589 78.6761 114.849 79.0492 115.197 79.3295C115.55 79.6098 115.993 79.75 116.527 79.75ZM121.435 73.7386V72.2727H128.798V73.7386H125.952V81H124.293V73.7386H121.435ZM134.312 78.6932H136.051C136.074 79.0492 136.235 79.3239 136.534 79.517C136.837 79.7102 137.229 79.8068 137.71 79.8068C138.199 79.8068 138.616 79.7027 138.96 79.4943C139.305 79.2822 139.477 78.9545 139.477 78.5114C139.477 78.2462 139.411 78.0152 139.278 77.8182C139.15 77.6174 138.966 77.4621 138.727 77.3523C138.492 77.2424 138.214 77.1875 137.892 77.1875H136.472V75.8523H137.892C138.373 75.8523 138.733 75.7424 138.972 75.5227C139.21 75.303 139.33 75.0284 139.33 74.6989C139.33 74.3428 139.201 74.0568 138.943 73.8409C138.689 73.6212 138.335 73.5114 137.881 73.5114C137.419 73.5114 137.034 73.6155 136.727 73.8239C136.42 74.0284 136.259 74.2936 136.244 74.6193H134.528C134.54 74.1307 134.688 73.7027 134.972 73.3352C135.259 72.964 135.646 72.6761 136.131 72.4716C136.619 72.2633 137.174 72.1591 137.795 72.1591C138.443 72.1591 139.004 72.2633 139.477 72.4716C139.951 72.6799 140.316 72.9678 140.574 73.3352C140.835 73.7027 140.966 74.125 140.966 74.6023C140.966 75.0833 140.822 75.4773 140.534 75.7841C140.25 76.0871 139.879 76.3049 139.42 76.4375V76.5284C139.758 76.5511 140.057 76.6534 140.318 76.8352C140.58 77.017 140.784 77.2576 140.932 77.5568C141.08 77.8561 141.153 78.1951 141.153 78.5739C141.153 79.108 141.006 79.5701 140.71 79.9602C140.419 80.3504 140.013 80.6515 139.494 80.8636C138.979 81.072 138.39 81.1761 137.727 81.1761C137.083 81.1761 136.506 81.0758 135.994 80.875C135.487 80.6705 135.083 80.3826 134.784 80.0114C134.489 79.6402 134.331 79.2008 134.312 78.6932ZM145.447 81.1932C144.894 81.1932 144.394 81.0909 143.947 80.8864C143.5 80.678 143.146 80.3769 142.885 79.983C142.627 79.589 142.499 79.1061 142.499 78.5341C142.499 78.0417 142.593 77.6364 142.783 77.3182C142.972 77 143.228 76.7481 143.55 76.5625C143.872 76.3769 144.232 76.2367 144.629 76.142C145.027 76.0473 145.432 75.9754 145.845 75.9261C146.368 75.8655 146.792 75.8163 147.118 75.7784C147.444 75.7367 147.68 75.6705 147.828 75.5795C147.976 75.4886 148.05 75.3409 148.05 75.1364V75.0966C148.05 74.6004 147.91 74.2159 147.629 73.9432C147.353 73.6705 146.94 73.5341 146.391 73.5341C145.819 73.5341 145.368 73.661 145.038 73.9148C144.713 74.1648 144.487 74.4432 144.362 74.75L142.766 74.3864C142.955 73.8561 143.232 73.428 143.595 73.1023C143.963 72.7727 144.385 72.5341 144.862 72.3864C145.339 72.2348 145.841 72.1591 146.368 72.1591C146.716 72.1591 147.086 72.2008 147.476 72.2841C147.87 72.3636 148.237 72.5114 148.578 72.7273C148.923 72.9432 149.205 73.2519 149.425 73.6534C149.644 74.0511 149.754 74.5682 149.754 75.2045V81H148.095V79.8068H148.027C147.917 80.0265 147.752 80.2424 147.533 80.4545C147.313 80.6667 147.031 80.8428 146.686 80.983C146.341 81.1231 145.929 81.1932 145.447 81.1932ZM145.817 79.8295C146.286 79.8295 146.688 79.7367 147.021 79.5511C147.358 79.3655 147.614 79.1231 147.788 78.8239C147.966 78.5208 148.055 78.197 148.055 77.8523V76.7273C147.995 76.7879 147.877 76.8447 147.703 76.8977C147.533 76.947 147.338 76.9905 147.118 77.0284C146.898 77.0625 146.684 77.0947 146.476 77.125C146.268 77.1515 146.093 77.1742 145.953 77.1932C145.624 77.2348 145.322 77.3049 145.05 77.4034C144.781 77.5019 144.565 77.6439 144.402 77.8295C144.243 78.0114 144.163 78.2538 144.163 78.5568C144.163 78.9773 144.319 79.2955 144.629 79.5114C144.94 79.7235 145.336 79.8295 145.817 79.8295ZM160.643 69.3636V81H158.882V71.125H158.814L156.03 72.9432V71.2614L158.933 69.3636H160.643ZM163.791 81V79.7273L167.729 75.6477C168.149 75.2045 168.496 74.8163 168.768 74.483C169.045 74.1458 169.251 73.8258 169.388 73.5227C169.524 73.2197 169.592 72.8977 169.592 72.5568C169.592 72.1705 169.501 71.8371 169.32 71.5568C169.138 71.2727 168.89 71.0549 168.575 70.9034C168.261 70.7481 167.907 70.6705 167.513 70.6705C167.096 70.6705 166.732 70.7557 166.422 70.9261C166.111 71.0966 165.873 71.3371 165.706 71.6477C165.539 71.9583 165.456 72.322 165.456 72.7386H163.78C163.78 72.0303 163.943 71.411 164.268 70.8807C164.594 70.3504 165.041 69.9394 165.609 69.6477C166.178 69.3523 166.823 69.2045 167.547 69.2045C168.278 69.2045 168.922 69.3504 169.479 69.642C170.039 69.9299 170.477 70.3239 170.791 70.8239C171.106 71.3201 171.263 71.8807 171.263 72.5057C171.263 72.9375 171.181 73.3598 171.018 73.7727C170.859 74.1856 170.581 74.6458 170.183 75.1534C169.786 75.6572 169.232 76.2689 168.524 76.9886L166.212 79.4091V79.4943H171.45V81H163.791ZM182.759 78.8977L185.577 72.2727H187.043L183.389 81H182.128L178.548 72.2727H179.997L182.759 78.8977ZM179.526 72.2727V81H177.861V72.2727H179.526ZM186.037 81V72.2727H187.69V81H186.037ZM193.716 81.1761C192.856 81.1761 192.116 80.9924 191.494 80.625C190.877 80.2538 190.4 79.733 190.062 79.0625C189.729 78.3883 189.562 77.5985 189.562 76.6932C189.562 75.7992 189.729 75.0114 190.062 74.3295C190.4 73.6477 190.869 73.1155 191.472 72.733C192.078 72.3504 192.786 72.1591 193.597 72.1591C194.089 72.1591 194.566 72.2405 195.028 72.4034C195.491 72.5663 195.905 72.822 196.273 73.1705C196.64 73.5189 196.93 73.9716 197.142 74.5284C197.354 75.0814 197.46 75.7538 197.46 76.5455V77.1477H190.523V75.875H195.795C195.795 75.428 195.705 75.0322 195.523 74.6875C195.341 74.339 195.085 74.0644 194.756 73.8636C194.43 73.6629 194.047 73.5625 193.608 73.5625C193.131 73.5625 192.714 73.6799 192.358 73.9148C192.006 74.1458 191.733 74.4489 191.54 74.8239C191.35 75.1951 191.256 75.5985 191.256 76.0341V77.0284C191.256 77.6117 191.358 78.108 191.562 78.517C191.771 78.9261 192.061 79.2386 192.432 79.4545C192.803 79.6667 193.237 79.7727 193.733 79.7727C194.055 79.7727 194.348 79.7273 194.614 79.6364C194.879 79.5417 195.108 79.4015 195.301 79.2159C195.494 79.0303 195.642 78.8011 195.744 78.5284L197.352 78.8182C197.223 79.2917 196.992 79.7064 196.659 80.0625C196.33 80.4148 195.915 80.6894 195.415 80.8864C194.919 81.0795 194.352 81.1761 193.716 81.1761ZM203.021 81.1761C202.177 81.1761 201.449 80.9848 200.839 80.6023C200.233 80.2159 199.768 79.6837 199.442 79.0057C199.116 78.3277 198.953 77.5511 198.953 76.6761C198.953 75.7898 199.12 75.0076 199.453 74.3295C199.786 73.6477 200.256 73.1155 200.862 72.733C201.468 72.3504 202.182 72.1591 203.004 72.1591C203.667 72.1591 204.258 72.2822 204.777 72.5284C205.296 72.7708 205.714 73.1117 206.033 73.5511C206.355 73.9905 206.546 74.5038 206.607 75.0909H204.953C204.862 74.6818 204.654 74.3295 204.328 74.0341C204.006 73.7386 203.574 73.5909 203.033 73.5909C202.559 73.5909 202.144 73.7159 201.788 73.9659C201.436 74.2121 201.161 74.5644 200.964 75.0227C200.768 75.4773 200.669 76.0152 200.669 76.6364C200.669 77.2727 200.766 77.822 200.959 78.2841C201.152 78.7462 201.425 79.1042 201.777 79.358C202.133 79.6117 202.552 79.7386 203.033 79.7386C203.355 79.7386 203.646 79.6799 203.908 79.5625C204.173 79.4413 204.394 79.2689 204.572 79.0455C204.754 78.822 204.881 78.553 204.953 78.2386H206.607C206.546 78.803 206.362 79.3068 206.055 79.75C205.749 80.1932 205.338 80.5417 204.822 80.7955C204.311 81.0492 203.711 81.1761 203.021 81.1761Z" fill="#8C98A9"/>
<g filter="url(#filter0_dd_922_10185)">
<rect x="16" y="103" width="60" height="60" rx="6" fill="#00A47D"/>
</g>
<path d="M34 133L36.115 135.115L44.5 126.745V145H47.5V126.745L55.87 135.13L58 133L46 121L34 133Z" fill="white"/>
<path d="M94.0497 127.227V118.38H96.0568V127.227H94.0497ZM90.63 123.807V121.8H99.4766V123.807H90.63ZM111.438 128.179C110.517 128.179 109.699 128.021 108.983 127.706C108.271 127.391 107.709 126.952 107.296 126.389C106.882 125.827 106.663 125.177 106.637 124.44H109.041C109.062 124.793 109.179 125.102 109.392 125.366C109.605 125.626 109.889 125.829 110.242 125.974C110.596 126.119 110.992 126.191 111.431 126.191C111.9 126.191 112.316 126.11 112.678 125.948C113.04 125.782 113.323 125.552 113.528 125.258C113.732 124.964 113.833 124.625 113.828 124.241C113.833 123.845 113.73 123.496 113.521 123.193C113.313 122.891 113.01 122.654 112.614 122.484C112.222 122.313 111.749 122.228 111.195 122.228H110.038V120.4H111.195C111.651 120.4 112.049 120.321 112.39 120.163C112.735 120.006 113.006 119.784 113.202 119.499C113.398 119.209 113.494 118.874 113.49 118.495C113.494 118.124 113.411 117.803 113.24 117.53C113.074 117.253 112.838 117.038 112.531 116.884C112.228 116.731 111.872 116.654 111.463 116.654C111.063 116.654 110.692 116.727 110.351 116.871C110.01 117.016 109.735 117.223 109.526 117.491C109.318 117.756 109.207 118.071 109.194 118.438H106.912C106.929 117.705 107.14 117.061 107.545 116.507C107.954 115.949 108.499 115.514 109.181 115.203C109.863 114.888 110.628 114.73 111.476 114.73C112.35 114.73 113.108 114.894 113.752 115.222C114.399 115.546 114.9 115.983 115.254 116.533C115.607 117.082 115.784 117.69 115.784 118.354C115.789 119.092 115.571 119.71 115.132 120.208C114.698 120.707 114.127 121.033 113.419 121.186V121.288C114.34 121.416 115.045 121.757 115.535 122.311C116.029 122.861 116.274 123.545 116.27 124.363C116.27 125.096 116.061 125.752 115.644 126.332C115.23 126.907 114.659 127.359 113.931 127.687C113.206 128.015 112.375 128.179 111.438 128.179ZM123.303 128.249C122.25 128.249 121.347 127.983 120.593 127.45C119.843 126.913 119.265 126.14 118.86 125.13C118.46 124.116 118.26 122.895 118.26 121.467C118.264 120.04 118.466 118.825 118.867 117.824C119.272 116.818 119.849 116.051 120.599 115.523C121.353 114.994 122.255 114.73 123.303 114.73C124.351 114.73 125.252 114.994 126.007 115.523C126.761 116.051 127.338 116.818 127.739 117.824C128.144 118.83 128.346 120.044 128.346 121.467C128.346 122.899 128.144 124.122 127.739 125.136C127.338 126.146 126.761 126.918 126.007 127.45C125.257 127.983 124.355 128.249 123.303 128.249ZM123.303 126.249C124.121 126.249 124.767 125.846 125.24 125.04C125.717 124.231 125.956 123.04 125.956 121.467C125.956 120.428 125.847 119.554 125.63 118.847C125.412 118.139 125.105 117.607 124.709 117.249C124.313 116.886 123.844 116.705 123.303 116.705C122.489 116.705 121.846 117.11 121.373 117.92C120.9 118.725 120.661 119.908 120.657 121.467C120.652 122.511 120.757 123.389 120.97 124.101C121.187 124.812 121.494 125.349 121.89 125.712C122.287 126.07 122.757 126.249 123.303 126.249ZM139.774 128.249C138.721 128.249 137.818 127.983 137.063 127.45C136.313 126.913 135.736 126.14 135.331 125.13C134.931 124.116 134.73 122.895 134.73 121.467C134.735 120.04 134.937 118.825 135.338 117.824C135.742 116.818 136.32 116.051 137.07 115.523C137.824 114.994 138.725 114.73 139.774 114.73C140.822 114.73 141.723 114.994 142.477 115.523C143.232 116.051 143.809 116.818 144.21 117.824C144.615 118.83 144.817 120.044 144.817 121.467C144.817 122.899 144.615 124.122 144.21 125.136C143.809 126.146 143.232 126.918 142.477 127.45C141.727 127.983 140.826 128.249 139.774 128.249ZM139.774 126.249C140.592 126.249 141.237 125.846 141.71 125.04C142.188 124.231 142.426 123.04 142.426 121.467C142.426 120.428 142.318 119.554 142.1 118.847C141.883 118.139 141.576 117.607 141.18 117.249C140.784 116.886 140.315 116.705 139.774 116.705C138.96 116.705 138.316 117.11 137.843 117.92C137.37 118.725 137.132 119.908 137.127 121.467C137.123 122.511 137.227 123.389 137.441 124.101C137.658 124.812 137.965 125.349 138.361 125.712C138.757 126.07 139.228 126.249 139.774 126.249ZM151.779 128.249C150.727 128.249 149.824 127.983 149.069 127.45C148.319 126.913 147.742 126.14 147.337 125.13C146.936 124.116 146.736 122.895 146.736 121.467C146.74 120.04 146.943 118.825 147.343 117.824C147.748 116.818 148.326 116.051 149.076 115.523C149.83 114.994 150.731 114.73 151.779 114.73C152.828 114.73 153.729 114.994 154.483 115.523C155.238 116.051 155.815 116.818 156.216 117.824C156.62 118.83 156.823 120.044 156.823 121.467C156.823 122.899 156.62 124.122 156.216 125.136C155.815 126.146 155.238 126.918 154.483 127.45C153.733 127.983 152.832 128.249 151.779 128.249ZM151.779 126.249C152.598 126.249 153.243 125.846 153.716 125.04C154.194 124.231 154.432 123.04 154.432 121.467C154.432 120.428 154.324 119.554 154.106 118.847C153.889 118.139 153.582 117.607 153.186 117.249C152.789 116.886 152.321 116.705 151.779 116.705C150.966 116.705 150.322 117.11 149.849 117.92C149.376 118.725 149.137 119.908 149.133 121.467C149.129 122.511 149.233 123.389 149.446 124.101C149.664 124.812 149.971 125.349 150.367 125.712C150.763 126.07 151.234 126.249 151.779 126.249ZM163.785 128.249C162.733 128.249 161.829 127.983 161.075 127.45C160.325 126.913 159.748 126.14 159.343 125.13C158.942 124.116 158.742 122.895 158.742 121.467C158.746 120.04 158.949 118.825 159.349 117.824C159.754 116.818 160.331 116.051 161.081 115.523C161.836 114.994 162.737 114.73 163.785 114.73C164.834 114.73 165.735 114.994 166.489 115.523C167.243 116.051 167.821 116.818 168.221 117.824C168.626 118.83 168.829 120.044 168.829 121.467C168.829 122.899 168.626 124.122 168.221 125.136C167.821 126.146 167.243 126.918 166.489 127.45C165.739 127.983 164.838 128.249 163.785 128.249ZM163.785 126.249C164.604 126.249 165.249 125.846 165.722 125.04C166.199 124.231 166.438 123.04 166.438 121.467C166.438 120.428 166.329 119.554 166.112 118.847C165.895 118.139 165.588 117.607 165.192 117.249C164.795 116.886 164.327 116.705 163.785 116.705C162.971 116.705 162.328 117.11 161.855 117.92C161.382 118.725 161.143 119.908 161.139 121.467C161.135 122.511 161.239 123.389 161.452 124.101C161.67 124.812 161.976 125.349 162.373 125.712C162.769 126.07 163.24 126.249 163.785 126.249ZM181.355 117.907V128H178.997V117.907H181.355ZM185.421 117.907V119.876H174.983V117.907H185.421ZM185.421 114.909V116.878H174.983V114.909H185.421Z" fill="#1A3154"/>
<path d="M89.9993 153V145.364H93.1662C94.0279 145.364 94.7107 145.548 95.2145 145.915C95.7183 146.28 95.9702 146.776 95.9702 147.402C95.9702 147.849 95.8277 148.204 95.5426 148.466C95.2576 148.728 94.8797 148.903 94.4091 148.993C94.7505 149.033 95.0637 149.135 95.3487 149.301C95.6338 149.464 95.8625 149.682 96.0348 149.957C96.2105 150.232 96.2983 150.561 96.2983 150.942C96.2983 151.346 96.1939 151.704 95.9851 152.016C95.7763 152.324 95.473 152.566 95.0753 152.741C94.6809 152.914 94.2053 153 93.6484 153H89.9993ZM91.3963 151.757H93.6484C94.0163 151.757 94.3047 151.669 94.5135 151.494C94.7223 151.318 94.8267 151.079 94.8267 150.778C94.8267 150.423 94.7223 150.145 94.5135 149.942C94.3047 149.737 94.0163 149.634 93.6484 149.634H91.3963V151.757ZM91.3963 148.545H93.1811C93.4595 148.545 93.6982 148.506 93.897 148.426C94.0992 148.347 94.2533 148.234 94.3594 148.088C94.4688 147.939 94.5234 147.763 94.5234 147.561C94.5234 147.266 94.4025 147.036 94.1605 146.87C93.9186 146.704 93.5871 146.621 93.1662 146.621H91.3963V148.545ZM104.259 146.552C104.001 146.555 103.752 146.616 103.513 146.736C103.275 146.855 103.077 147.014 102.922 147.213C102.769 147.412 102.693 147.637 102.693 147.889H101.291C101.291 147.531 101.371 147.193 101.53 146.875C101.689 146.557 101.906 146.277 102.181 146.035C102.456 145.793 102.773 145.602 103.131 145.463C103.488 145.324 103.865 145.254 104.259 145.254C104.978 145.254 105.586 145.43 106.084 145.781C106.584 146.129 106.964 146.593 107.222 147.173C107.481 147.75 107.61 148.383 107.61 149.072V149.321C107.61 150.01 107.481 150.645 107.222 151.225C106.964 151.805 106.584 152.269 106.084 152.617C105.586 152.965 104.978 153.139 104.259 153.139C103.682 153.139 103.17 153.017 102.723 152.771C102.275 152.526 101.924 152.191 101.669 151.767C101.417 151.339 101.291 150.852 101.291 150.305H102.693C102.693 150.577 102.764 150.829 102.907 151.061C103.049 151.293 103.238 151.48 103.474 151.623C103.712 151.762 103.974 151.833 104.259 151.837C104.687 151.833 105.04 151.704 105.318 151.449C105.6 151.194 105.809 150.874 105.944 150.489C106.084 150.102 106.153 149.712 106.153 149.321V149.072C106.153 148.665 106.084 148.269 105.944 147.884C105.809 147.5 105.6 147.183 105.318 146.935C105.04 146.683 104.687 146.555 104.259 146.552ZM106.675 148.59V149.734H103.548V148.59H106.675ZM108.343 146.646V145.364H114.786V146.646H112.296V153H110.844V146.646H108.343ZM119.22 153.154C118.504 153.154 117.879 152.99 117.346 152.662C116.812 152.334 116.398 151.875 116.103 151.285C115.808 150.695 115.66 150.005 115.66 149.217C115.66 148.424 115.808 147.732 116.103 147.138C116.398 146.545 116.812 146.085 117.346 145.756C117.879 145.428 118.504 145.264 119.22 145.264C119.936 145.264 120.56 145.428 121.094 145.756C121.628 146.085 122.042 146.545 122.337 147.138C122.632 147.732 122.779 148.424 122.779 149.217C122.779 150.005 122.632 150.695 122.337 151.285C122.042 151.875 121.628 152.334 121.094 152.662C120.56 152.99 119.936 153.154 119.22 153.154ZM119.225 151.906C119.689 151.906 120.073 151.784 120.378 151.538C120.683 151.293 120.908 150.967 121.054 150.559C121.203 150.151 121.278 149.702 121.278 149.212C121.278 148.724 121.203 148.277 121.054 147.869C120.908 147.458 120.683 147.129 120.378 146.88C120.073 146.631 119.689 146.507 119.225 146.507C118.757 146.507 118.37 146.631 118.061 146.88C117.757 147.129 117.529 147.458 117.38 147.869C117.234 148.277 117.162 148.724 117.162 149.212C117.162 149.702 117.234 150.151 117.38 150.559C117.529 150.967 117.757 151.293 118.061 151.538C118.37 151.784 118.757 151.906 119.225 151.906ZM128.724 151.161L131.19 145.364H132.473L129.276 153H128.172L125.04 145.364H126.308L128.724 151.161ZM125.895 145.364V153H124.439V145.364H125.895ZM131.593 153V145.364H133.04V153H131.593ZM143.011 151.161L145.477 145.364H146.76L143.563 153H142.46L139.327 145.364H140.595L143.011 151.161ZM140.183 145.364V153H138.726V145.364H140.183ZM145.88 153V145.364H147.327V153H145.88ZM152.599 153.154C151.847 153.154 151.199 152.993 150.655 152.672C150.115 152.347 149.697 151.891 149.402 151.305C149.111 150.715 148.965 150.024 148.965 149.232C148.965 148.449 149.111 147.76 149.402 147.163C149.697 146.567 150.108 146.101 150.635 145.766C151.166 145.432 151.785 145.264 152.495 145.264C152.926 145.264 153.343 145.335 153.748 145.478C154.152 145.621 154.515 145.844 154.836 146.149C155.158 146.454 155.411 146.85 155.597 147.337C155.783 147.821 155.875 148.41 155.875 149.102V149.629H149.805V148.516H154.419C154.419 148.125 154.339 147.778 154.18 147.477C154.021 147.172 153.797 146.931 153.509 146.756C153.224 146.58 152.889 146.492 152.505 146.492C152.087 146.492 151.722 146.595 151.411 146.8C151.103 147.003 150.864 147.268 150.695 147.596C150.529 147.921 150.446 148.274 150.446 148.655V149.525C150.446 150.035 150.536 150.469 150.715 150.827C150.897 151.185 151.151 151.459 151.475 151.648C151.8 151.833 152.18 151.926 152.614 151.926C152.896 151.926 153.153 151.886 153.385 151.807C153.617 151.724 153.817 151.601 153.986 151.439C154.155 151.277 154.284 151.076 154.374 150.837L155.781 151.091C155.668 151.505 155.466 151.868 155.174 152.18C154.886 152.488 154.523 152.728 154.086 152.901C153.651 153.07 153.156 153.154 152.599 153.154ZM160.741 153.154C160.002 153.154 159.366 152.987 158.832 152.652C158.302 152.314 157.894 151.848 157.609 151.255C157.324 150.662 157.182 149.982 157.182 149.217C157.182 148.441 157.327 147.757 157.619 147.163C157.911 146.567 158.322 146.101 158.852 145.766C159.382 145.432 160.007 145.264 160.726 145.264C161.306 145.264 161.823 145.372 162.278 145.587C162.732 145.799 163.098 146.098 163.376 146.482C163.658 146.867 163.825 147.316 163.878 147.83H162.432C162.352 147.472 162.17 147.163 161.885 146.905C161.603 146.646 161.225 146.517 160.751 146.517C160.337 146.517 159.974 146.626 159.662 146.845C159.354 147.061 159.114 147.369 158.942 147.77C158.769 148.168 158.683 148.638 158.683 149.182C158.683 149.739 158.768 150.219 158.937 150.624C159.106 151.028 159.344 151.341 159.653 151.563C159.964 151.785 160.33 151.896 160.751 151.896C161.033 151.896 161.288 151.845 161.517 151.742C161.749 151.636 161.943 151.485 162.099 151.29C162.258 151.094 162.369 150.859 162.432 150.584H163.878C163.825 151.078 163.665 151.518 163.396 151.906C163.128 152.294 162.768 152.599 162.317 152.821C161.87 153.043 161.345 153.154 160.741 153.154ZM170.022 153V146.631H168.192C167.758 146.631 167.42 146.732 167.178 146.935C166.936 147.137 166.815 147.402 166.815 147.73C166.815 148.055 166.926 148.317 167.148 148.516C167.374 148.711 167.689 148.809 168.093 148.809H170.455V150.012H168.093C167.53 150.012 167.042 149.919 166.631 149.734C166.224 149.545 165.909 149.278 165.687 148.933C165.468 148.589 165.359 148.181 165.359 147.71C165.359 147.23 165.471 146.815 165.697 146.467C165.925 146.116 166.252 145.844 166.676 145.652C167.104 145.46 167.609 145.364 168.192 145.364H171.419V153H170.022ZM165.011 153L167.163 149.142H168.685L166.532 153H165.011ZM179.627 145.364V151.782H180.746V155.461H179.279V153H173.398V145.364H174.854V151.717H178.175V145.364H179.627ZM185.603 153.154C184.851 153.154 184.203 152.993 183.659 152.672C183.119 152.347 182.701 151.891 182.406 151.305C182.115 150.715 181.969 150.024 181.969 149.232C181.969 148.449 182.115 147.76 182.406 147.163C182.701 146.567 183.112 146.101 183.639 145.766C184.17 145.432 184.789 145.264 185.499 145.264C185.929 145.264 186.347 145.335 186.751 145.478C187.156 145.621 187.519 145.844 187.84 146.149C188.162 146.454 188.415 146.85 188.601 147.337C188.786 147.821 188.879 148.41 188.879 149.102V149.629H182.809V148.516H187.423C187.423 148.125 187.343 147.778 187.184 147.477C187.025 147.172 186.801 146.931 186.513 146.756C186.228 146.58 185.893 146.492 185.509 146.492C185.091 146.492 184.726 146.595 184.415 146.8C184.107 147.003 183.868 147.268 183.699 147.596C183.533 147.921 183.45 148.274 183.45 148.655V149.525C183.45 150.035 183.54 150.469 183.719 150.827C183.901 151.185 184.155 151.459 184.479 151.648C184.804 151.833 185.184 151.926 185.618 151.926C185.9 151.926 186.156 151.886 186.388 151.807C186.621 151.724 186.821 151.601 186.99 151.439C187.159 151.277 187.288 151.076 187.378 150.837L188.785 151.091C188.672 151.505 188.47 151.868 188.178 152.18C187.89 152.488 187.527 152.728 187.089 152.901C186.655 153.07 186.16 153.154 185.603 153.154Z" fill="#8C98A9"/>
<rect x="858.701" y="1" width="237.299" height="178" rx="8" fill="white"/>
<path d="M892.089 41.612H894.969V45.464H892.089V50H887.913V45.464H875.529V41.612L884.205 24.8H888.705L880.029 41.612H887.913V35.06H892.089V41.612ZM912.72 28.328L907.608 35.096C909.48 35.528 910.968 36.392 912.072 37.688C913.2 38.96 913.764 40.52 913.764 42.368C913.764 44.888 912.912 46.868 911.208 48.308C909.528 49.748 907.44 50.468 904.944 50.468C902.976 50.468 901.236 50.024 899.724 49.136C898.212 48.224 897.132 46.928 896.484 45.248L900.012 43.196C900.756 45.356 902.4 46.436 904.944 46.436C906.384 46.436 907.524 46.076 908.364 45.356C909.204 44.612 909.624 43.616 909.624 42.368C909.624 41.12 909.204 40.136 908.364 39.416C907.524 38.696 906.384 38.336 904.944 38.336H904.008L902.352 35.852L907.788 28.688H897.24V24.8H912.72V28.328ZM933.117 41.612H935.997V45.464H933.117V50H928.941V45.464H916.557V41.612L925.233 24.8H929.733L921.057 41.612H928.941V35.06H933.117V41.612ZM952.343 34.304H955.511C957.911 34.304 959.939 35.024 961.595 36.464C963.251 37.88 964.079 39.848 964.079 42.368C964.079 44.888 963.227 46.868 961.523 48.308C959.843 49.748 957.755 50.468 955.259 50.468C953.219 50.468 951.443 50 949.931 49.064C948.419 48.128 947.339 46.796 946.691 45.068L950.255 43.016C950.951 45.296 952.619 46.436 955.259 46.436C956.675 46.436 957.803 46.076 958.643 45.356C959.507 44.612 959.939 43.616 959.939 42.368C959.939 41.144 959.519 40.172 958.679 39.452C957.839 38.708 956.723 38.336 955.331 38.336H947.987L948.959 24.8H962.999V28.688H952.775L952.343 34.304ZM982.617 41.612H985.497V45.464H982.617V50H978.441V45.464H966.057V41.612L974.733 24.8H979.233L970.557 41.612H978.441V35.06H982.617V41.612ZM992.843 34.304H996.011C998.411 34.304 1000.44 35.024 1002.1 36.464C1003.75 37.88 1004.58 39.848 1004.58 42.368C1004.58 44.888 1003.73 46.868 1002.02 48.308C1000.34 49.748 998.255 50.468 995.759 50.468C993.719 50.468 991.943 50 990.431 49.064C988.919 48.128 987.839 46.796 987.191 45.068L990.755 43.016C991.451 45.296 993.119 46.436 995.759 46.436C997.175 46.436 998.303 46.076 999.143 45.356C1000.01 44.612 1000.44 43.616 1000.44 42.368C1000.44 41.144 1000.02 40.172 999.179 39.452C998.339 38.708 997.223 38.336 995.831 38.336H988.487L989.459 24.8H1003.5V28.688H993.275L992.843 34.304ZM1027.87 50H1022.43V35.888H1015.45V31.352H1034.85V35.888H1027.87V50ZM1015.45 24.296H1034.85V28.832H1015.45V24.296Z" fill="#1A3154"/>
<path d="M882.883 81L878.974 75.7841H877.735V81H875.98V69.3636H877.735V74.2784H878.309L882.707 69.3636H884.849L880.195 74.5739L885.025 81H882.883ZM889.055 81.1932C888.502 81.1932 888.002 81.0909 887.555 80.8864C887.108 80.678 886.754 80.3769 886.492 79.983C886.235 79.589 886.106 79.1061 886.106 78.5341C886.106 78.0417 886.201 77.6364 886.39 77.3182C886.579 77 886.835 76.7481 887.157 76.5625C887.479 76.3769 887.839 76.2367 888.237 76.142C888.634 76.0473 889.04 75.9754 889.453 75.9261C889.975 75.8655 890.4 75.8163 890.725 75.7784C891.051 75.7367 891.288 75.6705 891.436 75.5795C891.583 75.4886 891.657 75.3409 891.657 75.1364V75.0966C891.657 74.6004 891.517 74.2159 891.237 73.9432C890.96 73.6705 890.547 73.5341 889.998 73.5341C889.426 73.5341 888.975 73.661 888.646 73.9148C888.32 74.1648 888.095 74.4432 887.97 74.75L886.373 74.3864C886.562 73.8561 886.839 73.428 887.203 73.1023C887.57 72.7727 887.992 72.5341 888.47 72.3864C888.947 72.2348 889.449 72.1591 889.975 72.1591C890.324 72.1591 890.693 72.2008 891.083 72.2841C891.477 72.3636 891.845 72.5114 892.186 72.7273C892.53 72.9432 892.812 73.2519 893.032 73.6534C893.252 74.0511 893.362 74.5682 893.362 75.2045V81H891.703V79.8068H891.634C891.525 80.0265 891.36 80.2424 891.14 80.4545C890.92 80.6667 890.638 80.8428 890.294 80.983C889.949 81.1231 889.536 81.1932 889.055 81.1932ZM889.424 79.8295C889.894 79.8295 890.295 79.7367 890.629 79.5511C890.966 79.3655 891.222 79.1231 891.396 78.8239C891.574 78.5208 891.663 78.197 891.663 77.8523V76.7273C891.602 76.7879 891.485 76.8447 891.311 76.8977C891.14 76.947 890.945 76.9905 890.725 77.0284C890.506 77.0625 890.292 77.0947 890.083 77.125C889.875 77.1515 889.701 77.1742 889.561 77.1932C889.231 77.2348 888.93 77.3049 888.657 77.4034C888.388 77.5019 888.172 77.6439 888.009 77.8295C887.85 78.0114 887.771 78.2538 887.771 78.5568C887.771 78.9773 887.926 79.2955 888.237 79.5114C888.547 79.7235 888.943 79.8295 889.424 79.8295ZM895.624 81V72.2727H897.323V75.9318H898.142L901.022 72.2727H903.124L899.744 76.517L903.164 81H901.056L898.426 77.5114H897.323V81H895.624ZM907.801 81.1761C906.982 81.1761 906.268 80.9886 905.659 80.6136C905.049 80.2386 904.575 79.714 904.238 79.0398C903.901 78.3655 903.732 77.5777 903.732 76.6761C903.732 75.7708 903.901 74.9792 904.238 74.3011C904.575 73.6231 905.049 73.0966 905.659 72.7216C906.268 72.3466 906.982 72.1591 907.801 72.1591C908.619 72.1591 909.333 72.3466 909.943 72.7216C910.552 73.0966 911.026 73.6231 911.363 74.3011C911.7 74.9792 911.869 75.7708 911.869 76.6761C911.869 77.5777 911.7 78.3655 911.363 79.0398C911.026 79.714 910.552 80.2386 909.943 80.6136C909.333 80.9886 908.619 81.1761 907.801 81.1761ZM907.806 79.75C908.337 79.75 908.776 79.6098 909.124 79.3295C909.473 79.0492 909.731 78.6761 909.897 78.2102C910.068 77.7443 910.153 77.2311 910.153 76.6705C910.153 76.1136 910.068 75.6023 909.897 75.1364C909.731 74.6667 909.473 74.2898 909.124 74.0057C908.776 73.7216 908.337 73.5795 907.806 73.5795C907.272 73.5795 906.829 73.7216 906.477 74.0057C906.128 74.2898 905.869 74.6667 905.698 75.1364C905.532 75.6023 905.448 76.1136 905.448 76.6705C905.448 77.2311 905.532 77.7443 905.698 78.2102C905.869 78.6761 906.128 79.0492 906.477 79.3295C906.829 79.6098 907.272 79.75 907.806 79.75ZM915.43 78.6193L919.276 72.2727H921.106V81H919.441V74.6477L915.612 81H913.765V72.2727H915.43V78.6193ZM918.549 69.3182H919.947C919.947 69.9583 919.72 70.4792 919.265 70.8807C918.814 71.2784 918.204 71.4773 917.436 71.4773C916.67 71.4773 916.062 71.2784 915.612 70.8807C915.161 70.4792 914.936 69.9583 914.936 69.3182H916.328C916.328 69.6023 916.411 69.8542 916.578 70.0739C916.744 70.2898 917.03 70.3977 917.436 70.3977C917.833 70.3977 918.117 70.2898 918.288 70.0739C918.462 69.858 918.549 69.6061 918.549 69.3182ZM922.308 73.7386V72.2727H929.671V73.7386H926.825V81H925.166V73.7386H922.308ZM939.379 81.1761C938.561 81.1761 937.847 80.9886 937.237 80.6136C936.627 80.2386 936.153 79.714 935.816 79.0398C935.479 78.3655 935.311 77.5777 935.311 76.6761C935.311 75.7708 935.479 74.9792 935.816 74.3011C936.153 73.6231 936.627 73.0966 937.237 72.7216C937.847 72.3466 938.561 72.1591 939.379 72.1591C940.197 72.1591 940.911 72.3466 941.521 72.7216C942.131 73.0966 942.604 73.6231 942.941 74.3011C943.278 74.9792 943.447 75.7708 943.447 76.6761C943.447 77.5777 943.278 78.3655 942.941 79.0398C942.604 79.714 942.131 80.2386 941.521 80.6136C940.911 80.9886 940.197 81.1761 939.379 81.1761ZM939.384 79.75C939.915 79.75 940.354 79.6098 940.703 79.3295C941.051 79.0492 941.309 78.6761 941.475 78.2102C941.646 77.7443 941.731 77.2311 941.731 76.6705C941.731 76.1136 941.646 75.6023 941.475 75.1364C941.309 74.6667 941.051 74.2898 940.703 74.0057C940.354 73.7216 939.915 73.5795 939.384 73.5795C938.85 73.5795 938.407 73.7216 938.055 74.0057C937.706 74.2898 937.447 74.6667 937.276 75.1364C937.11 75.6023 937.026 76.1136 937.026 76.6705C937.026 77.2311 937.11 77.7443 937.276 78.2102C937.447 78.6761 937.706 79.0492 938.055 79.3295C938.407 79.6098 938.85 79.75 939.384 79.75ZM944.491 83.517V79.5284H945.201C945.383 79.3617 945.536 79.1629 945.661 78.9318C945.79 78.7008 945.898 78.4261 945.985 78.108C946.076 77.7898 946.152 77.4186 946.213 76.9943C946.273 76.5663 946.326 76.0777 946.372 75.5284L946.644 72.2727H952.576V79.5284H953.917V83.517H952.258V81H946.173V83.517H944.491ZM947.019 79.5284H950.917V73.7273H948.167L947.985 75.5284C947.898 76.4451 947.788 77.2405 947.656 77.9148C947.523 78.5852 947.311 79.1231 947.019 79.5284ZM959.254 81.1761C958.436 81.1761 957.722 80.9886 957.112 80.6136C956.502 80.2386 956.028 79.714 955.691 79.0398C955.354 78.3655 955.186 77.5777 955.186 76.6761C955.186 75.7708 955.354 74.9792 955.691 74.3011C956.028 73.6231 956.502 73.0966 957.112 72.7216C957.722 72.3466 958.436 72.1591 959.254 72.1591C960.072 72.1591 960.786 72.3466 961.396 72.7216C962.006 73.0966 962.479 73.6231 962.816 74.3011C963.153 74.9792 963.322 75.7708 963.322 76.6761C963.322 77.5777 963.153 78.3655 962.816 79.0398C962.479 79.714 962.006 80.2386 961.396 80.6136C960.786 80.9886 960.072 81.1761 959.254 81.1761ZM959.259 79.75C959.79 79.75 960.229 79.6098 960.578 79.3295C960.926 79.0492 961.184 78.6761 961.35 78.2102C961.521 77.7443 961.606 77.2311 961.606 76.6705C961.606 76.1136 961.521 75.6023 961.35 75.1364C961.184 74.6667 960.926 74.2898 960.578 74.0057C960.229 73.7216 959.79 73.5795 959.259 73.5795C958.725 73.5795 958.282 73.7216 957.93 74.0057C957.581 74.2898 957.322 74.6667 957.151 75.1364C956.985 75.6023 956.901 76.1136 956.901 76.6705C956.901 77.2311 956.985 77.7443 957.151 78.2102C957.322 78.6761 957.581 79.0492 957.93 79.3295C958.282 79.6098 958.725 79.75 959.259 79.75ZM965.218 81V72.2727H972.338V81H970.673V73.7386H966.872V81H965.218ZM978.285 81.1761C977.467 81.1761 976.753 80.9886 976.143 80.6136C975.533 80.2386 975.06 79.714 974.722 79.0398C974.385 78.3655 974.217 77.5777 974.217 76.6761C974.217 75.7708 974.385 74.9792 974.722 74.3011C975.06 73.6231 975.533 73.0966 976.143 72.7216C976.753 72.3466 977.467 72.1591 978.285 72.1591C979.103 72.1591 979.817 72.3466 980.427 72.7216C981.037 73.0966 981.51 73.6231 981.847 74.3011C982.185 74.9792 982.353 75.7708 982.353 76.6761C982.353 77.5777 982.185 78.3655 981.847 79.0398C981.51 79.714 981.037 80.2386 980.427 80.6136C979.817 80.9886 979.103 81.1761 978.285 81.1761ZM978.291 79.75C978.821 79.75 979.26 79.6098 979.609 79.3295C979.957 79.0492 980.215 78.6761 980.382 78.2102C980.552 77.7443 980.637 77.2311 980.637 76.6705C980.637 76.1136 980.552 75.6023 980.382 75.1364C980.215 74.6667 979.957 74.2898 979.609 74.0057C979.26 73.7216 978.821 73.5795 978.291 73.5795C977.757 73.5795 977.313 73.7216 976.961 74.0057C976.613 74.2898 976.353 74.6667 976.183 75.1364C976.016 75.6023 975.933 76.1136 975.933 76.6705C975.933 77.2311 976.016 77.7443 976.183 78.2102C976.353 78.6761 976.613 79.0492 976.961 79.3295C977.313 79.6098 977.757 79.75 978.291 79.75ZM983.562 81L983.556 79.5284H983.869C984.111 79.5284 984.314 79.4773 984.477 79.375C984.643 79.2689 984.78 79.0909 984.886 78.8409C984.992 78.5909 985.073 78.2462 985.13 77.8068C985.187 77.3636 985.229 76.8068 985.255 76.1364L985.409 72.2727H991.499V81H989.835V73.7386H986.982L986.846 76.7045C986.812 77.4242 986.738 78.053 986.624 78.5909C986.515 79.1288 986.354 79.5777 986.142 79.9375C985.929 80.2936 985.657 80.5606 985.323 80.7386C984.99 80.9129 984.585 81 984.107 81H983.562ZM999.68 75.9034V77.375H994.953V75.9034H999.68ZM995.43 72.2727V81H993.765V72.2727H995.43ZM1000.87 72.2727V81H999.208V72.2727H1000.87ZM1004.8 78.6193L1008.65 72.2727H1010.48V81H1008.82V74.6477L1004.99 81H1003.14V72.2727H1004.8V78.6193ZM1011.68 73.7386V72.2727H1019.05V73.7386H1016.2V81H1014.54V73.7386H1011.68ZM1024.2 81.1761C1023.34 81.1761 1022.6 80.9924 1021.98 80.625C1021.36 80.2538 1020.88 79.733 1020.54 79.0625C1020.21 78.3883 1020.04 77.5985 1020.04 76.6932C1020.04 75.7992 1020.21 75.0114 1020.54 74.3295C1020.88 73.6477 1021.35 73.1155 1021.95 72.733C1022.56 72.3504 1023.27 72.1591 1024.08 72.1591C1024.57 72.1591 1025.05 72.2405 1025.51 72.4034C1025.97 72.5663 1026.39 72.822 1026.76 73.1705C1027.12 73.5189 1027.41 73.9716 1027.62 74.5284C1027.84 75.0814 1027.94 75.7538 1027.94 76.5455V77.1477H1021.01V75.875H1026.28C1026.28 75.428 1026.19 75.0322 1026.01 74.6875C1025.82 74.339 1025.57 74.0644 1025.24 73.8636C1024.91 73.6629 1024.53 73.5625 1024.09 73.5625C1023.61 73.5625 1023.2 73.6799 1022.84 73.9148C1022.49 74.1458 1022.22 74.4489 1022.02 74.8239C1021.83 75.1951 1021.74 75.5985 1021.74 76.0341V77.0284C1021.74 77.6117 1021.84 78.108 1022.04 78.517C1022.25 78.9261 1022.54 79.2386 1022.91 79.4545C1023.29 79.6667 1023.72 79.7727 1024.22 79.7727C1024.54 79.7727 1024.83 79.7273 1025.1 79.6364C1025.36 79.5417 1025.59 79.4015 1025.78 79.2159C1025.98 79.0303 1026.12 78.8011 1026.23 78.5284L1027.83 78.8182C1027.71 79.2917 1027.47 79.7064 1027.14 80.0625C1026.81 80.4148 1026.4 80.6894 1025.9 80.8864C1025.4 81.0795 1024.83 81.1761 1024.2 81.1761ZM1029.14 81L1029.13 79.5284H1029.45C1029.69 79.5284 1029.89 79.4773 1030.05 79.375C1030.22 79.2689 1030.36 79.0909 1030.46 78.8409C1030.57 78.5909 1030.65 78.2462 1030.71 77.8068C1030.77 77.3636 1030.81 76.8068 1030.83 76.1364L1030.99 72.2727H1037.08V81H1035.41V73.7386H1032.56L1032.42 76.7045C1032.39 77.4242 1032.32 78.053 1032.2 78.5909C1032.09 79.1288 1031.93 79.5777 1031.72 79.9375C1031.51 80.2936 1031.23 80.5606 1030.9 80.7386C1030.57 80.9129 1030.16 81 1029.69 81H1029.14ZM1040.62 75.2727H1043.16C1044.22 75.2727 1045.05 75.5379 1045.62 76.0682C1046.2 76.5985 1046.49 77.2822 1046.49 78.1193C1046.49 78.6648 1046.36 79.1553 1046.1 79.5909C1045.84 80.0265 1045.46 80.3712 1044.97 80.625C1044.47 80.875 1043.87 81 1043.16 81H1039.34V72.2727H1041.01V79.5341H1043.16C1043.64 79.5341 1044.05 79.4072 1044.36 79.1534C1044.67 78.8958 1044.83 78.5682 1044.83 78.1705C1044.83 77.75 1044.67 77.4072 1044.36 77.142C1044.05 76.8731 1043.64 76.7386 1043.16 76.7386H1040.62V75.2727ZM1054.3 75.9034V77.375H1049.58V75.9034H1054.3ZM1050.05 72.2727V81H1048.39V72.2727H1050.05ZM1055.49 72.2727V81H1053.83V72.2727H1055.49ZM1059.04 75.2727H1061.58C1062.65 75.2727 1063.47 75.5379 1064.04 76.0682C1064.62 76.5985 1064.91 77.2822 1064.91 78.1193C1064.91 78.6648 1064.78 79.1553 1064.52 79.5909C1064.26 80.0265 1063.89 80.3712 1063.39 80.625C1062.89 80.875 1062.29 81 1061.58 81H1057.77V72.2727H1059.43V79.5341H1061.58C1062.07 79.5341 1062.47 79.4072 1062.78 79.1534C1063.1 78.8958 1063.25 78.5682 1063.25 78.1705C1063.25 77.75 1063.1 77.4072 1062.78 77.142C1062.47 76.8731 1062.07 76.7386 1061.58 76.7386H1059.04V75.2727ZM1066.15 81V72.2727H1067.84V81H1066.15ZM1071.79 78.6193L1075.64 72.2727H1077.47V81H1075.8V74.6477L1071.97 81H1070.12V72.2727H1071.79V78.6193ZM1074.91 69.3182H1076.31C1076.31 69.9583 1076.08 70.4792 1075.62 70.8807C1075.17 71.2784 1074.56 71.4773 1073.79 71.4773C1073.03 71.4773 1072.42 71.2784 1071.97 70.8807C1071.52 70.4792 1071.29 69.9583 1071.29 69.3182H1072.69C1072.69 69.6023 1072.77 69.8542 1072.94 70.0739C1073.1 70.2898 1073.39 70.3977 1073.79 70.3977C1074.19 70.3977 1074.48 70.2898 1074.65 70.0739C1074.82 69.858 1074.91 69.6061 1074.91 69.3182Z" fill="#8C98A9"/>
<path d="M952.751 127.227V118.38H954.758V127.227H952.751ZM949.331 123.807V121.8H958.178V123.807H949.331ZM970.139 128.179C969.218 128.179 968.4 128.021 967.684 127.706C966.973 127.391 966.41 126.952 965.997 126.389C965.583 125.827 965.364 125.177 965.338 124.44H967.742C967.763 124.793 967.88 125.102 968.093 125.366C968.306 125.626 968.59 125.829 968.944 125.974C969.297 126.119 969.694 126.191 970.132 126.191C970.601 126.191 971.017 126.11 971.379 125.948C971.741 125.782 972.025 125.552 972.229 125.258C972.434 124.964 972.534 124.625 972.529 124.241C972.534 123.845 972.431 123.496 972.223 123.193C972.014 122.891 971.711 122.654 971.315 122.484C970.923 122.313 970.45 122.228 969.896 122.228H968.739V120.4H969.896C970.352 120.4 970.75 120.321 971.091 120.163C971.436 120.006 971.707 119.784 971.903 119.499C972.099 119.209 972.195 118.874 972.191 118.495C972.195 118.124 972.112 117.803 971.941 117.53C971.775 117.253 971.539 117.038 971.232 116.884C970.929 116.731 970.574 116.654 970.164 116.654C969.764 116.654 969.393 116.727 969.052 116.871C968.711 117.016 968.436 117.223 968.228 117.491C968.019 117.756 967.908 118.071 967.895 118.438H965.613C965.63 117.705 965.841 117.061 966.246 116.507C966.655 115.949 967.201 115.514 967.882 115.203C968.564 114.888 969.329 114.73 970.177 114.73C971.051 114.73 971.809 114.894 972.453 115.222C973.1 115.546 973.601 115.983 973.955 116.533C974.309 117.082 974.485 117.69 974.485 118.354C974.49 119.092 974.272 119.71 973.833 120.208C973.399 120.707 972.828 121.033 972.12 121.186V121.288C973.041 121.416 973.746 121.757 974.236 122.311C974.73 122.861 974.975 123.545 974.971 124.363C974.971 125.096 974.762 125.752 974.345 126.332C973.931 126.907 973.36 127.359 972.632 127.687C971.907 128.015 971.076 128.179 970.139 128.179ZM982.004 128.249C980.952 128.249 980.048 127.983 979.294 127.45C978.544 126.913 977.966 126.14 977.562 125.13C977.161 124.116 976.961 122.895 976.961 121.467C976.965 120.04 977.167 118.825 977.568 117.824C977.973 116.818 978.55 116.051 979.3 115.523C980.055 114.994 980.956 114.73 982.004 114.73C983.052 114.73 983.954 114.994 984.708 115.523C985.462 116.051 986.04 116.818 986.44 117.824C986.845 118.83 987.047 120.044 987.047 121.467C987.047 122.899 986.845 124.122 986.44 125.136C986.04 126.146 985.462 126.918 984.708 127.45C983.958 127.983 983.057 128.249 982.004 128.249ZM982.004 126.249C982.822 126.249 983.468 125.846 983.941 125.04C984.418 124.231 984.657 123.04 984.657 121.467C984.657 120.428 984.548 119.554 984.331 118.847C984.113 118.139 983.807 117.607 983.41 117.249C983.014 116.886 982.545 116.705 982.004 116.705C981.19 116.705 980.547 117.11 980.074 117.92C979.601 118.725 979.362 119.908 979.358 121.467C979.354 122.511 979.458 123.389 979.671 124.101C979.888 124.812 980.195 125.349 980.591 125.712C980.988 126.07 981.459 126.249 982.004 126.249ZM998.475 128.249C997.422 128.249 996.519 127.983 995.765 127.45C995.015 126.913 994.437 126.14 994.032 125.13C993.632 124.116 993.431 122.895 993.431 121.467C993.436 120.04 993.638 118.825 994.039 117.824C994.444 116.818 995.021 116.051 995.771 115.523C996.525 114.994 997.426 114.73 998.475 114.73C999.523 114.73 1000.42 114.994 1001.18 115.523C1001.93 116.051 1002.51 116.818 1002.91 117.824C1003.32 118.83 1003.52 120.044 1003.52 121.467C1003.52 122.899 1003.32 124.122 1002.91 125.136C1002.51 126.146 1001.93 126.918 1001.18 127.45C1000.43 127.983 999.527 128.249 998.475 128.249ZM998.475 126.249C999.293 126.249 999.939 125.846 1000.41 125.04C1000.89 124.231 1001.13 123.04 1001.13 121.467C1001.13 120.428 1001.02 119.554 1000.8 118.847C1000.58 118.139 1000.28 117.607 999.881 117.249C999.485 116.886 999.016 116.705 998.475 116.705C997.661 116.705 997.017 117.11 996.544 117.92C996.071 118.725 995.833 119.908 995.828 121.467C995.824 122.511 995.929 123.389 996.142 124.101C996.359 124.812 996.666 125.349 997.062 125.712C997.458 126.07 997.929 126.249 998.475 126.249ZM1010.48 128.249C1009.43 128.249 1008.52 127.983 1007.77 127.45C1007.02 126.913 1006.44 126.14 1006.04 125.13C1005.64 124.116 1005.44 122.895 1005.44 121.467C1005.44 120.04 1005.64 118.825 1006.04 117.824C1006.45 116.818 1007.03 116.051 1007.78 115.523C1008.53 114.994 1009.43 114.73 1010.48 114.73C1011.53 114.73 1012.43 114.994 1013.18 115.523C1013.94 116.051 1014.52 116.818 1014.92 117.824C1015.32 118.83 1015.52 120.044 1015.52 121.467C1015.52 122.899 1015.32 124.122 1014.92 125.136C1014.52 126.146 1013.94 126.918 1013.18 127.45C1012.43 127.983 1011.53 128.249 1010.48 128.249ZM1010.48 126.249C1011.3 126.249 1011.94 125.846 1012.42 125.04C1012.89 124.231 1013.13 123.04 1013.13 121.467C1013.13 120.428 1013.02 119.554 1012.81 118.847C1012.59 118.139 1012.28 117.607 1011.89 117.249C1011.49 116.886 1011.02 116.705 1010.48 116.705C1009.67 116.705 1009.02 117.11 1008.55 117.92C1008.08 118.725 1007.84 119.908 1007.83 121.467C1007.83 122.511 1007.93 123.389 1008.15 124.101C1008.36 124.812 1008.67 125.349 1009.07 125.712C1009.46 126.07 1009.94 126.249 1010.48 126.249ZM1022.49 128.249C1021.43 128.249 1020.53 127.983 1019.78 127.45C1019.03 126.913 1018.45 126.14 1018.04 125.13C1017.64 124.116 1017.44 122.895 1017.44 121.467C1017.45 120.04 1017.65 118.825 1018.05 117.824C1018.46 116.818 1019.03 116.051 1019.78 115.523C1020.54 114.994 1021.44 114.73 1022.49 114.73C1023.53 114.73 1024.44 114.994 1025.19 115.523C1025.94 116.051 1026.52 116.818 1026.92 117.824C1027.33 118.83 1027.53 120.044 1027.53 121.467C1027.53 122.899 1027.33 124.122 1026.92 125.136C1026.52 126.146 1025.94 126.918 1025.19 127.45C1024.44 127.983 1023.54 128.249 1022.49 128.249ZM1022.49 126.249C1023.3 126.249 1023.95 125.846 1024.42 125.04C1024.9 124.231 1025.14 123.04 1025.14 121.467C1025.14 120.428 1025.03 119.554 1024.81 118.847C1024.6 118.139 1024.29 117.607 1023.89 117.249C1023.5 116.886 1023.03 116.705 1022.49 116.705C1021.67 116.705 1021.03 117.11 1020.56 117.92C1020.08 118.725 1019.84 119.908 1019.84 121.467C1019.84 122.511 1019.94 123.389 1020.15 124.101C1020.37 124.812 1020.68 125.349 1021.07 125.712C1021.47 126.07 1021.94 126.249 1022.49 126.249ZM1040.06 117.907V128H1037.7V117.907H1040.06ZM1044.12 117.907V119.876H1033.68V117.907H1044.12ZM1044.12 114.909V116.878H1033.68V114.909H1044.12Z" fill="#1A3154"/>
<path d="M948.7 153V145.364H951.867C952.729 145.364 953.412 145.548 953.916 145.915C954.419 146.28 954.671 146.776 954.671 147.402C954.671 147.849 954.529 148.204 954.244 148.466C953.959 148.728 953.581 148.903 953.11 148.993C953.452 149.033 953.765 149.135 954.05 149.301C954.335 149.464 954.564 149.682 954.736 149.957C954.912 150.232 954.999 150.561 954.999 150.942C954.999 151.346 954.895 151.704 954.686 152.016C954.477 152.324 954.174 152.566 953.776 152.741C953.382 152.914 952.906 153 952.35 153H948.7ZM950.097 151.757H952.35C952.718 151.757 953.006 151.669 953.215 151.494C953.423 151.318 953.528 151.079 953.528 150.778C953.528 150.423 953.423 150.145 953.215 149.942C953.006 149.737 952.718 149.634 952.35 149.634H950.097V151.757ZM950.097 148.545H951.882C952.161 148.545 952.399 148.506 952.598 148.426C952.8 148.347 952.954 148.234 953.061 148.088C953.17 147.939 953.225 147.763 953.225 147.561C953.225 147.266 953.104 147.036 952.862 146.87C952.62 146.704 952.288 146.621 951.867 146.621H950.097V148.545ZM962.96 146.552C962.702 146.555 962.453 146.616 962.214 146.736C961.976 146.855 961.779 147.014 961.623 147.213C961.47 147.412 961.394 147.637 961.394 147.889H959.992C959.992 147.531 960.072 147.193 960.231 146.875C960.39 146.557 960.607 146.277 960.882 146.035C961.157 145.793 961.474 145.602 961.832 145.463C962.19 145.324 962.566 145.254 962.96 145.254C963.679 145.254 964.288 145.43 964.785 145.781C965.285 146.129 965.665 146.593 965.923 147.173C966.182 147.75 966.311 148.383 966.311 149.072V149.321C966.311 150.01 966.182 150.645 965.923 151.225C965.665 151.805 965.285 152.269 964.785 152.617C964.288 152.965 963.679 153.139 962.96 153.139C962.384 153.139 961.871 153.017 961.424 152.771C960.977 152.526 960.625 152.191 960.37 151.767C960.118 151.339 959.992 150.852 959.992 150.305H961.394C961.394 150.577 961.465 150.829 961.608 151.061C961.75 151.293 961.939 151.48 962.175 151.623C962.413 151.762 962.675 151.833 962.96 151.837C963.388 151.833 963.741 151.704 964.019 151.449C964.301 151.194 964.51 150.874 964.646 150.489C964.785 150.102 964.854 149.712 964.854 149.321V149.072C964.854 148.665 964.785 148.269 964.646 147.884C964.51 147.5 964.301 147.183 964.019 146.935C963.741 146.683 963.388 146.555 962.96 146.552ZM965.376 148.59V149.734H962.249V148.59H965.376ZM967.044 146.646V145.364H973.488V146.646H970.997V153H969.545V146.646H967.044ZM977.921 153.154C977.205 153.154 976.58 152.99 976.047 152.662C975.513 152.334 975.099 151.875 974.804 151.285C974.509 150.695 974.361 150.005 974.361 149.217C974.361 148.424 974.509 147.732 974.804 147.138C975.099 146.545 975.513 146.085 976.047 145.756C976.58 145.428 977.205 145.264 977.921 145.264C978.637 145.264 979.262 145.428 979.795 145.756C980.329 146.085 980.743 146.545 981.038 147.138C981.333 147.732 981.481 148.424 981.481 149.217C981.481 150.005 981.333 150.695 981.038 151.285C980.743 151.875 980.329 152.334 979.795 152.662C979.262 152.99 978.637 153.154 977.921 153.154ZM977.926 151.906C978.39 151.906 978.774 151.784 979.079 151.538C979.384 151.293 979.61 150.967 979.756 150.559C979.905 150.151 979.979 149.702 979.979 149.212C979.979 148.724 979.905 148.277 979.756 147.869C979.61 147.458 979.384 147.129 979.079 146.88C978.774 146.631 978.39 146.507 977.926 146.507C977.459 146.507 977.071 146.631 976.763 146.88C976.458 147.129 976.231 147.458 976.081 147.869C975.936 148.277 975.863 148.724 975.863 149.212C975.863 149.702 975.936 150.151 976.081 150.559C976.231 150.967 976.458 151.293 976.763 151.538C977.071 151.784 977.459 151.906 977.926 151.906ZM987.425 151.161L989.891 145.364H991.174L987.977 153H986.874L983.741 145.364H985.009L987.425 151.161ZM984.597 145.364V153H983.14V145.364H984.597ZM990.294 153V145.364H991.741V153H990.294ZM1001.71 151.161L1004.18 145.364H1005.46L1002.26 153H1001.16L998.029 145.364H999.296L1001.71 151.161ZM998.884 145.364V153H997.427V145.364H998.884ZM1004.58 153V145.364H1006.03V153H1004.58ZM1011.3 153.154C1010.55 153.154 1009.9 152.993 1009.36 152.672C1008.82 152.347 1008.4 151.891 1008.1 151.305C1007.81 150.715 1007.67 150.024 1007.67 149.232C1007.67 148.449 1007.81 147.76 1008.1 147.163C1008.4 146.567 1008.81 146.101 1009.34 145.766C1009.87 145.432 1010.49 145.264 1011.2 145.264C1011.63 145.264 1012.04 145.335 1012.45 145.478C1012.85 145.621 1013.22 145.844 1013.54 146.149C1013.86 146.454 1014.11 146.85 1014.3 147.337C1014.48 147.821 1014.58 148.41 1014.58 149.102V149.629H1008.51V148.516H1013.12C1013.12 148.125 1013.04 147.778 1012.88 147.477C1012.72 147.172 1012.5 146.931 1012.21 146.756C1011.93 146.58 1011.59 146.492 1011.21 146.492C1010.79 146.492 1010.42 146.595 1010.11 146.8C1009.8 147.003 1009.57 147.268 1009.4 147.596C1009.23 147.921 1009.15 148.274 1009.15 148.655V149.525C1009.15 150.035 1009.24 150.469 1009.42 150.827C1009.6 151.185 1009.85 151.459 1010.18 151.648C1010.5 151.833 1010.88 151.926 1011.32 151.926C1011.6 151.926 1011.85 151.886 1012.09 151.807C1012.32 151.724 1012.52 151.601 1012.69 151.439C1012.86 151.277 1012.99 151.076 1013.08 150.837L1014.48 151.091C1014.37 151.505 1014.17 151.868 1013.88 152.18C1013.59 152.488 1013.22 152.728 1012.79 152.901C1012.35 153.07 1011.86 153.154 1011.3 153.154ZM1019.44 153.154C1018.7 153.154 1018.07 152.987 1017.53 152.652C1017 152.314 1016.6 151.848 1016.31 151.255C1016.03 150.662 1015.88 149.982 1015.88 149.217C1015.88 148.441 1016.03 147.757 1016.32 147.163C1016.61 146.567 1017.02 146.101 1017.55 145.766C1018.08 145.432 1018.71 145.264 1019.43 145.264C1020.01 145.264 1020.52 145.372 1020.98 145.587C1021.43 145.799 1021.8 146.098 1022.08 146.482C1022.36 146.867 1022.53 147.316 1022.58 147.83H1021.13C1021.05 147.472 1020.87 147.163 1020.59 146.905C1020.3 146.646 1019.93 146.517 1019.45 146.517C1019.04 146.517 1018.68 146.626 1018.36 146.845C1018.06 147.061 1017.82 147.369 1017.64 147.77C1017.47 148.168 1017.38 148.638 1017.38 149.182C1017.38 149.739 1017.47 150.219 1017.64 150.624C1017.81 151.028 1018.05 151.341 1018.35 151.563C1018.67 151.785 1019.03 151.896 1019.45 151.896C1019.73 151.896 1019.99 151.845 1020.22 151.742C1020.45 151.636 1020.64 151.485 1020.8 151.29C1020.96 151.094 1021.07 150.859 1021.13 150.584H1022.58C1022.53 151.078 1022.37 151.518 1022.1 151.906C1021.83 152.294 1021.47 152.599 1021.02 152.821C1020.57 153.043 1020.05 153.154 1019.44 153.154ZM1028.72 153V146.631H1026.89C1026.46 146.631 1026.12 146.732 1025.88 146.935C1025.64 147.137 1025.52 147.402 1025.52 147.73C1025.52 148.055 1025.63 148.317 1025.85 148.516C1026.07 148.711 1026.39 148.809 1026.79 148.809H1029.16V150.012H1026.79C1026.23 150.012 1025.74 149.919 1025.33 149.734C1024.92 149.545 1024.61 149.278 1024.39 148.933C1024.17 148.589 1024.06 148.181 1024.06 147.71C1024.06 147.23 1024.17 146.815 1024.4 146.467C1024.63 146.116 1024.95 145.844 1025.38 145.652C1025.8 145.46 1026.31 145.364 1026.89 145.364H1030.12V153H1028.72ZM1023.71 153L1025.86 149.142H1027.39L1025.23 153H1023.71ZM1038.33 145.364V151.782H1039.45V155.461H1037.98V153H1032.1V145.364H1033.56V151.717H1036.88V145.364H1038.33ZM1044.3 153.154C1043.55 153.154 1042.9 152.993 1042.36 152.672C1041.82 152.347 1041.4 151.891 1041.11 151.305C1040.82 150.715 1040.67 150.024 1040.67 149.232C1040.67 148.449 1040.82 147.76 1041.11 147.163C1041.4 146.567 1041.81 146.101 1042.34 145.766C1042.87 145.432 1043.49 145.264 1044.2 145.264C1044.63 145.264 1045.05 145.335 1045.45 145.478C1045.86 145.621 1046.22 145.844 1046.54 146.149C1046.86 146.454 1047.12 146.85 1047.3 147.337C1047.49 147.821 1047.58 148.41 1047.58 149.102V149.629H1041.51V148.516H1046.12C1046.12 148.125 1046.04 147.778 1045.89 147.477C1045.73 147.172 1045.5 146.931 1045.21 146.756C1044.93 146.58 1044.59 146.492 1044.21 146.492C1043.79 146.492 1043.43 146.595 1043.12 146.8C1042.81 147.003 1042.57 147.268 1042.4 147.596C1042.23 147.921 1042.15 148.274 1042.15 148.655V149.525C1042.15 150.035 1042.24 150.469 1042.42 150.827C1042.6 151.185 1042.86 151.459 1043.18 151.648C1043.51 151.833 1043.88 151.926 1044.32 151.926C1044.6 151.926 1044.86 151.886 1045.09 151.807C1045.32 151.724 1045.52 151.601 1045.69 151.439C1045.86 151.277 1045.99 151.076 1046.08 150.837L1047.49 151.091C1047.37 151.505 1047.17 151.868 1046.88 152.18C1046.59 152.488 1046.23 152.728 1045.79 152.901C1045.36 153.07 1044.86 153.154 1044.3 153.154Z" fill="#8C98A9"/>
<rect x="238.305" y="1" width="607.325" height="178" rx="8" fill="white"/>
<path d="M705.045 16.408C705.045 17.736 704.877 18.944 704.541 20.032C704.205 21.104 703.701 22.032 703.029 22.816C702.373 23.6 701.549 24.2 700.557 24.616C699.581 25.032 698.445 25.24 697.149 25.24C695.805 25.24 694.637 25.032 693.645 24.616C692.653 24.184 691.829 23.584 691.173 22.816C690.517 22.032 690.029 21.096 689.709 20.008C689.389 18.92 689.229 17.712 689.229 16.384C689.229 14.624 689.517 13.088 690.093 11.776C690.669 10.464 691.541 9.44 692.709 8.704C693.893 7.968 695.381 7.6 697.173 7.6C698.885 7.6 700.325 7.968 701.493 8.704C702.661 9.424 703.541 10.448 704.133 11.776C704.741 13.088 705.045 14.632 705.045 16.408ZM691.509 16.408C691.509 17.848 691.709 19.088 692.109 20.128C692.509 21.168 693.125 21.968 693.957 22.528C694.805 23.088 695.869 23.368 697.149 23.368C698.445 23.368 699.501 23.088 700.317 22.528C701.149 21.968 701.765 21.168 702.165 20.128C702.565 19.088 702.765 17.848 702.765 16.408C702.765 14.248 702.317 12.56 701.421 11.344C700.525 10.112 699.109 9.496 697.173 9.496C695.877 9.496 694.805 9.776 693.957 10.336C693.125 10.88 692.509 11.672 692.109 12.712C691.709 13.736 691.509 14.968 691.509 16.408ZM707.883 17.272C707.883 15.4 708.067 13.808 708.435 12.496C708.819 11.168 709.403 10.112 710.187 9.328C710.987 8.528 712.011 7.992 713.259 7.72C714.299 7.496 715.315 7.296 716.307 7.12C717.299 6.944 718.227 6.784 719.091 6.64L719.451 8.488C719.035 8.552 718.571 8.632 718.059 8.728C717.547 8.808 717.027 8.896 716.499 8.992C715.971 9.072 715.459 9.16 714.963 9.256C714.483 9.336 714.059 9.416 713.691 9.496C713.163 9.608 712.691 9.8 712.275 10.072C711.859 10.328 711.499 10.68 711.195 11.128C710.907 11.576 710.675 12.128 710.499 12.784C710.323 13.44 710.219 14.216 710.187 15.112H710.331C710.555 14.808 710.859 14.496 711.243 14.176C711.643 13.856 712.115 13.584 712.659 13.36C713.219 13.136 713.851 13.024 714.555 13.024C715.675 13.024 716.603 13.272 717.339 13.768C718.091 14.248 718.651 14.92 719.019 15.784C719.403 16.648 719.595 17.656 719.595 18.808C719.595 20.232 719.347 21.424 718.851 22.384C718.355 23.344 717.667 24.064 716.787 24.544C715.907 25.008 714.883 25.24 713.715 25.24C712.835 25.24 712.035 25.072 711.315 24.736C710.595 24.384 709.979 23.872 709.467 23.2C708.955 22.528 708.563 21.696 708.291 20.704C708.019 19.712 707.883 18.568 707.883 17.272ZM713.883 23.488C714.587 23.488 715.195 23.344 715.707 23.056C716.235 22.768 716.643 22.296 716.931 21.64C717.219 20.984 717.363 20.112 717.363 19.024C717.363 17.712 717.115 16.68 716.619 15.928C716.139 15.16 715.339 14.776 714.219 14.776C713.515 14.776 712.875 14.936 712.299 15.256C711.723 15.56 711.243 15.912 710.859 16.312C710.475 16.712 710.203 17.048 710.043 17.32C710.043 18.104 710.099 18.864 710.211 19.6C710.323 20.336 710.515 21 710.787 21.592C711.075 22.168 711.467 22.632 711.963 22.984C712.475 23.32 713.115 23.488 713.883 23.488ZM734.106 18.544C734.106 19.616 733.962 20.568 733.674 21.4C733.402 22.216 733.002 22.912 732.474 23.488C731.962 24.064 731.33 24.504 730.578 24.808C729.842 25.096 729.018 25.24 728.106 25.24C727.258 25.24 726.474 25.096 725.754 24.808C725.034 24.504 724.41 24.064 723.882 23.488C723.354 22.912 722.938 22.216 722.634 21.4C722.346 20.568 722.202 19.616 722.202 18.544C722.202 17.12 722.442 15.92 722.922 14.944C723.402 13.952 724.09 13.2 724.986 12.688C725.882 12.16 726.946 11.896 728.178 11.896C729.346 11.896 730.37 12.16 731.25 12.688C732.146 13.2 732.842 13.952 733.338 14.944C733.85 15.92 734.106 17.12 734.106 18.544ZM724.386 18.544C724.386 19.552 724.514 20.432 724.77 21.184C725.042 21.92 725.458 22.488 726.018 22.888C726.578 23.288 727.29 23.488 728.154 23.488C729.018 23.488 729.73 23.288 730.29 22.888C730.85 22.488 731.258 21.92 731.514 21.184C731.786 20.432 731.922 19.552 731.922 18.544C731.922 17.52 731.786 16.648 731.514 15.928C731.242 15.208 730.826 14.656 730.266 14.272C729.722 13.872 729.01 13.672 728.13 13.672C726.818 13.672 725.866 14.104 725.274 14.968C724.682 15.832 724.386 17.024 724.386 18.544ZM743.574 11.896C745.158 11.896 746.43 12.448 747.39 13.552C748.366 14.656 748.854 16.32 748.854 18.544C748.854 20 748.63 21.232 748.182 22.24C747.75 23.232 747.134 23.984 746.334 24.496C745.55 24.992 744.622 25.24 743.55 25.24C742.894 25.24 742.31 25.152 741.798 24.976C741.286 24.8 740.846 24.576 740.478 24.304C740.126 24.016 739.822 23.704 739.566 23.368H739.422C739.454 23.64 739.486 23.984 739.518 24.4C739.55 24.816 739.566 25.176 739.566 25.48V30.76H737.454V12.136H739.182L739.47 13.888H739.566C739.822 13.52 740.126 13.184 740.478 12.88C740.846 12.576 741.278 12.336 741.774 12.16C742.286 11.984 742.886 11.896 743.574 11.896ZM743.19 13.672C742.326 13.672 741.63 13.84 741.102 14.176C740.574 14.496 740.19 14.984 739.95 15.64C739.71 16.296 739.582 17.128 739.566 18.136V18.544C739.566 19.6 739.678 20.496 739.902 21.232C740.126 21.968 740.502 22.528 741.03 22.912C741.574 23.296 742.31 23.488 743.238 23.488C744.022 23.488 744.662 23.272 745.158 22.84C745.67 22.408 746.046 21.824 746.286 21.088C746.542 20.336 746.67 19.48 746.67 18.52C746.67 17.048 746.382 15.872 745.806 14.992C745.246 14.112 744.374 13.672 743.19 13.672ZM763.403 18.544C763.403 19.616 763.259 20.568 762.971 21.4C762.699 22.216 762.299 22.912 761.771 23.488C761.259 24.064 760.627 24.504 759.875 24.808C759.139 25.096 758.315 25.24 757.403 25.24C756.555 25.24 755.771 25.096 755.051 24.808C754.331 24.504 753.707 24.064 753.179 23.488C752.651 22.912 752.235 22.216 751.931 21.4C751.643 20.568 751.499 19.616 751.499 18.544C751.499 17.12 751.739 15.92 752.219 14.944C752.699 13.952 753.387 13.2 754.283 12.688C755.179 12.16 756.243 11.896 757.475 11.896C758.643 11.896 759.667 12.16 760.547 12.688C761.443 13.2 762.139 13.952 762.635 14.944C763.147 15.92 763.403 17.12 763.403 18.544ZM753.683 18.544C753.683 19.552 753.811 20.432 754.067 21.184C754.339 21.92 754.755 22.488 755.315 22.888C755.875 23.288 756.587 23.488 757.451 23.488C758.315 23.488 759.027 23.288 759.587 22.888C760.147 22.488 760.555 21.92 760.811 21.184C761.083 20.432 761.219 19.552 761.219 18.544C761.219 17.52 761.083 16.648 760.811 15.928C760.539 15.208 760.123 14.656 759.563 14.272C759.019 13.872 758.307 13.672 757.427 13.672C756.115 13.672 755.163 14.104 754.571 14.968C753.979 15.832 753.683 17.024 753.683 18.544ZM775.396 13.912H771.196V25H769.108V13.912H764.956V12.136H775.396V13.912Z" fill="#1A3154"/>
<path d="M688.277 42.3295H689.35C689.373 42.625 689.507 42.8494 689.751 43.0028C689.998 43.1562 690.319 43.233 690.714 43.233C691.117 43.233 691.463 43.1506 691.75 42.9858C692.036 42.8182 692.18 42.5483 692.18 42.1761C692.18 41.9574 692.126 41.767 692.018 41.6051C691.91 41.4403 691.758 41.3125 691.562 41.2216C691.366 41.1307 691.134 41.0852 690.867 41.0852H689.742V40.1818H690.867C691.268 40.1818 691.563 40.0909 691.754 39.9091C691.947 39.7273 692.044 39.5 692.044 39.2273C692.044 38.9347 691.94 38.7003 691.732 38.5241C691.525 38.3452 691.231 38.2557 690.85 38.2557C690.467 38.2557 690.147 38.3423 689.892 38.5156C689.636 38.6861 689.501 38.9062 689.487 39.1761H688.43C688.441 38.8239 688.549 38.5128 688.754 38.2429C688.958 37.9702 689.237 37.7571 689.589 37.6037C689.941 37.4474 690.345 37.3693 690.799 37.3693C691.259 37.3693 691.659 37.4503 691.997 37.6122C692.338 37.7713 692.6 37.9886 692.785 38.2642C692.973 38.5369 693.066 38.8466 693.066 39.1932C693.066 39.5625 692.963 39.8608 692.755 40.0881C692.548 40.3153 692.288 40.4773 691.975 40.5739V40.642C692.223 40.6591 692.437 40.7386 692.619 40.8807C692.803 41.0199 692.947 41.2031 693.049 41.4304C693.152 41.6548 693.203 41.9034 693.203 42.1761C693.203 42.5739 693.096 42.9205 692.883 43.2159C692.67 43.5085 692.377 43.7358 692.005 43.8977C691.633 44.0568 691.208 44.1364 690.731 44.1364C690.268 44.1364 689.853 44.0611 689.487 43.9105C689.12 43.7571 688.829 43.5455 688.613 43.2756C688.4 43.0028 688.288 42.6875 688.277 42.3295ZM696.541 44.1534C696.127 44.1534 695.75 44.0753 695.412 43.919C695.074 43.7599 694.806 43.5312 694.607 43.233C694.408 42.9318 694.308 42.5682 694.308 42.142C694.308 41.767 694.382 41.4631 694.53 41.2301C694.678 40.9943 694.875 40.8097 695.122 40.6761C695.37 40.5426 695.642 40.4432 695.941 40.3778C696.242 40.3097 696.544 40.2557 696.848 40.2159C697.246 40.1648 697.568 40.1264 697.816 40.1009C698.066 40.0724 698.247 40.0256 698.361 39.9602C698.477 39.8949 698.536 39.7812 698.536 39.6193V39.5852C698.536 39.1648 698.421 38.8381 698.191 38.6051C697.963 38.3722 697.618 38.2557 697.155 38.2557C696.675 38.2557 696.299 38.3608 696.026 38.571C695.753 38.7812 695.561 39.0057 695.451 39.2443L694.496 38.9034C694.666 38.5057 694.894 38.196 695.178 37.9744C695.465 37.75 695.777 37.5937 696.115 37.5057C696.456 37.4148 696.791 37.3693 697.121 37.3693C697.331 37.3693 697.573 37.3949 697.845 37.446C698.121 37.4943 698.387 37.5952 698.642 37.7486C698.901 37.902 699.115 38.1335 699.286 38.4432C699.456 38.7528 699.541 39.1676 699.541 39.6875V44H698.536V43.1136H698.485C698.416 43.2557 698.303 43.4077 698.144 43.5696C697.985 43.7315 697.773 43.8693 697.509 43.983C697.245 44.0966 696.922 44.1534 696.541 44.1534ZM696.695 43.25C697.093 43.25 697.428 43.1719 697.701 43.0156C697.976 42.8594 698.183 42.6577 698.323 42.4105C698.465 42.1634 698.536 41.9034 698.536 41.6307V40.7102C698.493 40.7614 698.399 40.8082 698.254 40.8509C698.112 40.8906 697.948 40.9261 697.76 40.9574C697.576 40.9858 697.395 41.0114 697.219 41.0341C697.046 41.054 696.905 41.071 696.797 41.0852C696.536 41.1193 696.291 41.1747 696.064 41.2514C695.84 41.3253 695.658 41.4375 695.519 41.5881C695.382 41.7358 695.314 41.9375 695.314 42.1932C695.314 42.5426 695.443 42.8068 695.702 42.9858C695.963 43.1619 696.294 43.25 696.695 43.25ZM704.752 44V37.4545H709.9V44H708.894V38.392H705.758V44H704.752ZM714.395 44.1364C713.805 44.1364 713.286 43.9957 712.84 43.7145C712.397 43.4332 712.05 43.0398 711.8 42.5341C711.553 42.0284 711.43 41.4375 711.43 40.7614C711.43 40.0795 711.553 39.4844 711.8 38.9759C712.05 38.4673 712.397 38.0724 712.84 37.7912C713.286 37.5099 713.805 37.3693 714.395 37.3693C714.986 37.3693 715.503 37.5099 715.947 37.7912C716.393 38.0724 716.739 38.4673 716.986 38.9759C717.236 39.4844 717.361 40.0795 717.361 40.7614C717.361 41.4375 717.236 42.0284 716.986 42.5341C716.739 43.0398 716.393 43.4332 715.947 43.7145C715.503 43.9957 714.986 44.1364 714.395 44.1364ZM714.395 43.233C714.844 43.233 715.214 43.1179 715.503 42.8878C715.793 42.6577 716.008 42.3551 716.147 41.9801C716.286 41.6051 716.356 41.1989 716.356 40.7614C716.356 40.3239 716.286 39.9162 716.147 39.5384C716.008 39.1605 715.793 38.8551 715.503 38.6222C715.214 38.3892 714.844 38.2727 714.395 38.2727C713.947 38.2727 713.577 38.3892 713.288 38.6222C712.998 38.8551 712.783 39.1605 712.644 39.5384C712.505 39.9162 712.435 40.3239 712.435 40.7614C712.435 41.1989 712.505 41.6051 712.644 41.9801C712.783 42.3551 712.998 42.6577 713.288 42.8878C713.577 43.1179 713.947 43.233 714.395 43.233ZM721.556 44.1364C720.942 44.1364 720.414 43.9915 719.97 43.7017C719.527 43.4119 719.186 43.0128 718.948 42.5043C718.709 41.9957 718.59 41.4148 718.59 40.7614C718.59 40.0966 718.712 39.5099 718.956 39.0014C719.203 38.4901 719.547 38.0909 719.987 37.804C720.431 37.5142 720.948 37.3693 721.539 37.3693C721.999 37.3693 722.414 37.4545 722.783 37.625C723.152 37.7955 723.455 38.0341 723.691 38.3409C723.926 38.6477 724.073 39.0057 724.129 39.4148H723.124C723.047 39.1165 722.877 38.8523 722.612 38.6222C722.351 38.3892 721.999 38.2727 721.556 38.2727C721.164 38.2727 720.82 38.375 720.524 38.5795C720.232 38.7812 720.003 39.0668 719.838 39.4361C719.676 39.8026 719.595 40.233 719.595 40.7273C719.595 41.233 719.675 41.6733 719.834 42.0483C719.996 42.4233 720.223 42.7145 720.516 42.9219C720.811 43.1293 721.158 43.233 721.556 43.233C721.817 43.233 722.054 43.1875 722.267 43.0966C722.48 43.0057 722.661 42.875 722.808 42.7045C722.956 42.5341 723.061 42.3295 723.124 42.0909H724.129C724.073 42.4773 723.932 42.8253 723.708 43.1349C723.486 43.4418 723.192 43.6861 722.826 43.8679C722.462 44.0469 722.039 44.1364 721.556 44.1364ZM725.02 44V43.0625H725.259C725.455 43.0625 725.618 43.0241 725.749 42.9474C725.879 42.8679 725.985 42.7301 726.064 42.5341C726.147 42.3352 726.209 42.0597 726.252 41.7074C726.297 41.3523 726.33 40.9006 726.35 40.3523L726.469 37.4545H730.833V44H729.827V38.392H727.424L727.321 40.7273C727.299 41.2642 727.25 41.7372 727.176 42.1463C727.105 42.5526 726.996 42.8935 726.848 43.169C726.703 43.4446 726.51 43.652 726.269 43.7912C726.027 43.9304 725.725 44 725.361 44H725.02ZM735.422 44.1364C734.791 44.1364 734.247 43.9972 733.79 43.7188C733.335 43.4375 732.985 43.0455 732.737 42.5426C732.493 42.0369 732.371 41.4489 732.371 40.7784C732.371 40.108 732.493 39.517 732.737 39.0057C732.985 38.4915 733.328 38.0909 733.769 37.804C734.212 37.5142 734.729 37.3693 735.32 37.3693C735.661 37.3693 735.997 37.4261 736.33 37.5398C736.662 37.6534 736.965 37.8381 737.237 38.0938C737.51 38.3466 737.727 38.6818 737.889 39.0994C738.051 39.517 738.132 40.0312 738.132 40.642V41.0682H733.087V40.1989H737.11C737.11 39.8295 737.036 39.5 736.888 39.2102C736.743 38.9205 736.536 38.6918 736.266 38.5241C735.999 38.3565 735.683 38.2727 735.32 38.2727C734.919 38.2727 734.573 38.3722 734.28 38.571C733.99 38.767 733.767 39.0227 733.611 39.3381C733.455 39.6534 733.377 39.9915 733.377 40.3523V40.9318C733.377 41.4261 733.462 41.8452 733.632 42.1889C733.806 42.5298 734.046 42.7898 734.352 42.9688C734.659 43.1449 735.016 43.233 735.422 43.233C735.686 43.233 735.925 43.196 736.138 43.1222C736.354 43.0455 736.54 42.9318 736.696 42.7812C736.852 42.6278 736.973 42.4375 737.058 42.2102L738.03 42.483C737.928 42.8125 737.756 43.1023 737.514 43.3523C737.273 43.5994 736.975 43.7926 736.62 43.9318C736.264 44.0682 735.865 44.1364 735.422 44.1364ZM738.963 45.875V43.0625H739.509C739.642 42.9233 739.757 42.7727 739.854 42.6108C739.951 42.4489 740.034 42.2571 740.105 42.0355C740.179 41.8111 740.242 41.5384 740.293 41.2173C740.344 40.8935 740.389 40.5028 740.429 40.0455L740.651 37.4545H744.81V43.0625H745.816V45.875H744.81V44H739.969V45.875H738.963ZM740.651 43.0625H743.804V38.392H741.588L741.418 40.0455C741.347 40.7301 741.259 41.3281 741.154 41.8395C741.049 42.3509 740.881 42.7585 740.651 43.0625ZM751.531 40.267V41.2045H747.917V40.267H751.531ZM748.156 37.4545V44H747.15V37.4545H748.156ZM752.298 37.4545V44H751.292V37.4545H752.298ZM755.14 42.517L758.294 37.4545H759.453V44H758.447V38.9375L755.311 44H754.135V37.4545H755.14V42.517ZM764.039 44.1364C763.409 44.1364 762.865 43.9972 762.407 43.7188C761.953 43.4375 761.602 43.0455 761.355 42.5426C761.11 42.0369 760.988 41.4489 760.988 40.7784C760.988 40.108 761.11 39.517 761.355 39.0057C761.602 38.4915 761.946 38.0909 762.386 37.804C762.829 37.5142 763.346 37.3693 763.937 37.3693C764.278 37.3693 764.615 37.4261 764.947 37.5398C765.279 37.6534 765.582 37.8381 765.855 38.0938C766.127 38.3466 766.345 38.6818 766.507 39.0994C766.669 39.517 766.75 40.0312 766.75 40.642V41.0682H761.704V40.1989H765.727C765.727 39.8295 765.653 39.5 765.505 39.2102C765.36 38.9205 765.153 38.6918 764.883 38.5241C764.616 38.3565 764.301 38.2727 763.937 38.2727C763.536 38.2727 763.19 38.3722 762.897 38.571C762.607 38.767 762.384 39.0227 762.228 39.3381C762.072 39.6534 761.994 39.9915 761.994 40.3523V40.9318C761.994 41.4261 762.079 41.8452 762.25 42.1889C762.423 42.5298 762.663 42.7898 762.97 42.9688C763.277 43.1449 763.633 43.233 764.039 43.233C764.303 43.233 764.542 43.196 764.755 43.1222C764.971 43.0455 765.157 42.9318 765.313 42.7812C765.47 42.6278 765.59 42.4375 765.676 42.2102L766.647 42.483C766.545 42.8125 766.373 43.1023 766.132 43.3523C765.89 43.5994 765.592 43.7926 765.237 43.9318C764.882 44.0682 764.482 44.1364 764.039 44.1364ZM774.705 35.2727V44H773.649V36.3807H773.598L771.467 37.7955V36.7216L773.649 35.2727H774.705ZM777.215 44V43.233L780.096 40.0795C780.434 39.7102 780.713 39.3892 780.931 39.1165C781.15 38.8409 781.312 38.5824 781.417 38.3409C781.525 38.0966 781.579 37.8409 781.579 37.5739C781.579 37.267 781.505 37.0014 781.357 36.777C781.213 36.5526 781.014 36.3793 780.761 36.2571C780.508 36.1349 780.224 36.0739 779.909 36.0739C779.573 36.0739 779.281 36.1435 779.031 36.2827C778.784 36.419 778.592 36.6108 778.455 36.858C778.322 37.1051 778.255 37.3949 778.255 37.7273H777.25C777.25 37.2159 777.367 36.767 777.603 36.3807C777.839 35.9943 778.16 35.6932 778.566 35.4773C778.975 35.2614 779.434 35.1534 779.943 35.1534C780.454 35.1534 780.907 35.2614 781.302 35.4773C781.697 35.6932 782.007 35.9844 782.231 36.3509C782.455 36.7173 782.568 37.125 782.568 37.5739C782.568 37.8949 782.509 38.2088 782.393 38.5156C782.279 38.8196 782.08 39.1591 781.796 39.5341C781.515 39.9062 781.125 40.3608 780.625 40.8977L778.664 42.9943V43.0625H782.721V44H777.215ZM788.078 42.6364L790.362 37.4545H791.316L788.487 44H787.669L784.89 37.4545H785.828L788.078 42.6364ZM785.504 37.4545V44H784.498V37.4545H785.504ZM790.652 44V37.4545H791.657V44H790.652ZM796.242 44.1364C795.612 44.1364 795.068 43.9972 794.61 43.7188C794.156 43.4375 793.805 43.0455 793.558 42.5426C793.313 42.0369 793.191 41.4489 793.191 40.7784C793.191 40.108 793.313 39.517 793.558 39.0057C793.805 38.4915 794.149 38.0909 794.589 37.804C795.032 37.5142 795.549 37.3693 796.14 37.3693C796.481 37.3693 796.818 37.4261 797.15 37.5398C797.482 37.6534 797.785 37.8381 798.058 38.0938C798.33 38.3466 798.548 38.6818 798.71 39.0994C798.872 39.517 798.953 40.0312 798.953 40.642V41.0682H793.907V40.1989H797.93C797.93 39.8295 797.856 39.5 797.708 39.2102C797.563 38.9205 797.356 38.6918 797.086 38.5241C796.819 38.3565 796.504 38.2727 796.14 38.2727C795.74 38.2727 795.393 38.3722 795.1 38.571C794.811 38.767 794.588 39.0227 794.431 39.3381C794.275 39.6534 794.197 39.9915 794.197 40.3523V40.9318C794.197 41.4261 794.282 41.8452 794.453 42.1889C794.626 42.5298 794.866 42.7898 795.173 42.9688C795.48 43.1449 795.836 43.233 796.242 43.233C796.507 43.233 796.745 43.196 796.958 43.1222C797.174 43.0455 797.36 42.9318 797.517 42.7812C797.673 42.6278 797.794 42.4375 797.879 42.2102L798.85 42.483C798.748 42.8125 798.576 43.1023 798.335 43.3523C798.093 43.5994 797.795 43.7926 797.44 43.9318C797.085 44.0682 796.686 44.1364 796.242 44.1364ZM803.142 44.1364C802.528 44.1364 802 43.9915 801.556 43.7017C801.113 43.4119 800.772 43.0128 800.534 42.5043C800.295 41.9957 800.176 41.4148 800.176 40.7614C800.176 40.0966 800.298 39.5099 800.542 39.0014C800.789 38.4901 801.133 38.0909 801.573 37.804C802.017 37.5142 802.534 37.3693 803.125 37.3693C803.585 37.3693 804 37.4545 804.369 37.625C804.738 37.7955 805.041 38.0341 805.277 38.3409C805.512 38.6477 805.659 39.0057 805.715 39.4148H804.71C804.633 39.1165 804.463 38.8523 804.198 38.6222C803.937 38.3892 803.585 38.2727 803.142 38.2727C802.75 38.2727 802.406 38.375 802.11 38.5795C801.818 38.7812 801.589 39.0668 801.424 39.4361C801.262 39.8026 801.181 40.233 801.181 40.7273C801.181 41.233 801.261 41.6733 801.42 42.0483C801.582 42.4233 801.809 42.7145 802.102 42.9219C802.397 43.1293 802.744 43.233 803.142 43.233C803.403 43.233 803.64 43.1875 803.853 43.0966C804.066 43.0057 804.247 42.875 804.394 42.7045C804.542 42.5341 804.647 42.3295 804.71 42.0909H805.715C805.659 42.4773 805.518 42.8253 805.294 43.1349C805.072 43.4418 804.778 43.6861 804.411 43.8679C804.048 44.0469 803.625 44.1364 803.142 44.1364ZM811.123 44V38.375H809.384C808.992 38.375 808.684 38.4659 808.46 38.6477C808.235 38.8295 808.123 39.0795 808.123 39.3977C808.123 39.7102 808.224 39.956 808.426 40.1349C808.63 40.3139 808.91 40.4034 809.265 40.4034H811.379V41.3409H809.265C808.822 41.3409 808.44 41.2628 808.119 41.1065C807.798 40.9503 807.551 40.7273 807.377 40.4375C807.204 40.1449 807.117 39.7983 807.117 39.3977C807.117 38.9943 807.208 38.6477 807.39 38.358C807.572 38.0682 807.832 37.8452 808.17 37.6889C808.511 37.5327 808.916 37.4545 809.384 37.4545H812.078V44H811.123ZM806.759 44L808.617 40.7443H809.708L807.85 44H806.759ZM819.072 37.4545V43.0625H819.992V46.1136H818.986V44H813.924V37.4545H814.93V43.0625H818.066V37.4545H819.072ZM824.215 44.1364C823.584 44.1364 823.04 43.9972 822.583 43.7188C822.128 43.4375 821.778 43.0455 821.53 42.5426C821.286 42.0369 821.164 41.4489 821.164 40.7784C821.164 40.108 821.286 39.517 821.53 39.0057C821.778 38.4915 822.121 38.0909 822.562 37.804C823.005 37.5142 823.522 37.3693 824.113 37.3693C824.454 37.3693 824.79 37.4261 825.123 37.5398C825.455 37.6534 825.758 37.8381 826.03 38.0938C826.303 38.3466 826.52 38.6818 826.682 39.0994C826.844 39.517 826.925 40.0312 826.925 40.642V41.0682H821.88V40.1989H825.903C825.903 39.8295 825.829 39.5 825.681 39.2102C825.536 38.9205 825.329 38.6918 825.059 38.5241C824.792 38.3565 824.476 38.2727 824.113 38.2727C823.712 38.2727 823.366 38.3722 823.073 38.571C822.783 38.767 822.56 39.0227 822.404 39.3381C822.248 39.6534 822.17 39.9915 822.17 40.3523V40.9318C822.17 41.4261 822.255 41.8452 822.425 42.1889C822.599 42.5298 822.839 42.7898 823.145 42.9688C823.452 43.1449 823.809 43.233 824.215 43.233C824.479 43.233 824.718 43.196 824.931 43.1222C825.147 43.0455 825.333 42.9318 825.489 42.7812C825.645 42.6278 825.766 42.4375 825.851 42.2102L826.823 42.483C826.721 42.8125 826.549 43.1023 826.307 43.3523C826.066 43.5994 825.768 43.7926 825.413 43.9318C825.057 44.0682 824.658 44.1364 824.215 44.1364ZM828.455 44V37.4545H831.131C831.836 37.4545 832.395 37.6136 832.81 37.9318C833.225 38.25 833.432 38.6705 833.432 39.1932C833.432 39.5909 833.314 39.8991 833.079 40.1179C832.843 40.3338 832.54 40.4801 832.171 40.5568C832.413 40.5909 832.647 40.6761 832.874 40.8125C833.104 40.9489 833.295 41.1364 833.445 41.375C833.596 41.6108 833.671 41.9006 833.671 42.2443C833.671 42.5795 833.586 42.8793 833.415 43.1435C833.245 43.4077 833.001 43.6165 832.682 43.7699C832.364 43.9233 831.984 44 831.54 44H828.455ZM829.41 43.0795H831.54C831.887 43.0795 832.158 42.9972 832.354 42.8324C832.55 42.6676 832.648 42.4432 832.648 42.1591C832.648 41.821 832.55 41.5554 832.354 41.3622C832.158 41.1662 831.887 41.0682 831.54 41.0682H829.41V43.0795ZM829.41 40.1989H831.131C831.401 40.1989 831.633 40.1619 831.826 40.0881C832.019 40.0114 832.167 39.9034 832.269 39.7642C832.374 39.6222 832.427 39.4545 832.427 39.2614C832.427 38.9858 832.312 38.7699 832.082 38.6136C831.851 38.4545 831.535 38.375 831.131 38.375H829.41V40.1989Z" fill="#8C98A9"/>
<path d="M255.399 80.0302C255.399 77.1628 257.723 74.8384 260.591 74.8384C263.458 74.8384 265.783 77.1628 265.783 80.0302V173.808C265.783 176.675 263.458 179 260.591 179C257.723 179 255.399 176.675 255.399 173.808V80.0302Z" fill="#8AA0B3"/>
<path d="M305.301 77.1918C305.301 74.3245 307.625 72 310.493 72C313.36 72 315.684 74.3245 315.684 77.1918V173.808C315.684 176.675 313.36 179 310.493 179C307.625 179 305.301 176.675 305.301 173.808V77.1918Z" fill="#8AA0B3"/>
<path d="M355.203 108.663C355.203 105.796 357.528 103.472 360.395 103.472C363.262 103.472 365.587 105.796 365.587 108.663V173.808C365.587 176.675 363.262 179 360.395 179C357.528 179 355.203 176.675 355.203 173.808V108.663Z" fill="#8AA0B3"/>
<path d="M405.105 92.0644C405.105 89.197 407.429 86.8726 410.297 86.8726C413.164 86.8726 415.489 89.197 415.489 92.0644V173.808C415.489 176.675 413.164 179 410.297 179C407.429 179 405.105 176.675 405.105 173.808V92.0644Z" fill="#8AA0B3"/>
<path d="M455.006 86.9164C455.006 84.0491 457.331 81.7246 460.198 81.7246C463.066 81.7246 465.39 84.0491 465.39 86.9164V173.808C465.39 176.676 463.066 179 460.198 179C457.331 179 455.006 176.676 455.006 173.808V86.9164Z" fill="#8AA0B3"/>
<path d="M504.909 102.706C504.909 99.8386 507.233 97.5142 510.101 97.5142C512.968 97.5142 515.292 99.8386 515.292 102.706V173.808C515.292 176.675 512.968 179 510.101 179C507.233 179 504.909 176.675 504.909 173.808V102.706Z" fill="#8AA0B3"/>
<path d="M554.811 88.0927C554.811 85.2253 557.135 82.9009 560.002 82.9009C562.87 82.9009 565.194 85.2253 565.194 88.0927V173.808C565.194 176.676 562.87 179 560.002 179C557.135 179 554.811 176.676 554.811 173.808V88.0927Z" fill="#8AA0B3"/>
<path d="M604.704 134.75C604.704 131.883 607.028 129.558 609.895 129.558C612.763 129.558 615.087 131.883 615.087 134.75V173.808C615.087 176.676 612.763 179 609.895 179C607.028 179 604.704 176.676 604.704 173.808V134.75Z" fill="#8AA0B3"/>
<path d="M654.606 138.517C654.606 135.649 656.93 133.325 659.798 133.325C662.665 133.325 664.99 135.649 664.99 138.517V173.808C664.99 176.675 662.665 179 659.798 179C656.93 179 654.606 176.675 654.606 173.808V138.517Z" fill="#8AA0B3"/>
<path d="M704.508 89.2795C704.508 86.4121 706.832 84.0876 709.7 84.0876C712.567 84.0876 714.892 86.4121 714.892 89.2795V173.808C714.892 176.675 712.567 179 709.7 179C706.832 179 704.508 176.675 704.508 173.808V89.2795Z" fill="#8AA0B3"/>
<path d="M754.41 114.654C754.41 111.786 756.735 109.462 759.602 109.462C762.469 109.462 764.794 111.786 764.794 114.654V173.808C764.794 176.675 762.469 179 759.602 179C756.735 179 754.41 176.675 754.41 173.808V114.654Z" fill="#8AA0B3"/>
<path d="M804.312 120.967C804.312 118.1 806.636 115.776 809.504 115.776C812.371 115.776 814.696 118.1 814.696 120.967V173.808C814.696 176.675 812.371 179 809.504 179C806.636 179 804.312 176.675 804.312 173.808V120.967Z" fill="#8AA0B3"/>
<path d="M268.234 145.046C268.234 142.178 270.559 139.854 273.426 139.854C276.294 139.854 278.618 142.178 278.618 145.046V173.808C278.618 176.675 276.294 178.999 273.426 178.999C270.559 178.999 268.234 176.675 268.234 173.808V145.046Z" fill="#80D1BE"/>
<path d="M318.137 88.1137C318.137 85.2463 320.461 82.9219 323.329 82.9219C326.196 82.9219 328.52 85.2463 328.52 88.1137V173.808C328.52 176.675 326.196 178.999 323.329 178.999C320.461 178.999 318.137 176.675 318.137 173.808V88.1137Z" fill="#80D1BE"/>
<path d="M368.039 107.196C368.039 104.328 370.363 102.004 373.23 102.004C376.098 102.004 378.422 104.328 378.422 107.196V173.808C378.422 176.675 376.098 179 373.23 179C370.363 179 368.039 176.675 368.039 173.808V107.196Z" fill="#80D1BE"/>
<path d="M417.94 119.37C417.94 116.503 420.265 114.178 423.132 114.178C426 114.178 428.324 116.503 428.324 119.37V173.808C428.324 176.675 426 179 423.132 179C420.265 179 417.94 176.675 417.94 173.808V119.37Z" fill="#80D1BE"/>
<path d="M467.842 115.053C467.842 112.185 470.167 109.861 473.034 109.861C475.901 109.861 478.226 112.185 478.226 115.053V173.808C478.226 176.675 475.901 179 473.034 179C470.167 179 467.842 176.675 467.842 173.808V115.053Z" fill="#80D1BE"/>
<path d="M517.744 85.4482C517.744 82.5808 520.069 80.2563 522.936 80.2563C525.803 80.2563 528.128 82.5808 528.128 85.4482V173.808C528.128 176.675 525.803 179 522.936 179C520.069 179 517.744 176.675 517.744 173.808V85.4482Z" fill="#80D1BE"/>
<path d="M567.646 145.499C567.646 142.632 569.97 140.308 572.838 140.308C575.705 140.308 578.03 142.632 578.03 145.499V173.808C578.03 176.675 575.705 179 572.838 179C569.97 179 567.646 176.675 567.646 173.808V145.499Z" fill="#80D1BE"/>
<path d="M617.539 116.078C617.539 113.211 619.864 110.886 622.731 110.886C625.598 110.886 627.923 113.211 627.923 116.078V173.808C627.923 176.675 625.598 179 622.731 179C619.864 179 617.539 176.675 617.539 173.808V116.078Z" fill="#80D1BE"/>
<path d="M667.441 111.534C667.441 108.667 669.766 106.342 672.633 106.342C675.501 106.342 677.825 108.667 677.825 111.534V173.808C677.825 176.675 675.501 178.999 672.633 178.999C669.766 178.999 667.441 176.675 667.441 173.808V111.534Z" fill="#80D1BE"/>
<path d="M717.343 151.112C717.343 148.244 719.668 145.92 722.535 145.92C725.402 145.92 727.727 148.244 727.727 151.112V173.808C727.727 176.675 725.402 179 722.535 179C719.668 179 717.343 176.675 717.343 173.808V151.112Z" fill="#80D1BE"/>
<path d="M767.246 160.199C767.246 157.332 769.57 155.007 772.437 155.007C775.305 155.007 777.629 157.332 777.629 160.199V173.808C777.629 176.675 775.305 179 772.437 179C769.57 179 767.246 176.675 767.246 173.808V160.199Z" fill="#80D1BE"/>
<path d="M817.148 103.138C817.148 100.27 819.472 97.9458 822.34 97.9458C825.207 97.9458 827.532 100.27 827.532 103.138V173.808C827.532 176.675 825.207 179 822.34 179C819.472 179 817.148 176.675 817.148 173.808V103.138Z" fill="#80D1BE"/>
<defs>
<filter id="filter0_dd_922_10185" x="2" y="92" width="88" height="88" filterUnits="userSpaceOnUse" color-interpolation-filters="sRGB">
<feFlood flood-opacity="0" result="BackgroundImageFix"/>
<feColorMatrix in="SourceAlpha" type="matrix" values="0 0 0 0 0 0 0 0 0 0 0 0 0 0 0 0 0 0 127 0" result="hardAlpha"/>
<feMorphology radius="2" operator="dilate" in="SourceAlpha" result="effect1_dropShadow_922_10185"/>
<feOffset dy="3"/>
<feGaussianBlur stdDeviation="6"/>
<feColorMatrix type="matrix" values="0 0 0 0 0 0 0 0 0 0.643137 0 0 0 0 0.490196 0 0 0 0.35 0"/>
<feBlend mode="normal" in2="BackgroundImageFix" result="effect1_dropShadow_922_10185"/>
<feColorMatrix in="SourceAlpha" type="matrix" values="0 0 0 0 0 0 0 0 0 0 0 0 0 0 0 0 0 0 127 0" result="hardAlpha"/>
<feOffset dy="1"/>
<feGaussianBlur stdDeviation="2"/>
<feColorMatrix type="matrix" values="0 0 0 0 0 0 0 0 0 0.643137 0 0 0 0 0.490196 0 0 0 0.25 0"/>
<feBlend mode="normal" in2="effect1_dropShadow_922_10185" result="effect2_dropShadow_922_10185"/>
<feBlend mode="normal" in="SourceGraphic" in2="effect2_dropShadow_922_10185" result="shape"/>
</filter>
</defs>
</svg>
