<svg width="226" height="179" viewBox="0 0 226 179" fill="none" xmlns="http://www.w3.org/2000/svg">
<rect width="225.233" height="178" rx="8" fill="white"/>
<path d="M33.388 40.612H36.268V44.464H33.388V49H29.212V44.464H16.828V40.612L25.504 23.8H30.004L21.328 40.612H29.212V34.06H33.388V40.612ZM54.0188 27.328L48.9068 34.096C50.7788 34.528 52.2668 35.392 53.3708 36.688C54.4988 37.96 55.0628 39.52 55.0628 41.368C55.0628 43.888 54.2108 45.868 52.5068 47.308C50.8268 48.748 48.7388 49.468 46.2428 49.468C44.2748 49.468 42.5348 49.024 41.0228 48.136C39.5108 47.224 38.4308 45.928 37.7828 44.248L41.3108 42.196C42.0548 44.356 43.6988 45.436 46.2428 45.436C47.6828 45.436 48.8228 45.076 49.6628 44.356C50.5028 43.612 50.9228 42.616 50.9228 41.368C50.9228 40.12 50.5028 39.136 49.6628 38.416C48.8228 37.696 47.6828 37.336 46.2428 37.336H45.3068L43.6508 34.852L49.0868 27.688H38.5388V23.8H54.0188V27.328ZM74.4153 40.612H77.2953V44.464H74.4153V49H70.2393V44.464H57.8553V40.612L66.5313 23.8H71.0313L62.3553 40.612H70.2393V34.06H74.4153V40.612ZM93.6422 33.304H96.8102C99.2102 33.304 101.238 34.024 102.894 35.464C104.55 36.88 105.378 38.848 105.378 41.368C105.378 43.888 104.526 45.868 102.822 47.308C101.142 48.748 99.0542 49.468 96.5582 49.468C94.5182 49.468 92.7422 49 91.2302 48.064C89.7182 47.128 88.6382 45.796 87.9902 44.068L91.5542 42.016C92.2502 44.296 93.9182 45.436 96.5582 45.436C97.9742 45.436 99.1022 45.076 99.9422 44.356C100.806 43.612 101.238 42.616 101.238 41.368C101.238 40.144 100.818 39.172 99.9782 38.452C99.1382 37.708 98.0222 37.336 96.6302 37.336H89.2862L90.2582 23.8H104.298V27.688H94.0742L93.6422 33.304ZM123.915 40.612H126.795V44.464H123.915V49H119.739V44.464H107.355V40.612L116.031 23.8H120.531L111.855 40.612H119.739V34.06H123.915V40.612ZM134.142 33.304H137.31C139.71 33.304 141.738 34.024 143.394 35.464C145.05 36.88 145.878 38.848 145.878 41.368C145.878 43.888 145.026 45.868 143.322 47.308C141.642 48.748 139.554 49.468 137.058 49.468C135.018 49.468 133.242 49 131.73 48.064C130.218 47.128 129.138 45.796 128.49 44.068L132.054 42.016C132.75 44.296 134.418 45.436 137.058 45.436C138.474 45.436 139.602 45.076 140.442 44.356C141.306 43.612 141.738 42.616 141.738 41.368C141.738 40.144 141.318 39.172 140.478 38.452C139.638 37.708 138.522 37.336 137.13 37.336H129.786L130.758 23.8H144.798V27.688H134.574L134.142 33.304ZM169.167 49H163.731V34.888H156.747V30.352H176.151V34.888H169.167V49ZM156.747 23.296H176.151V27.832H156.747V23.296Z" fill="#1A3154"/>
<path d="M20.8182 80.1761C20 80.1761 19.286 79.9886 18.6761 79.6136C18.0663 79.2386 17.5928 78.714 17.2557 78.0398C16.9186 77.3655 16.75 76.5777 16.75 75.6761C16.75 74.7708 16.9186 73.9792 17.2557 73.3011C17.5928 72.6231 18.0663 72.0966 18.6761 71.7216C19.286 71.3466 20 71.1591 20.8182 71.1591C21.6364 71.1591 22.3504 71.3466 22.9602 71.7216C23.5701 72.0966 24.0436 72.6231 24.3807 73.3011C24.7178 73.9792 24.8864 74.7708 24.8864 75.6761C24.8864 76.5777 24.7178 77.3655 24.3807 78.0398C24.0436 78.714 23.5701 79.2386 22.9602 79.6136C22.3504 79.9886 21.6364 80.1761 20.8182 80.1761ZM20.8239 78.75C21.3542 78.75 21.7936 78.6098 22.142 78.3295C22.4905 78.0492 22.7481 77.6761 22.9148 77.2102C23.0852 76.7443 23.1705 76.2311 23.1705 75.6705C23.1705 75.1136 23.0852 74.6023 22.9148 74.1364C22.7481 73.6667 22.4905 73.2898 22.142 73.0057C21.7936 72.7216 21.3542 72.5795 20.8239 72.5795C20.2898 72.5795 19.8466 72.7216 19.4943 73.0057C19.1458 73.2898 18.8864 73.6667 18.7159 74.1364C18.5492 74.6023 18.4659 75.1136 18.4659 75.6705C18.4659 76.2311 18.5492 76.7443 18.7159 77.2102C18.8864 77.6761 19.1458 78.0492 19.4943 78.3295C19.8466 78.6098 20.2898 78.75 20.8239 78.75ZM33.5156 68.0227L34.2202 69.0966C33.9588 69.3352 33.6615 69.5057 33.3281 69.608C32.9986 69.7064 32.6179 69.7689 32.1861 69.7955C31.7543 69.8182 31.2599 69.839 30.7031 69.858C30.0743 69.8769 29.5573 70.0133 29.152 70.267C28.7467 70.517 28.4342 70.8883 28.2145 71.3807C27.9986 71.8693 27.8584 72.483 27.794 73.2216H27.902C28.1861 72.6799 28.58 72.2746 29.0838 72.0057C29.5914 71.7367 30.1615 71.6023 30.794 71.6023C31.4986 71.6023 32.1255 71.7633 32.6747 72.0852C33.224 72.4072 33.6558 72.8788 33.9702 73.5C34.2884 74.1174 34.4474 74.8731 34.4474 75.767C34.4474 76.6723 34.2808 77.4545 33.9474 78.1136C33.6179 78.7727 33.152 79.2822 32.5497 79.642C31.9512 79.9981 31.2448 80.1761 30.4304 80.1761C29.616 80.1761 28.9058 79.9924 28.2997 79.625C27.6974 79.2538 27.2296 78.7045 26.8963 77.9773C26.5668 77.25 26.402 76.3523 26.402 75.2841V74.4205C26.402 72.4242 26.758 70.9223 27.4702 69.9148C28.1823 68.9072 29.2467 68.3902 30.6634 68.3636C31.1217 68.3523 31.5308 68.3504 31.8906 68.358C32.2505 68.3617 32.5649 68.3447 32.8338 68.3068C33.1065 68.2652 33.3338 68.1705 33.5156 68.0227ZM30.4361 78.75C30.9096 78.75 31.3168 78.6307 31.6577 78.392C32.0024 78.1496 32.2675 77.8068 32.4531 77.3636C32.6387 76.9205 32.7315 76.3977 32.7315 75.7955C32.7315 75.2045 32.6387 74.7027 32.4531 74.2898C32.2675 73.8769 32.0024 73.5625 31.6577 73.3466C31.313 73.1269 30.9001 73.017 30.419 73.017C30.063 73.017 29.7448 73.0795 29.4645 73.2045C29.1842 73.3258 28.9437 73.5057 28.7429 73.7443C28.5459 73.983 28.3925 74.2746 28.2827 74.6193C28.1766 74.9602 28.1198 75.3523 28.1122 75.7955C28.1122 76.697 28.3187 77.4148 28.7315 77.9489C29.1482 78.483 29.7164 78.75 30.4361 78.75ZM48.8509 78.5341L48.6918 82.5H47.027V80H45.9418V78.5341H48.8509ZM36.3452 71.2727H38.0099V78.5284H41.027V71.2727H42.6918V78.5284H45.7088V71.2727H47.3736V80H36.3452V71.2727ZM52.3068 77.6193L56.1534 71.2727H57.983V80H56.3182V73.6477L52.4886 80H50.642V71.2727H52.3068V77.6193ZM61.9318 77.6193L65.7784 71.2727H67.608V80H65.9432V73.6477L62.1136 80H60.267V71.2727H61.9318V77.6193ZM65.0511 68.3182H66.4489C66.4489 68.9583 66.2216 69.4792 65.767 69.8807C65.3163 70.2784 64.7064 70.4773 63.9375 70.4773C63.1723 70.4773 62.5644 70.2784 62.1136 69.8807C61.6629 69.4792 61.4375 68.9583 61.4375 68.3182H62.8295C62.8295 68.6023 62.9129 68.8542 63.0795 69.0739C63.2462 69.2898 63.5322 69.3977 63.9375 69.3977C64.3352 69.3977 64.6193 69.2898 64.7898 69.0739C64.964 68.858 65.0511 68.6061 65.0511 68.3182ZM77.8026 80.1761C76.9844 80.1761 76.2704 79.9886 75.6605 79.6136C75.0507 79.2386 74.5772 78.714 74.2401 78.0398C73.9029 77.3655 73.7344 76.5777 73.7344 75.6761C73.7344 74.7708 73.9029 73.9792 74.2401 73.3011C74.5772 72.6231 75.0507 72.0966 75.6605 71.7216C76.2704 71.3466 76.9844 71.1591 77.8026 71.1591C78.6207 71.1591 79.3348 71.3466 79.9446 71.7216C80.5545 72.0966 81.0279 72.6231 81.3651 73.3011C81.7022 73.9792 81.8707 74.7708 81.8707 75.6761C81.8707 76.5777 81.7022 77.3655 81.3651 78.0398C81.0279 78.714 80.5545 79.2386 79.9446 79.6136C79.3348 79.9886 78.6207 80.1761 77.8026 80.1761ZM77.8082 78.75C78.3385 78.75 78.7779 78.6098 79.1264 78.3295C79.4749 78.0492 79.7325 77.6761 79.8991 77.2102C80.0696 76.7443 80.1548 76.2311 80.1548 75.6705C80.1548 75.1136 80.0696 74.6023 79.8991 74.1364C79.7325 73.6667 79.4749 73.2898 79.1264 73.0057C78.7779 72.7216 78.3385 72.5795 77.8082 72.5795C77.2741 72.5795 76.831 72.7216 76.4787 73.0057C76.1302 73.2898 75.8707 73.6667 75.7003 74.1364C75.5336 74.6023 75.4503 75.1136 75.4503 75.6705C75.4503 76.2311 75.5336 76.7443 75.7003 77.2102C75.8707 77.6761 76.1302 78.0492 76.4787 78.3295C76.831 78.6098 77.2741 78.75 77.8082 78.75ZM90.5 68.0227L91.2045 69.0966C90.9432 69.3352 90.6458 69.5057 90.3125 69.608C89.983 69.7064 89.6023 69.7689 89.1705 69.7955C88.7386 69.8182 88.2443 69.839 87.6875 69.858C87.0587 69.8769 86.5417 70.0133 86.1364 70.267C85.7311 70.517 85.4186 70.8883 85.1989 71.3807C84.983 71.8693 84.8428 72.483 84.7784 73.2216H84.8864C85.1705 72.6799 85.5644 72.2746 86.0682 72.0057C86.5758 71.7367 87.1458 71.6023 87.7784 71.6023C88.483 71.6023 89.1098 71.7633 89.6591 72.0852C90.2083 72.4072 90.6402 72.8788 90.9545 73.5C91.2727 74.1174 91.4318 74.8731 91.4318 75.767C91.4318 76.6723 91.2652 77.4545 90.9318 78.1136C90.6023 78.7727 90.1364 79.2822 89.5341 79.642C88.9356 79.9981 88.2292 80.1761 87.4148 80.1761C86.6004 80.1761 85.8902 79.9924 85.2841 79.625C84.6818 79.2538 84.214 78.7045 83.8807 77.9773C83.5511 77.25 83.3864 76.3523 83.3864 75.2841V74.4205C83.3864 72.4242 83.7424 70.9223 84.4545 69.9148C85.1667 68.9072 86.2311 68.3902 87.6477 68.3636C88.1061 68.3523 88.5152 68.3504 88.875 68.358C89.2348 68.3617 89.5492 68.3447 89.8182 68.3068C90.0909 68.2652 90.3182 68.1705 90.5 68.0227ZM87.4205 78.75C87.8939 78.75 88.3011 78.6307 88.642 78.392C88.9867 78.1496 89.2519 77.8068 89.4375 77.3636C89.6231 76.9205 89.7159 76.3977 89.7159 75.7955C89.7159 75.2045 89.6231 74.7027 89.4375 74.2898C89.2519 73.8769 88.9867 73.5625 88.642 73.3466C88.2973 73.1269 87.8845 73.017 87.4034 73.017C87.0473 73.017 86.7292 73.0795 86.4489 73.2045C86.1686 73.3258 85.928 73.5057 85.7273 73.7443C85.5303 73.983 85.3769 74.2746 85.267 74.6193C85.161 74.9602 85.1042 75.3523 85.0966 75.7955C85.0966 76.697 85.303 77.4148 85.7159 77.9489C86.1326 78.483 86.7008 78.75 87.4205 78.75ZM97.0057 80.1761C96.1875 80.1761 95.4735 79.9886 94.8636 79.6136C94.2538 79.2386 93.7803 78.714 93.4432 78.0398C93.1061 77.3655 92.9375 76.5777 92.9375 75.6761C92.9375 74.7708 93.1061 73.9792 93.4432 73.3011C93.7803 72.6231 94.2538 72.0966 94.8636 71.7216C95.4735 71.3466 96.1875 71.1591 97.0057 71.1591C97.8239 71.1591 98.5379 71.3466 99.1477 71.7216C99.7576 72.0966 100.231 72.6231 100.568 73.3011C100.905 73.9792 101.074 74.7708 101.074 75.6761C101.074 76.5777 100.905 77.3655 100.568 78.0398C100.231 78.714 99.7576 79.2386 99.1477 79.6136C98.5379 79.9886 97.8239 80.1761 97.0057 80.1761ZM97.0114 78.75C97.5417 78.75 97.9811 78.6098 98.3295 78.3295C98.678 78.0492 98.9356 77.6761 99.1023 77.2102C99.2727 76.7443 99.358 76.2311 99.358 75.6705C99.358 75.1136 99.2727 74.6023 99.1023 74.1364C98.9356 73.6667 98.678 73.2898 98.3295 73.0057C97.9811 72.7216 97.5417 72.5795 97.0114 72.5795C96.4773 72.5795 96.0341 72.7216 95.6818 73.0057C95.3333 73.2898 95.0739 73.6667 94.9034 74.1364C94.7367 74.6023 94.6534 75.1136 94.6534 75.6705C94.6534 76.2311 94.7367 76.7443 94.9034 77.2102C95.0739 77.6761 95.3333 78.0492 95.6818 78.3295C96.0341 78.6098 96.4773 78.75 97.0114 78.75ZM102.97 83.2727V71.2727H104.629V72.6875H104.771C104.87 72.5057 105.012 72.2955 105.197 72.0568C105.383 71.8182 105.641 71.6098 105.97 71.4318C106.3 71.25 106.735 71.1591 107.277 71.1591C107.982 71.1591 108.61 71.3371 109.163 71.6932C109.716 72.0492 110.15 72.5625 110.464 73.233C110.783 73.9034 110.942 74.7102 110.942 75.6534C110.942 76.5966 110.785 77.4053 110.47 78.0795C110.156 78.75 109.724 79.267 109.175 79.6307C108.625 79.9905 107.999 80.1705 107.294 80.1705C106.764 80.1705 106.33 80.0814 105.993 79.9034C105.66 79.7254 105.398 79.517 105.209 79.2784C105.019 79.0398 104.874 78.8277 104.771 78.642H104.669V83.2727H102.97ZM104.635 75.6364C104.635 76.25 104.724 76.7879 104.902 77.25C105.08 77.7121 105.338 78.0739 105.675 78.3352C106.012 78.5928 106.425 78.7216 106.913 78.7216C107.421 78.7216 107.845 78.5871 108.186 78.3182C108.527 78.0455 108.785 77.6761 108.959 77.2102C109.137 76.7443 109.226 76.2197 109.226 75.6364C109.226 75.0606 109.139 74.5436 108.964 74.0852C108.794 73.6269 108.536 73.2652 108.192 73C107.851 72.7348 107.425 72.6023 106.913 72.6023C106.421 72.6023 106.004 72.7292 105.663 72.983C105.326 73.2367 105.071 73.5909 104.896 74.0455C104.722 74.5 104.635 75.0303 104.635 75.6364ZM116.521 80.1761C115.703 80.1761 114.989 79.9886 114.379 79.6136C113.769 79.2386 113.296 78.714 112.959 78.0398C112.622 77.3655 112.453 76.5777 112.453 75.6761C112.453 74.7708 112.622 73.9792 112.959 73.3011C113.296 72.6231 113.769 72.0966 114.379 71.7216C114.989 71.3466 115.703 71.1591 116.521 71.1591C117.339 71.1591 118.054 71.3466 118.663 71.7216C119.273 72.0966 119.747 72.6231 120.084 73.3011C120.421 73.9792 120.589 74.7708 120.589 75.6761C120.589 76.5777 120.421 77.3655 120.084 78.0398C119.747 78.714 119.273 79.2386 118.663 79.6136C118.054 79.9886 117.339 80.1761 116.521 80.1761ZM116.527 78.75C117.057 78.75 117.497 78.6098 117.845 78.3295C118.194 78.0492 118.451 77.6761 118.618 77.2102C118.788 76.7443 118.874 76.2311 118.874 75.6705C118.874 75.1136 118.788 74.6023 118.618 74.1364C118.451 73.6667 118.194 73.2898 117.845 73.0057C117.497 72.7216 117.057 72.5795 116.527 72.5795C115.993 72.5795 115.55 72.7216 115.197 73.0057C114.849 73.2898 114.589 73.6667 114.419 74.1364C114.252 74.6023 114.169 75.1136 114.169 75.6705C114.169 76.2311 114.252 76.7443 114.419 77.2102C114.589 77.6761 114.849 78.0492 115.197 78.3295C115.55 78.6098 115.993 78.75 116.527 78.75ZM121.435 72.7386V71.2727H128.798V72.7386H125.952V80H124.293V72.7386H121.435ZM134.312 77.6932H136.051C136.074 78.0492 136.235 78.3239 136.534 78.517C136.837 78.7102 137.229 78.8068 137.71 78.8068C138.199 78.8068 138.616 78.7027 138.96 78.4943C139.305 78.2822 139.477 77.9545 139.477 77.5114C139.477 77.2462 139.411 77.0152 139.278 76.8182C139.15 76.6174 138.966 76.4621 138.727 76.3523C138.492 76.2424 138.214 76.1875 137.892 76.1875H136.472V74.8523H137.892C138.373 74.8523 138.733 74.7424 138.972 74.5227C139.21 74.303 139.33 74.0284 139.33 73.6989C139.33 73.3428 139.201 73.0568 138.943 72.8409C138.689 72.6212 138.335 72.5114 137.881 72.5114C137.419 72.5114 137.034 72.6155 136.727 72.8239C136.42 73.0284 136.259 73.2936 136.244 73.6193H134.528C134.54 73.1307 134.688 72.7027 134.972 72.3352C135.259 71.964 135.646 71.6761 136.131 71.4716C136.619 71.2633 137.174 71.1591 137.795 71.1591C138.443 71.1591 139.004 71.2633 139.477 71.4716C139.951 71.6799 140.316 71.9678 140.574 72.3352C140.835 72.7027 140.966 73.125 140.966 73.6023C140.966 74.0833 140.822 74.4773 140.534 74.7841C140.25 75.0871 139.879 75.3049 139.42 75.4375V75.5284C139.758 75.5511 140.057 75.6534 140.318 75.8352C140.58 76.017 140.784 76.2576 140.932 76.5568C141.08 76.8561 141.153 77.1951 141.153 77.5739C141.153 78.108 141.006 78.5701 140.71 78.9602C140.419 79.3504 140.013 79.6515 139.494 79.8636C138.979 80.072 138.39 80.1761 137.727 80.1761C137.083 80.1761 136.506 80.0758 135.994 79.875C135.487 79.6705 135.083 79.3826 134.784 79.0114C134.489 78.6402 134.331 78.2008 134.312 77.6932ZM145.447 80.1932C144.894 80.1932 144.394 80.0909 143.947 79.8864C143.5 79.678 143.146 79.3769 142.885 78.983C142.627 78.589 142.499 78.1061 142.499 77.5341C142.499 77.0417 142.593 76.6364 142.783 76.3182C142.972 76 143.228 75.7481 143.55 75.5625C143.872 75.3769 144.232 75.2367 144.629 75.142C145.027 75.0473 145.432 74.9754 145.845 74.9261C146.368 74.8655 146.792 74.8163 147.118 74.7784C147.444 74.7367 147.68 74.6705 147.828 74.5795C147.976 74.4886 148.05 74.3409 148.05 74.1364V74.0966C148.05 73.6004 147.91 73.2159 147.629 72.9432C147.353 72.6705 146.94 72.5341 146.391 72.5341C145.819 72.5341 145.368 72.661 145.038 72.9148C144.713 73.1648 144.487 73.4432 144.362 73.75L142.766 73.3864C142.955 72.8561 143.232 72.428 143.595 72.1023C143.963 71.7727 144.385 71.5341 144.862 71.3864C145.339 71.2348 145.841 71.1591 146.368 71.1591C146.716 71.1591 147.086 71.2008 147.476 71.2841C147.87 71.3636 148.237 71.5114 148.578 71.7273C148.923 71.9432 149.205 72.2519 149.425 72.6534C149.644 73.0511 149.754 73.5682 149.754 74.2045V80H148.095V78.8068H148.027C147.917 79.0265 147.752 79.2424 147.533 79.4545C147.313 79.6667 147.031 79.8428 146.686 79.983C146.341 80.1231 145.929 80.1932 145.447 80.1932ZM145.817 78.8295C146.286 78.8295 146.688 78.7367 147.021 78.5511C147.358 78.3655 147.614 78.1231 147.788 77.8239C147.966 77.5208 148.055 77.197 148.055 76.8523V75.7273C147.995 75.7879 147.877 75.8447 147.703 75.8977C147.533 75.947 147.338 75.9905 147.118 76.0284C146.898 76.0625 146.684 76.0947 146.476 76.125C146.268 76.1515 146.093 76.1742 145.953 76.1932C145.624 76.2348 145.322 76.3049 145.05 76.4034C144.781 76.5019 144.565 76.6439 144.402 76.8295C144.243 77.0114 144.163 77.2538 144.163 77.5568C144.163 77.9773 144.319 78.2955 144.629 78.5114C144.94 78.7235 145.336 78.8295 145.817 78.8295ZM160.643 68.3636V80H158.882V70.125H158.814L156.03 71.9432V70.2614L158.933 68.3636H160.643ZM163.791 80V78.7273L167.729 74.6477C168.149 74.2045 168.496 73.8163 168.768 73.483C169.045 73.1458 169.251 72.8258 169.388 72.5227C169.524 72.2197 169.592 71.8977 169.592 71.5568C169.592 71.1705 169.501 70.8371 169.32 70.5568C169.138 70.2727 168.89 70.0549 168.575 69.9034C168.261 69.7481 167.907 69.6705 167.513 69.6705C167.096 69.6705 166.732 69.7557 166.422 69.9261C166.111 70.0966 165.873 70.3371 165.706 70.6477C165.539 70.9583 165.456 71.322 165.456 71.7386H163.78C163.78 71.0303 163.943 70.411 164.268 69.8807C164.594 69.3504 165.041 68.9394 165.609 68.6477C166.178 68.3523 166.823 68.2045 167.547 68.2045C168.278 68.2045 168.922 68.3504 169.479 68.642C170.039 68.9299 170.477 69.3239 170.791 69.8239C171.106 70.3201 171.263 70.8807 171.263 71.5057C171.263 71.9375 171.181 72.3598 171.018 72.7727C170.859 73.1856 170.581 73.6458 170.183 74.1534C169.786 74.6572 169.232 75.2689 168.524 75.9886L166.212 78.4091V78.4943H171.45V80H163.791ZM182.759 77.8977L185.577 71.2727H187.043L183.389 80H182.128L178.548 71.2727H179.997L182.759 77.8977ZM179.526 71.2727V80H177.861V71.2727H179.526ZM186.037 80V71.2727H187.69V80H186.037ZM193.716 80.1761C192.856 80.1761 192.116 79.9924 191.494 79.625C190.877 79.2538 190.4 78.733 190.062 78.0625C189.729 77.3883 189.562 76.5985 189.562 75.6932C189.562 74.7992 189.729 74.0114 190.062 73.3295C190.4 72.6477 190.869 72.1155 191.472 71.733C192.078 71.3504 192.786 71.1591 193.597 71.1591C194.089 71.1591 194.566 71.2405 195.028 71.4034C195.491 71.5663 195.905 71.822 196.273 72.1705C196.64 72.5189 196.93 72.9716 197.142 73.5284C197.354 74.0814 197.46 74.7538 197.46 75.5455V76.1477H190.523V74.875H195.795C195.795 74.428 195.705 74.0322 195.523 73.6875C195.341 73.339 195.085 73.0644 194.756 72.8636C194.43 72.6629 194.047 72.5625 193.608 72.5625C193.131 72.5625 192.714 72.6799 192.358 72.9148C192.006 73.1458 191.733 73.4489 191.54 73.8239C191.35 74.1951 191.256 74.5985 191.256 75.0341V76.0284C191.256 76.6117 191.358 77.108 191.562 77.517C191.771 77.9261 192.061 78.2386 192.432 78.4545C192.803 78.6667 193.237 78.7727 193.733 78.7727C194.055 78.7727 194.348 78.7273 194.614 78.6364C194.879 78.5417 195.108 78.4015 195.301 78.2159C195.494 78.0303 195.642 77.8011 195.744 77.5284L197.352 77.8182C197.223 78.2917 196.992 78.7064 196.659 79.0625C196.33 79.4148 195.915 79.6894 195.415 79.8864C194.919 80.0795 194.352 80.1761 193.716 80.1761ZM203.021 80.1761C202.177 80.1761 201.449 79.9848 200.839 79.6023C200.233 79.2159 199.768 78.6837 199.442 78.0057C199.116 77.3277 198.953 76.5511 198.953 75.6761C198.953 74.7898 199.12 74.0076 199.453 73.3295C199.786 72.6477 200.256 72.1155 200.862 71.733C201.468 71.3504 202.182 71.1591 203.004 71.1591C203.667 71.1591 204.258 71.2822 204.777 71.5284C205.296 71.7708 205.714 72.1117 206.033 72.5511C206.355 72.9905 206.546 73.5038 206.607 74.0909H204.953C204.862 73.6818 204.654 73.3295 204.328 73.0341C204.006 72.7386 203.574 72.5909 203.033 72.5909C202.559 72.5909 202.144 72.7159 201.788 72.9659C201.436 73.2121 201.161 73.5644 200.964 74.0227C200.768 74.4773 200.669 75.0152 200.669 75.6364C200.669 76.2727 200.766 76.822 200.959 77.2841C201.152 77.7462 201.425 78.1042 201.777 78.358C202.133 78.6117 202.552 78.7386 203.033 78.7386C203.355 78.7386 203.646 78.6799 203.908 78.5625C204.173 78.4413 204.394 78.2689 204.572 78.0455C204.754 77.822 204.881 77.553 204.953 77.2386H206.607C206.546 77.803 206.362 78.3068 206.055 78.75C205.749 79.1932 205.338 79.5417 204.822 79.7955C204.311 80.0492 203.711 80.1761 203.021 80.1761Z" fill="#8C98A9"/>
<g filter="url(#filter0_dd_901_11626)">
<rect x="16" y="102" width="60" height="60" rx="6" fill="#00A47D"/>
</g>
<path d="M34 132L36.115 134.115L44.5 125.745V144H47.5V125.745L55.87 134.13L58 132L46 120L34 132Z" fill="white"/>
<path d="M94.0497 126.227V117.38H96.0568V126.227H94.0497ZM90.63 122.807V120.8H99.4766V122.807H90.63ZM111.438 127.179C110.517 127.179 109.699 127.021 108.983 126.706C108.271 126.391 107.709 125.952 107.296 125.389C106.882 124.827 106.663 124.177 106.637 123.44H109.041C109.062 123.793 109.179 124.102 109.392 124.366C109.605 124.626 109.889 124.829 110.242 124.974C110.596 125.119 110.992 125.191 111.431 125.191C111.9 125.191 112.316 125.11 112.678 124.948C113.04 124.782 113.323 124.552 113.528 124.258C113.732 123.964 113.833 123.625 113.828 123.241C113.833 122.845 113.73 122.496 113.521 122.193C113.313 121.891 113.01 121.654 112.614 121.484C112.222 121.313 111.749 121.228 111.195 121.228H110.038V119.4H111.195C111.651 119.4 112.049 119.321 112.39 119.163C112.735 119.006 113.006 118.784 113.202 118.499C113.398 118.209 113.494 117.874 113.49 117.495C113.494 117.124 113.411 116.803 113.24 116.53C113.074 116.253 112.838 116.038 112.531 115.884C112.228 115.731 111.872 115.654 111.463 115.654C111.063 115.654 110.692 115.727 110.351 115.871C110.01 116.016 109.735 116.223 109.526 116.491C109.318 116.756 109.207 117.071 109.194 117.438H106.912C106.929 116.705 107.14 116.061 107.545 115.507C107.954 114.949 108.499 114.514 109.181 114.203C109.863 113.888 110.628 113.73 111.476 113.73C112.35 113.73 113.108 113.894 113.752 114.222C114.399 114.546 114.9 114.983 115.254 115.533C115.607 116.082 115.784 116.69 115.784 117.354C115.789 118.092 115.571 118.71 115.132 119.208C114.698 119.707 114.127 120.033 113.419 120.186V120.288C114.34 120.416 115.045 120.757 115.535 121.311C116.029 121.861 116.274 122.545 116.27 123.363C116.27 124.096 116.061 124.752 115.644 125.332C115.23 125.907 114.659 126.359 113.931 126.687C113.206 127.015 112.375 127.179 111.438 127.179ZM123.303 127.249C122.25 127.249 121.347 126.983 120.593 126.45C119.843 125.913 119.265 125.14 118.86 124.13C118.46 123.116 118.26 121.895 118.26 120.467C118.264 119.04 118.466 117.825 118.867 116.824C119.272 115.818 119.849 115.051 120.599 114.523C121.353 113.994 122.255 113.73 123.303 113.73C124.351 113.73 125.252 113.994 126.007 114.523C126.761 115.051 127.338 115.818 127.739 116.824C128.144 117.83 128.346 119.044 128.346 120.467C128.346 121.899 128.144 123.122 127.739 124.136C127.338 125.146 126.761 125.918 126.007 126.45C125.257 126.983 124.355 127.249 123.303 127.249ZM123.303 125.249C124.121 125.249 124.767 124.846 125.24 124.04C125.717 123.231 125.956 122.04 125.956 120.467C125.956 119.428 125.847 118.554 125.63 117.847C125.412 117.139 125.105 116.607 124.709 116.249C124.313 115.886 123.844 115.705 123.303 115.705C122.489 115.705 121.846 116.11 121.373 116.92C120.9 117.725 120.661 118.908 120.657 120.467C120.652 121.511 120.757 122.389 120.97 123.101C121.187 123.812 121.494 124.349 121.89 124.712C122.287 125.07 122.757 125.249 123.303 125.249ZM139.774 127.249C138.721 127.249 137.818 126.983 137.063 126.45C136.313 125.913 135.736 125.14 135.331 124.13C134.931 123.116 134.73 121.895 134.73 120.467C134.735 119.04 134.937 117.825 135.338 116.824C135.742 115.818 136.32 115.051 137.07 114.523C137.824 113.994 138.725 113.73 139.774 113.73C140.822 113.73 141.723 113.994 142.477 114.523C143.232 115.051 143.809 115.818 144.21 116.824C144.615 117.83 144.817 119.044 144.817 120.467C144.817 121.899 144.615 123.122 144.21 124.136C143.809 125.146 143.232 125.918 142.477 126.45C141.727 126.983 140.826 127.249 139.774 127.249ZM139.774 125.249C140.592 125.249 141.237 124.846 141.71 124.04C142.188 123.231 142.426 122.04 142.426 120.467C142.426 119.428 142.318 118.554 142.1 117.847C141.883 117.139 141.576 116.607 141.18 116.249C140.784 115.886 140.315 115.705 139.774 115.705C138.96 115.705 138.316 116.11 137.843 116.92C137.37 117.725 137.132 118.908 137.127 120.467C137.123 121.511 137.227 122.389 137.441 123.101C137.658 123.812 137.965 124.349 138.361 124.712C138.757 125.07 139.228 125.249 139.774 125.249ZM151.779 127.249C150.727 127.249 149.824 126.983 149.069 126.45C148.319 125.913 147.742 125.14 147.337 124.13C146.936 123.116 146.736 121.895 146.736 120.467C146.74 119.04 146.943 117.825 147.343 116.824C147.748 115.818 148.326 115.051 149.076 114.523C149.83 113.994 150.731 113.73 151.779 113.73C152.828 113.73 153.729 113.994 154.483 114.523C155.238 115.051 155.815 115.818 156.216 116.824C156.62 117.83 156.823 119.044 156.823 120.467C156.823 121.899 156.62 123.122 156.216 124.136C155.815 125.146 155.238 125.918 154.483 126.45C153.733 126.983 152.832 127.249 151.779 127.249ZM151.779 125.249C152.598 125.249 153.243 124.846 153.716 124.04C154.194 123.231 154.432 122.04 154.432 120.467C154.432 119.428 154.324 118.554 154.106 117.847C153.889 117.139 153.582 116.607 153.186 116.249C152.789 115.886 152.321 115.705 151.779 115.705C150.966 115.705 150.322 116.11 149.849 116.92C149.376 117.725 149.137 118.908 149.133 120.467C149.129 121.511 149.233 122.389 149.446 123.101C149.664 123.812 149.971 124.349 150.367 124.712C150.763 125.07 151.234 125.249 151.779 125.249ZM163.785 127.249C162.733 127.249 161.829 126.983 161.075 126.45C160.325 125.913 159.748 125.14 159.343 124.13C158.942 123.116 158.742 121.895 158.742 120.467C158.746 119.04 158.949 117.825 159.349 116.824C159.754 115.818 160.331 115.051 161.081 114.523C161.836 113.994 162.737 113.73 163.785 113.73C164.834 113.73 165.735 113.994 166.489 114.523C167.243 115.051 167.821 115.818 168.221 116.824C168.626 117.83 168.829 119.044 168.829 120.467C168.829 121.899 168.626 123.122 168.221 124.136C167.821 125.146 167.243 125.918 166.489 126.45C165.739 126.983 164.838 127.249 163.785 127.249ZM163.785 125.249C164.604 125.249 165.249 124.846 165.722 124.04C166.199 123.231 166.438 122.04 166.438 120.467C166.438 119.428 166.329 118.554 166.112 117.847C165.895 117.139 165.588 116.607 165.192 116.249C164.795 115.886 164.327 115.705 163.785 115.705C162.971 115.705 162.328 116.11 161.855 116.92C161.382 117.725 161.143 118.908 161.139 120.467C161.135 121.511 161.239 122.389 161.452 123.101C161.67 123.812 161.976 124.349 162.373 124.712C162.769 125.07 163.24 125.249 163.785 125.249ZM181.355 116.907V127H178.997V116.907H181.355ZM185.421 116.907V118.876H174.983V116.907H185.421ZM185.421 113.909V115.878H174.983V113.909H185.421Z" fill="#1A3154"/>
<path d="M89.9993 152V144.364H93.1662C94.0279 144.364 94.7107 144.548 95.2145 144.915C95.7183 145.28 95.9702 145.776 95.9702 146.402C95.9702 146.849 95.8277 147.204 95.5426 147.466C95.2576 147.728 94.8797 147.903 94.4091 147.993C94.7505 148.033 95.0637 148.135 95.3487 148.301C95.6338 148.464 95.8625 148.682 96.0348 148.957C96.2105 149.232 96.2983 149.561 96.2983 149.942C96.2983 150.346 96.1939 150.704 95.9851 151.016C95.7763 151.324 95.473 151.566 95.0753 151.741C94.6809 151.914 94.2053 152 93.6484 152H89.9993ZM91.3963 150.757H93.6484C94.0163 150.757 94.3047 150.669 94.5135 150.494C94.7223 150.318 94.8267 150.079 94.8267 149.778C94.8267 149.423 94.7223 149.145 94.5135 148.942C94.3047 148.737 94.0163 148.634 93.6484 148.634H91.3963V150.757ZM91.3963 147.545H93.1811C93.4595 147.545 93.6982 147.506 93.897 147.426C94.0992 147.347 94.2533 147.234 94.3594 147.088C94.4688 146.939 94.5234 146.763 94.5234 146.561C94.5234 146.266 94.4025 146.036 94.1605 145.87C93.9186 145.704 93.5871 145.621 93.1662 145.621H91.3963V147.545ZM104.259 145.552C104.001 145.555 103.752 145.616 103.513 145.736C103.275 145.855 103.077 146.014 102.922 146.213C102.769 146.412 102.693 146.637 102.693 146.889H101.291C101.291 146.531 101.371 146.193 101.53 145.875C101.689 145.557 101.906 145.277 102.181 145.035C102.456 144.793 102.773 144.602 103.131 144.463C103.488 144.324 103.865 144.254 104.259 144.254C104.978 144.254 105.586 144.43 106.084 144.781C106.584 145.129 106.964 145.593 107.222 146.173C107.481 146.75 107.61 147.383 107.61 148.072V148.321C107.61 149.01 107.481 149.645 107.222 150.225C106.964 150.805 106.584 151.269 106.084 151.617C105.586 151.965 104.978 152.139 104.259 152.139C103.682 152.139 103.17 152.017 102.723 151.771C102.275 151.526 101.924 151.191 101.669 150.767C101.417 150.339 101.291 149.852 101.291 149.305H102.693C102.693 149.577 102.764 149.829 102.907 150.061C103.049 150.293 103.238 150.48 103.474 150.623C103.712 150.762 103.974 150.833 104.259 150.837C104.687 150.833 105.04 150.704 105.318 150.449C105.6 150.194 105.809 149.874 105.944 149.489C106.084 149.102 106.153 148.712 106.153 148.321V148.072C106.153 147.665 106.084 147.269 105.944 146.884C105.809 146.5 105.6 146.183 105.318 145.935C105.04 145.683 104.687 145.555 104.259 145.552ZM106.675 147.59V148.734H103.548V147.59H106.675ZM108.343 145.646V144.364H114.786V145.646H112.296V152H110.844V145.646H108.343ZM119.22 152.154C118.504 152.154 117.879 151.99 117.346 151.662C116.812 151.334 116.398 150.875 116.103 150.285C115.808 149.695 115.66 149.005 115.66 148.217C115.66 147.424 115.808 146.732 116.103 146.138C116.398 145.545 116.812 145.085 117.346 144.756C117.879 144.428 118.504 144.264 119.22 144.264C119.936 144.264 120.56 144.428 121.094 144.756C121.628 145.085 122.042 145.545 122.337 146.138C122.632 146.732 122.779 147.424 122.779 148.217C122.779 149.005 122.632 149.695 122.337 150.285C122.042 150.875 121.628 151.334 121.094 151.662C120.56 151.99 119.936 152.154 119.22 152.154ZM119.225 150.906C119.689 150.906 120.073 150.784 120.378 150.538C120.683 150.293 120.908 149.967 121.054 149.559C121.203 149.151 121.278 148.702 121.278 148.212C121.278 147.724 121.203 147.277 121.054 146.869C120.908 146.458 120.683 146.129 120.378 145.88C120.073 145.631 119.689 145.507 119.225 145.507C118.757 145.507 118.37 145.631 118.061 145.88C117.757 146.129 117.529 146.458 117.38 146.869C117.234 147.277 117.162 147.724 117.162 148.212C117.162 148.702 117.234 149.151 117.38 149.559C117.529 149.967 117.757 150.293 118.061 150.538C118.37 150.784 118.757 150.906 119.225 150.906ZM128.724 150.161L131.19 144.364H132.473L129.276 152H128.172L125.04 144.364H126.308L128.724 150.161ZM125.895 144.364V152H124.439V144.364H125.895ZM131.593 152V144.364H133.04V152H131.593ZM143.011 150.161L145.477 144.364H146.76L143.563 152H142.46L139.327 144.364H140.595L143.011 150.161ZM140.183 144.364V152H138.726V144.364H140.183ZM145.88 152V144.364H147.327V152H145.88ZM152.599 152.154C151.847 152.154 151.199 151.993 150.655 151.672C150.115 151.347 149.697 150.891 149.402 150.305C149.111 149.715 148.965 149.024 148.965 148.232C148.965 147.449 149.111 146.76 149.402 146.163C149.697 145.567 150.108 145.101 150.635 144.766C151.166 144.432 151.785 144.264 152.495 144.264C152.926 144.264 153.343 144.335 153.748 144.478C154.152 144.621 154.515 144.844 154.836 145.149C155.158 145.454 155.411 145.85 155.597 146.337C155.783 146.821 155.875 147.41 155.875 148.102V148.629H149.805V147.516H154.419C154.419 147.125 154.339 146.778 154.18 146.477C154.021 146.172 153.797 145.931 153.509 145.756C153.224 145.58 152.889 145.492 152.505 145.492C152.087 145.492 151.722 145.595 151.411 145.8C151.103 146.003 150.864 146.268 150.695 146.596C150.529 146.921 150.446 147.274 150.446 147.655V148.525C150.446 149.035 150.536 149.469 150.715 149.827C150.897 150.185 151.151 150.459 151.475 150.648C151.8 150.833 152.18 150.926 152.614 150.926C152.896 150.926 153.153 150.886 153.385 150.807C153.617 150.724 153.817 150.601 153.986 150.439C154.155 150.277 154.284 150.076 154.374 149.837L155.781 150.091C155.668 150.505 155.466 150.868 155.174 151.18C154.886 151.488 154.523 151.728 154.086 151.901C153.651 152.07 153.156 152.154 152.599 152.154ZM160.741 152.154C160.002 152.154 159.366 151.987 158.832 151.652C158.302 151.314 157.894 150.848 157.609 150.255C157.324 149.662 157.182 148.982 157.182 148.217C157.182 147.441 157.327 146.757 157.619 146.163C157.911 145.567 158.322 145.101 158.852 144.766C159.382 144.432 160.007 144.264 160.726 144.264C161.306 144.264 161.823 144.372 162.278 144.587C162.732 144.799 163.098 145.098 163.376 145.482C163.658 145.867 163.825 146.316 163.878 146.83H162.432C162.352 146.472 162.17 146.163 161.885 145.905C161.603 145.646 161.225 145.517 160.751 145.517C160.337 145.517 159.974 145.626 159.662 145.845C159.354 146.061 159.114 146.369 158.942 146.77C158.769 147.168 158.683 147.638 158.683 148.182C158.683 148.739 158.768 149.219 158.937 149.624C159.106 150.028 159.344 150.341 159.653 150.563C159.964 150.785 160.33 150.896 160.751 150.896C161.033 150.896 161.288 150.845 161.517 150.742C161.749 150.636 161.943 150.485 162.099 150.29C162.258 150.094 162.369 149.859 162.432 149.584H163.878C163.825 150.078 163.665 150.518 163.396 150.906C163.128 151.294 162.768 151.599 162.317 151.821C161.87 152.043 161.345 152.154 160.741 152.154ZM170.022 152V145.631H168.192C167.758 145.631 167.42 145.732 167.178 145.935C166.936 146.137 166.815 146.402 166.815 146.73C166.815 147.055 166.926 147.317 167.148 147.516C167.374 147.711 167.689 147.809 168.093 147.809H170.455V149.012H168.093C167.53 149.012 167.042 148.919 166.631 148.734C166.224 148.545 165.909 148.278 165.687 147.933C165.468 147.589 165.359 147.181 165.359 146.71C165.359 146.23 165.471 145.815 165.697 145.467C165.925 145.116 166.252 144.844 166.676 144.652C167.104 144.46 167.609 144.364 168.192 144.364H171.419V152H170.022ZM165.011 152L167.163 148.142H168.685L166.532 152H165.011ZM179.627 144.364V150.782H180.746V154.461H179.279V152H173.398V144.364H174.854V150.717H178.175V144.364H179.627ZM185.603 152.154C184.851 152.154 184.203 151.993 183.659 151.672C183.119 151.347 182.701 150.891 182.406 150.305C182.115 149.715 181.969 149.024 181.969 148.232C181.969 147.449 182.115 146.76 182.406 146.163C182.701 145.567 183.112 145.101 183.639 144.766C184.17 144.432 184.789 144.264 185.499 144.264C185.929 144.264 186.347 144.335 186.751 144.478C187.156 144.621 187.519 144.844 187.84 145.149C188.162 145.454 188.415 145.85 188.601 146.337C188.786 146.821 188.879 147.41 188.879 148.102V148.629H182.809V147.516H187.423C187.423 147.125 187.343 146.778 187.184 146.477C187.025 146.172 186.801 145.931 186.513 145.756C186.228 145.58 185.893 145.492 185.509 145.492C185.091 145.492 184.726 145.595 184.415 145.8C184.107 146.003 183.868 146.268 183.699 146.596C183.533 146.921 183.45 147.274 183.45 147.655V148.525C183.45 149.035 183.54 149.469 183.719 149.827C183.901 150.185 184.155 150.459 184.479 150.648C184.804 150.833 185.184 150.926 185.618 150.926C185.9 150.926 186.156 150.886 186.388 150.807C186.621 150.724 186.821 150.601 186.99 150.439C187.159 150.277 187.288 150.076 187.378 149.837L188.785 150.091C188.672 150.505 188.47 150.868 188.178 151.18C187.89 151.488 187.527 151.728 187.089 151.901C186.655 152.07 186.16 152.154 185.603 152.154Z" fill="#8C98A9"/>
<defs>
<filter id="filter0_dd_901_11626" x="2" y="91" width="88" height="88" filterUnits="userSpaceOnUse" color-interpolation-filters="sRGB">
<feFlood flood-opacity="0" result="BackgroundImageFix"/>
<feColorMatrix in="SourceAlpha" type="matrix" values="0 0 0 0 0 0 0 0 0 0 0 0 0 0 0 0 0 0 127 0" result="hardAlpha"/>
<feMorphology radius="2" operator="dilate" in="SourceAlpha" result="effect1_dropShadow_901_11626"/>
<feOffset dy="3"/>
<feGaussianBlur stdDeviation="6"/>
<feColorMatrix type="matrix" values="0 0 0 0 0 0 0 0 0 0.643137 0 0 0 0 0.490196 0 0 0 0.35 0"/>
<feBlend mode="normal" in2="BackgroundImageFix" result="effect1_dropShadow_901_11626"/>
<feColorMatrix in="SourceAlpha" type="matrix" values="0 0 0 0 0 0 0 0 0 0 0 0 0 0 0 0 0 0 127 0" result="hardAlpha"/>
<feOffset dy="1"/>
<feGaussianBlur stdDeviation="2"/>
<feColorMatrix type="matrix" values="0 0 0 0 0 0 0 0 0 0.643137 0 0 0 0 0.490196 0 0 0 0.25 0"/>
<feBlend mode="normal" in2="effect1_dropShadow_901_11626" result="effect2_dropShadow_901_11626"/>
<feBlend mode="normal" in="SourceGraphic" in2="effect2_dropShadow_901_11626" result="shape"/>
</filter>
</defs>
</svg>
