<svg width="1090" height="32" viewBox="0 0 1090 32" fill="none" xmlns="http://www.w3.org/2000/svg">
<path d="M830.722 12.2727V21H829.665V13.2102H825.267V21H824.211V12.2727H830.722ZM835.376 21.1364C834.786 21.1364 834.267 20.9957 833.821 20.7145C833.378 20.4332 833.031 20.0398 832.781 19.5341C832.534 19.0284 832.411 18.4375 832.411 17.7614C832.411 17.0795 832.534 16.4844 832.781 15.9759C833.031 15.4673 833.378 15.0724 833.821 14.7912C834.267 14.5099 834.786 14.3693 835.376 14.3693C835.967 14.3693 836.484 14.5099 836.928 14.7912C837.374 15.0724 837.72 15.4673 837.967 15.9759C838.217 16.4844 838.342 17.0795 838.342 17.7614C838.342 18.4375 838.217 19.0284 837.967 19.5341C837.72 20.0398 837.374 20.4332 836.928 20.7145C836.484 20.9957 835.967 21.1364 835.376 21.1364ZM835.376 20.233C835.825 20.233 836.195 20.1179 836.484 19.8878C836.774 19.6577 836.989 19.3551 837.128 18.9801C837.267 18.6051 837.337 18.1989 837.337 17.7614C837.337 17.3239 837.267 16.9162 837.128 16.5384C836.989 16.1605 836.774 15.8551 836.484 15.6222C836.195 15.3892 835.825 15.2727 835.376 15.2727C834.928 15.2727 834.558 15.3892 834.268 15.6222C833.979 15.8551 833.764 16.1605 833.625 16.5384C833.486 16.9162 833.416 17.3239 833.416 17.7614C833.416 18.1989 833.486 18.6051 833.625 18.9801C833.764 19.3551 833.979 19.6577 834.268 19.8878C834.558 20.1179 834.928 20.233 835.376 20.233ZM839.877 21V14.4545H840.883V17.3011H841.548L843.9 14.4545H845.196L842.554 17.608L845.23 21H843.934L841.787 18.2386H840.883V21H839.877ZM848.249 21.1534C847.834 21.1534 847.458 21.0753 847.12 20.919C846.782 20.7599 846.513 20.5312 846.314 20.233C846.115 19.9318 846.016 19.5682 846.016 19.142C846.016 18.767 846.09 18.4631 846.238 18.2301C846.385 17.9943 846.583 17.8097 846.83 17.6761C847.077 17.5426 847.35 17.4432 847.648 17.3778C847.949 17.3097 848.252 17.2557 848.556 17.2159C848.953 17.1648 849.276 17.1264 849.523 17.1009C849.773 17.0724 849.955 17.0256 850.069 16.9602C850.185 16.8949 850.243 16.7812 850.243 16.6193V16.5852C850.243 16.1648 850.128 15.8381 849.898 15.6051C849.671 15.3722 849.326 15.2557 848.863 15.2557C848.382 15.2557 848.006 15.3608 847.733 15.571C847.461 15.7812 847.269 16.0057 847.158 16.2443L846.203 15.9034C846.374 15.5057 846.601 15.196 846.885 14.9744C847.172 14.75 847.485 14.5937 847.823 14.5057C848.164 14.4148 848.499 14.3693 848.828 14.3693C849.039 14.3693 849.28 14.3949 849.553 14.446C849.828 14.4943 850.094 14.5952 850.35 14.7486C850.608 14.902 850.823 15.1335 850.993 15.4432C851.164 15.7528 851.249 16.1676 851.249 16.6875V21H850.243V20.1136H850.192C850.124 20.2557 850.01 20.4077 849.851 20.5696C849.692 20.7315 849.48 20.8693 849.216 20.983C848.952 21.0966 848.63 21.1534 848.249 21.1534ZM848.402 20.25C848.8 20.25 849.135 20.1719 849.408 20.0156C849.684 19.8594 849.891 19.6577 850.03 19.4105C850.172 19.1634 850.243 18.9034 850.243 18.6307V17.7102C850.201 17.7614 850.107 17.8082 849.962 17.8509C849.82 17.8906 849.655 17.9261 849.468 17.9574C849.283 17.9858 849.103 18.0114 848.926 18.0341C848.753 18.054 848.613 18.071 848.505 18.0852C848.243 18.1193 847.999 18.1747 847.772 18.2514C847.547 18.3253 847.365 18.4375 847.226 18.5881C847.09 18.7358 847.022 18.9375 847.022 19.1932C847.022 19.5426 847.151 19.8068 847.409 19.9858C847.671 20.1619 848.002 20.25 848.402 20.25ZM852.675 19.3295H853.749C853.772 19.625 853.906 19.8494 854.15 20.0028C854.397 20.1562 854.718 20.233 855.113 20.233C855.516 20.233 855.862 20.1506 856.148 19.9858C856.435 19.8182 856.579 19.5483 856.579 19.1761C856.579 18.9574 856.525 18.767 856.417 18.6051C856.309 18.4403 856.157 18.3125 855.961 18.2216C855.765 18.1307 855.533 18.0852 855.266 18.0852H854.141V17.1818H855.266C855.667 17.1818 855.962 17.0909 856.153 16.9091C856.346 16.7273 856.442 16.5 856.442 16.2273C856.442 15.9347 856.339 15.7003 856.131 15.5241C855.924 15.3452 855.63 15.2557 855.249 15.2557C854.866 15.2557 854.546 15.3423 854.29 15.5156C854.035 15.6861 853.9 15.9062 853.886 16.1761H852.829C852.84 15.8239 852.948 15.5128 853.153 15.2429C853.357 14.9702 853.636 14.7571 853.988 14.6037C854.34 14.4474 854.744 14.3693 855.198 14.3693C855.658 14.3693 856.058 14.4503 856.396 14.6122C856.737 14.7713 856.999 14.9886 857.184 15.2642C857.371 15.5369 857.465 15.8466 857.465 16.1932C857.465 16.5625 857.362 16.8608 857.154 17.0881C856.947 17.3153 856.687 17.4773 856.374 17.5739V17.642C856.621 17.6591 856.836 17.7386 857.018 17.8807C857.202 18.0199 857.346 18.2031 857.448 18.4304C857.55 18.6548 857.602 18.9034 857.602 19.1761C857.602 19.5739 857.495 19.9205 857.282 20.2159C857.069 20.5085 856.776 20.7358 856.404 20.8977C856.032 21.0568 855.607 21.1364 855.13 21.1364C854.667 21.1364 854.252 21.0611 853.886 20.9105C853.519 20.7571 853.228 20.5455 853.012 20.2756C852.799 20.0028 852.687 19.6875 852.675 19.3295ZM860.94 21.1534C860.526 21.1534 860.149 21.0753 859.811 20.919C859.473 20.7599 859.205 20.5312 859.006 20.233C858.807 19.9318 858.707 19.5682 858.707 19.142C858.707 18.767 858.781 18.4631 858.929 18.2301C859.077 17.9943 859.274 17.8097 859.521 17.6761C859.768 17.5426 860.041 17.4432 860.339 17.3778C860.641 17.3097 860.943 17.2557 861.247 17.2159C861.645 17.1648 861.967 17.1264 862.214 17.1009C862.464 17.0724 862.646 17.0256 862.76 16.9602C862.876 16.8949 862.935 16.7812 862.935 16.6193V16.5852C862.935 16.1648 862.82 15.8381 862.589 15.6051C862.362 15.3722 862.017 15.2557 861.554 15.2557C861.074 15.2557 860.697 15.3608 860.425 15.571C860.152 15.7812 859.96 16.0057 859.849 16.2443L858.895 15.9034C859.065 15.5057 859.293 15.196 859.577 14.9744C859.864 14.75 860.176 14.5937 860.514 14.5057C860.855 14.4148 861.19 14.3693 861.52 14.3693C861.73 14.3693 861.972 14.3949 862.244 14.446C862.52 14.4943 862.786 14.5952 863.041 14.7486C863.3 14.902 863.514 15.1335 863.685 15.4432C863.855 15.7528 863.94 16.1676 863.94 16.6875V21H862.935V20.1136H862.884C862.815 20.2557 862.702 20.4077 862.543 20.5696C862.384 20.7315 862.172 20.8693 861.908 20.983C861.643 21.0966 861.321 21.1534 860.94 21.1534ZM861.094 20.25C861.491 20.25 861.827 20.1719 862.099 20.0156C862.375 19.8594 862.582 19.6577 862.722 19.4105C862.864 19.1634 862.935 18.9034 862.935 18.6307V17.7102C862.892 17.7614 862.798 17.8082 862.653 17.8509C862.511 17.8906 862.347 17.9261 862.159 17.9574C861.974 17.9858 861.794 18.0114 861.618 18.0341C861.445 18.054 861.304 18.071 861.196 18.0852C860.935 18.1193 860.69 18.1747 860.463 18.2514C860.239 18.3253 860.057 18.4375 859.918 18.5881C859.781 18.7358 859.713 18.9375 859.713 19.1932C859.713 19.5426 859.842 19.8068 860.101 19.9858C860.362 20.1619 860.693 20.25 861.094 20.25ZM870.157 17.267V18.2045H866.543V17.267H870.157ZM866.782 14.4545V21H865.776V14.4545H866.782ZM870.924 14.4545V21H869.918V14.4545H870.924ZM875.419 21.1364C874.828 21.1364 874.31 20.9957 873.864 20.7145C873.421 20.4332 873.074 20.0398 872.824 19.5341C872.577 19.0284 872.453 18.4375 872.453 17.7614C872.453 17.0795 872.577 16.4844 872.824 15.9759C873.074 15.4673 873.421 15.0724 873.864 14.7912C874.31 14.5099 874.828 14.3693 875.419 14.3693C876.01 14.3693 876.527 14.5099 876.971 14.7912C877.417 15.0724 877.763 15.4673 878.01 15.9759C878.26 16.4844 878.385 17.0795 878.385 17.7614C878.385 18.4375 878.26 19.0284 878.01 19.5341C877.763 20.0398 877.417 20.4332 876.971 20.7145C876.527 20.9957 876.01 21.1364 875.419 21.1364ZM875.419 20.233C875.868 20.233 876.238 20.1179 876.527 19.8878C876.817 19.6577 877.032 19.3551 877.171 18.9801C877.31 18.6051 877.38 18.1989 877.38 17.7614C877.38 17.3239 877.31 16.9162 877.171 16.5384C877.032 16.1605 876.817 15.8551 876.527 15.6222C876.238 15.3892 875.868 15.2727 875.419 15.2727C874.971 15.2727 874.601 15.3892 874.311 15.6222C874.022 15.8551 873.807 16.1605 873.668 16.5384C873.529 16.9162 873.459 17.3239 873.459 17.7614C873.459 18.1989 873.529 18.6051 873.668 18.9801C873.807 19.3551 874.022 19.6577 874.311 19.8878C874.601 20.1179 874.971 20.233 875.419 20.233Z" fill="#1A3154"/>
<path d="M894.972 20.1193C894.554 20.1165 894.146 20.044 893.749 19.902C893.351 19.7571 892.993 19.5227 892.675 19.1989C892.357 18.8722 892.104 18.4389 891.916 17.8991C891.729 17.3565 891.636 16.6847 891.639 15.8835C891.639 15.1364 891.719 14.4702 891.878 13.8849C892.037 13.2997 892.266 12.8054 892.564 12.402C892.862 11.9957 893.222 11.6861 893.642 11.473C894.065 11.2599 894.538 11.1534 895.061 11.1534C895.609 11.1534 896.095 11.2614 896.518 11.4773C896.945 11.6932 897.288 11.9886 897.55 12.3636C897.811 12.7358 897.973 13.1562 898.036 13.625H896.48C896.401 13.2898 896.237 13.0227 895.99 12.8239C895.746 12.6222 895.436 12.5213 895.061 12.5213C894.456 12.5213 893.99 12.7841 893.663 13.3097C893.339 13.8352 893.176 14.5568 893.173 15.4744H893.233C893.372 15.2244 893.553 15.0099 893.774 14.831C893.996 14.652 894.246 14.5142 894.524 14.4176C894.805 14.3182 895.102 14.2685 895.415 14.2685C895.926 14.2685 896.385 14.3906 896.791 14.6349C897.2 14.8793 897.524 15.2159 897.763 15.6449C898.001 16.071 898.119 16.5597 898.116 17.1108C898.119 17.6847 897.989 18.2003 897.724 18.6577C897.46 19.1122 897.092 19.4702 896.621 19.7315C896.149 19.9929 895.599 20.1222 894.972 20.1193ZM894.963 18.8409C895.273 18.8409 895.55 18.7656 895.794 18.6151C896.038 18.4645 896.232 18.2614 896.374 18.0057C896.516 17.75 896.585 17.4631 896.582 17.1449C896.585 16.8324 896.517 16.5497 896.378 16.2969C896.241 16.044 896.053 15.8437 895.811 15.696C895.57 15.5483 895.294 15.4744 894.984 15.4744C894.754 15.4744 894.54 15.5185 894.341 15.6065C894.142 15.6946 893.969 15.8168 893.821 15.973C893.673 16.1264 893.557 16.3054 893.472 16.5099C893.389 16.7116 893.347 16.9276 893.344 17.1577C893.347 17.4616 893.418 17.7415 893.557 17.9972C893.696 18.2528 893.888 18.4574 894.132 18.6108C894.376 18.7642 894.653 18.8409 894.963 18.8409Z" fill="#1A3154"/>
<path d="M912 13.5L917 18.5L922 13.5" stroke="#53647F" stroke-width="2" stroke-linecap="round" stroke-linejoin="round"/>
<path d="M960.442 11.2727V20H958.862V12.8111H958.81L956.769 14.1151V12.6662L958.938 11.2727H960.442Z" fill="#1A3154"/>
<path d="M951 1H967V-1H951V1ZM974 8V24H976V8H974ZM967 31H951V33H967V31ZM944 24V8H942V24H944ZM951 31C947.134 31 944 27.866 944 24H942C942 28.9706 946.029 33 951 33V31ZM974 24C974 27.866 970.866 31 967 31V33C971.971 33 976 28.9706 976 24H974ZM967 1C970.866 1 974 4.13401 974 8H976C976 3.02944 971.971 -1 967 -1V1ZM951 -1C946.029 -1 942 3.02944 942 8H944C944 4.13401 947.134 1 951 1V-1Z" fill="#53647F"/>
<path d="M980.93 18.517L984.083 13.4545H985.243V20H984.237V14.9375L981.1 20H979.924V13.4545H980.93V18.517ZM986.675 18.3295H987.749C987.772 18.625 987.906 18.8494 988.15 19.0028C988.397 19.1562 988.718 19.233 989.113 19.233C989.516 19.233 989.862 19.1506 990.148 18.9858C990.435 18.8182 990.579 18.5483 990.579 18.1761C990.579 17.9574 990.525 17.767 990.417 17.6051C990.309 17.4403 990.157 17.3125 989.961 17.2216C989.765 17.1307 989.533 17.0852 989.266 17.0852H988.141V16.1818H989.266C989.667 16.1818 989.962 16.0909 990.153 15.9091C990.346 15.7273 990.442 15.5 990.442 15.2273C990.442 14.9347 990.339 14.7003 990.131 14.5241C989.924 14.3452 989.63 14.2557 989.249 14.2557C988.866 14.2557 988.546 14.3423 988.29 14.5156C988.035 14.6861 987.9 14.9062 987.886 15.1761H986.829C986.84 14.8239 986.948 14.5128 987.153 14.2429C987.357 13.9702 987.636 13.7571 987.988 13.6037C988.34 13.4474 988.744 13.3693 989.198 13.3693C989.658 13.3693 990.058 13.4503 990.396 13.6122C990.737 13.7713 990.999 13.9886 991.184 14.2642C991.371 14.5369 991.465 14.8466 991.465 15.1932C991.465 15.5625 991.362 15.8608 991.154 16.0881C990.947 16.3153 990.687 16.4773 990.374 16.5739V16.642C990.621 16.6591 990.836 16.7386 991.018 16.8807C991.202 17.0199 991.346 17.2031 991.448 17.4304C991.55 17.6548 991.602 17.9034 991.602 18.1761C991.602 18.5739 991.495 18.9205 991.282 19.2159C991.069 19.5085 990.776 19.7358 990.404 19.8977C990.032 20.0568 989.607 20.1364 989.13 20.1364C988.667 20.1364 988.252 20.0611 987.886 19.9105C987.519 19.7571 987.228 19.5455 987.012 19.2756C986.799 19.0028 986.687 18.6875 986.675 18.3295ZM999.56 11.2727V20H997.979V12.8111H997.928L995.886 14.1151V12.6662L998.055 11.2727H999.56Z" fill="#1A3154"/>
<path d="M1040.5 11L1035.5 16L1040.5 21" stroke="#8C98A9" stroke-width="2" stroke-linecap="round" stroke-linejoin="round"/>
<path d="M1071.5 21L1076.5 16L1071.5 11" stroke="#8C98A9" stroke-width="2" stroke-linecap="round" stroke-linejoin="round"/>
<path d="M5.31215 11.9915H7.14666C7.92223 11.9915 8.60997 12.1622 9.20987 12.5036C9.81309 12.8416 10.2854 13.3172 10.6268 13.9304C10.9715 14.5402 11.1438 15.2495 11.1438 16.0582C11.1438 16.8603 10.9715 17.5646 10.6268 18.1712C10.2854 18.7777 9.81309 19.2517 9.20987 19.593C8.60997 19.9311 7.92223 20.1001 7.14666 20.1001H5.31215C4.53658 20.1001 3.84718 19.9328 3.24396 19.598C2.64074 19.2599 2.16679 18.7893 1.82209 18.1861C1.48071 17.5829 1.31001 16.8786 1.31001 16.0732C1.31001 15.2611 1.48236 14.5485 1.82706 13.9354C2.17176 13.3222 2.64406 12.8449 3.24396 12.5036C3.84718 12.1622 4.53658 11.9915 5.31215 11.9915ZM5.31215 13.3189C4.78184 13.3189 4.32943 13.4299 3.9549 13.652C3.58037 13.8707 3.29368 14.1856 3.09482 14.5966C2.89595 15.0076 2.79652 15.4998 2.79652 16.0732C2.79652 16.6333 2.89595 17.1155 3.09482 17.5199C3.29699 17.9209 3.58535 18.2308 3.95987 18.4496C4.3344 18.665 4.78516 18.7727 5.31215 18.7727H7.15163C7.67862 18.7727 8.12772 18.665 8.49893 18.4496C8.87346 18.2308 9.1585 17.9193 9.35405 17.5149C9.55291 17.1072 9.65234 16.6217 9.65234 16.0582C9.65234 15.4915 9.55291 15.0043 9.35405 14.5966C9.1585 14.1856 8.87346 13.8707 8.49893 13.652C8.12772 13.4299 7.67862 13.3189 7.15163 13.3189H5.31215ZM6.98757 10.6392V21.4176H5.48118V10.6392H6.98757ZM14.3915 18.9169L17.7573 13.3636H19.3581V21H17.9015V15.4418L14.5506 21H12.9348V13.3636H14.3915V18.9169ZM20.7551 21L20.7502 19.7124H21.0236C21.2357 19.7124 21.4131 19.6676 21.5556 19.5781C21.7014 19.4853 21.8207 19.3295 21.9135 19.1108C22.0063 18.892 22.0776 18.5904 22.1273 18.206C22.177 17.8182 22.2135 17.331 22.2367 16.7443L22.3709 13.3636H27.7005V21H26.2438V14.6463H23.748L23.6287 17.2415C23.5989 17.8712 23.5343 18.4214 23.4348 18.892C23.3387 19.3627 23.1979 19.7554 23.0123 20.0703C22.8266 20.3819 22.588 20.6155 22.2963 20.7713C22.0047 20.9238 21.65 21 21.2324 21H20.7551ZM30.8015 15.9886H33.0188C33.9535 15.9886 34.6727 16.2206 35.1765 16.6847C35.6803 17.1487 35.9322 17.7469 35.9322 18.4794C35.9322 18.9567 35.8195 19.3859 35.5941 19.767C35.3687 20.1482 35.0389 20.4498 34.6048 20.6719C34.1706 20.8906 33.6419 21 33.0188 21H29.6829V13.3636H31.1396V19.7173H33.0188C33.4464 19.7173 33.7977 19.6063 34.0728 19.3842C34.3479 19.1589 34.4854 18.8722 34.4854 18.5241C34.4854 18.1562 34.3479 17.8563 34.0728 17.6243C33.7977 17.389 33.4464 17.2713 33.0188 17.2713H30.8015V15.9886ZM36.3784 14.6463V13.3636H42.8216V14.6463H40.3308V21H38.8791V14.6463H36.3784ZM44.3938 23.8636V13.3636H45.8455V14.6016H45.9698C46.056 14.4425 46.1803 14.2585 46.3427 14.0497C46.5051 13.8409 46.7305 13.6586 47.0188 13.5028C47.3072 13.3438 47.6883 13.2642 48.1623 13.2642C48.7788 13.2642 49.329 13.42 49.8129 13.7315C50.2968 14.0431 50.6763 14.4922 50.9513 15.0788C51.2298 15.6655 51.369 16.3714 51.369 17.1967C51.369 18.022 51.2314 18.7296 50.9563 19.3196C50.6812 19.9062 50.3034 20.3587 49.8228 20.6768C49.3422 20.9917 48.7937 21.1491 48.1772 21.1491C47.7132 21.1491 47.3337 21.0713 47.0387 20.9155C46.747 20.7597 46.5183 20.5774 46.3526 20.3686C46.1869 20.1598 46.0593 19.9742 45.9698 19.8118H45.8803V23.8636H44.3938ZM45.8505 17.1818C45.8505 17.7187 45.9284 18.1894 46.0842 18.5938C46.2399 18.9981 46.4653 19.3146 46.7603 19.5433C47.0553 19.7687 47.4165 19.8814 47.8441 19.8814C48.2882 19.8814 48.6594 19.7637 48.9577 19.5284C49.256 19.2898 49.4814 18.9666 49.6339 18.5589C49.7897 18.1513 49.8675 17.6922 49.8675 17.1818C49.8675 16.678 49.7913 16.2256 49.6388 15.8246C49.4897 15.4235 49.2643 15.107 48.9627 14.875C48.6644 14.643 48.2915 14.527 47.8441 14.527C47.4132 14.527 47.0487 14.638 46.7504 14.8601C46.4554 15.0821 46.2317 15.392 46.0792 15.7898C45.9267 16.1875 45.8505 16.6515 45.8505 17.1818ZM54.0138 21.0945C53.7421 21.0945 53.5084 20.9983 53.3129 20.8061C53.1173 20.6106 53.0195 20.3752 53.0195 20.1001C53.0195 19.8284 53.1173 19.5964 53.3129 19.4041C53.5084 19.2086 53.7421 19.1108 54.0138 19.1108C54.2856 19.1108 54.5193 19.2086 54.7148 19.4041C54.9104 19.5964 55.0082 19.8284 55.0082 20.1001C55.0082 20.2824 54.9618 20.4498 54.869 20.6023C54.7795 20.7514 54.6602 20.8707 54.511 20.9602C54.3619 21.0497 54.1961 21.0945 54.0138 21.0945ZM54.0138 15.5362C53.7421 15.5362 53.5084 15.4384 53.3129 15.2429C53.1173 15.0473 53.0195 14.8137 53.0195 14.5419C53.0195 14.2701 53.1173 14.0381 53.3129 13.8459C53.5084 13.6503 53.7421 13.5526 54.0138 13.5526C54.2856 13.5526 54.5193 13.6503 54.7148 13.8459C54.9104 14.0381 55.0082 14.2701 55.0082 14.5419C55.0082 14.7242 54.9618 14.8916 54.869 15.044C54.7795 15.1932 54.6602 15.3125 54.511 15.402C54.3619 15.4915 54.1961 15.5362 54.0138 15.5362Z" fill="#1A3154"/>
<path d="M88.5398 15.6364C88.5398 16.5682 88.3693 17.3693 88.0284 18.0398C87.6875 18.7074 87.2202 19.2216 86.6264 19.5824C86.0355 19.9403 85.3636 20.1193 84.6108 20.1193C83.8551 20.1193 83.1804 19.9403 82.5866 19.5824C81.9957 19.2216 81.5298 18.706 81.1889 18.0355C80.848 17.3651 80.6776 16.5653 80.6776 15.6364C80.6776 14.7045 80.848 13.9048 81.1889 13.2372C81.5298 12.5668 81.9957 12.0526 82.5866 11.6946C83.1804 11.3338 83.8551 11.1534 84.6108 11.1534C85.3636 11.1534 86.0355 11.3338 86.6264 11.6946C87.2202 12.0526 87.6875 12.5668 88.0284 13.2372C88.3693 13.9048 88.5398 14.7045 88.5398 15.6364ZM87.2358 15.6364C87.2358 14.9261 87.1207 14.3281 86.8906 13.8423C86.6634 13.3537 86.3509 12.9844 85.9531 12.7344C85.5582 12.4815 85.1108 12.3551 84.6108 12.3551C84.108 12.3551 83.6591 12.4815 83.2642 12.7344C82.8693 12.9844 82.5568 13.3537 82.3267 13.8423C82.0994 14.3281 81.9858 14.9261 81.9858 15.6364C81.9858 16.3466 82.0994 16.946 82.3267 17.4347C82.5568 17.9205 82.8693 18.2898 83.2642 18.5426C83.6591 18.7926 84.108 18.9176 84.6108 18.9176C85.1108 18.9176 85.5582 18.7926 85.9531 18.5426C86.3509 18.2898 86.6634 17.9205 86.8906 17.4347C87.1207 16.946 87.2358 16.3466 87.2358 15.6364ZM90.0792 20V13.4545H95.4187V20H94.1701V14.554H91.3192V20H90.0792ZM97.6932 22.4545C97.5028 22.4545 97.3295 22.4389 97.1733 22.4077C97.017 22.3793 96.9006 22.348 96.8239 22.3139L97.1307 21.2699C97.3636 21.3324 97.571 21.3594 97.7528 21.3509C97.9347 21.3423 98.0952 21.2741 98.2344 21.1463C98.3764 21.0185 98.5014 20.8097 98.6094 20.5199L98.767 20.0852L96.3722 13.4545H97.7358L99.3935 18.5341H99.4616L101.119 13.4545H102.487L99.7898 20.8736C99.6648 21.2145 99.5057 21.5028 99.3125 21.7386C99.1193 21.9773 98.8892 22.1563 98.6222 22.2756C98.3551 22.3949 98.0455 22.4545 97.6932 22.4545ZM108.734 11.017L109.263 11.8224C109.067 12.0014 108.844 12.1293 108.594 12.206C108.347 12.2798 108.061 12.3267 107.737 12.3466C107.413 12.3636 107.043 12.3793 106.625 12.3935C106.153 12.4077 105.766 12.5099 105.462 12.7003C105.158 12.8878 104.923 13.1662 104.759 13.5355C104.597 13.902 104.491 14.3622 104.443 14.9162H104.524C104.737 14.5099 105.033 14.206 105.411 14.0043C105.791 13.8026 106.219 13.7017 106.693 13.7017C107.222 13.7017 107.692 13.8224 108.104 14.0639C108.516 14.3054 108.839 14.6591 109.075 15.125C109.314 15.5881 109.433 16.1548 109.433 16.8253C109.433 17.5043 109.308 18.0909 109.058 18.5852C108.811 19.0795 108.462 19.4616 108.01 19.7315C107.561 19.9986 107.031 20.1321 106.42 20.1321C105.81 20.1321 105.277 19.9943 104.822 19.7188C104.371 19.4403 104.02 19.0284 103.77 18.483C103.523 17.9375 103.399 17.2642 103.399 16.4631V15.8153C103.399 14.3182 103.666 13.1918 104.2 12.4361C104.734 11.6804 105.533 11.2926 106.595 11.2727C106.939 11.2642 107.246 11.2628 107.516 11.2685C107.786 11.2713 108.021 11.2585 108.223 11.2301C108.428 11.1989 108.598 11.1278 108.734 11.017ZM106.425 19.0625C106.78 19.0625 107.085 18.973 107.341 18.794C107.599 18.6122 107.798 18.3551 107.938 18.0227C108.077 17.6903 108.146 17.2983 108.146 16.8466C108.146 16.4034 108.077 16.027 107.938 15.7173C107.798 15.4077 107.599 15.1719 107.341 15.0099C107.082 14.8452 106.773 14.7628 106.412 14.7628C106.145 14.7628 105.906 14.8097 105.696 14.9034C105.486 14.9943 105.305 15.1293 105.155 15.3082C105.007 15.4872 104.892 15.706 104.81 15.9645C104.73 16.2202 104.688 16.5142 104.682 16.8466C104.682 17.5227 104.837 18.0611 105.146 18.4616C105.459 18.8622 105.885 19.0625 106.425 19.0625ZM110.341 20L110.337 18.8963H110.571C110.753 18.8963 110.905 18.858 111.027 18.7812C111.152 18.7017 111.254 18.5682 111.334 18.3807C111.413 18.1932 111.474 17.9347 111.517 17.6051C111.56 17.2727 111.591 16.8551 111.611 16.3523L111.726 13.4545H116.294V20H115.045V14.554H112.906L112.804 16.7784C112.778 17.3182 112.723 17.7898 112.638 18.1932C112.555 18.5966 112.435 18.9332 112.276 19.2031C112.116 19.4702 111.912 19.6705 111.662 19.804C111.412 19.9347 111.108 20 110.75 20H110.341ZM119.242 18.2145L122.127 13.4545H123.499V20H122.25V15.2358L119.378 20H117.993V13.4545H119.242V18.2145ZM125.212 20V13.4545H126.486V16.1989H127.1L129.26 13.4545H130.837L128.301 16.6378L130.867 20H129.286L127.313 17.3835H126.486V20H125.212ZM134.344 20.1321C133.73 20.1321 133.195 19.9915 132.738 19.7102C132.28 19.429 131.925 19.0355 131.672 18.5298C131.419 18.0241 131.293 17.4332 131.293 16.7571C131.293 16.0781 131.419 15.4844 131.672 14.9759C131.925 14.4673 132.28 14.0724 132.738 13.7912C133.195 13.5099 133.73 13.3693 134.344 13.3693C134.958 13.3693 135.493 13.5099 135.951 13.7912C136.408 14.0724 136.763 14.4673 137.016 14.9759C137.269 15.4844 137.395 16.0781 137.395 16.7571C137.395 17.4332 137.269 18.0241 137.016 18.5298C136.763 19.0355 136.408 19.429 135.951 19.7102C135.493 19.9915 134.958 20.1321 134.344 20.1321ZM134.348 19.0625C134.746 19.0625 135.076 18.9574 135.337 18.7472C135.598 18.5369 135.792 18.2571 135.917 17.9077C136.044 17.5582 136.108 17.1733 136.108 16.7528C136.108 16.3352 136.044 15.9517 135.917 15.6023C135.792 15.25 135.598 14.9673 135.337 14.7543C135.076 14.5412 134.746 14.4347 134.348 14.4347C133.948 14.4347 133.615 14.5412 133.351 14.7543C133.09 14.9673 132.895 15.25 132.767 15.6023C132.642 15.9517 132.58 16.3352 132.58 16.7528C132.58 17.1733 132.642 17.5582 132.767 17.9077C132.895 18.2571 133.09 18.5369 133.351 18.7472C133.615 18.9574 133.948 19.0625 134.348 19.0625ZM138.817 20V13.4545H141.532C142.271 13.4545 142.856 13.6122 143.288 13.9276C143.719 14.2401 143.935 14.6648 143.935 15.2017C143.935 15.5852 143.813 15.8892 143.569 16.1136C143.325 16.3381 143.001 16.4886 142.597 16.5653C142.89 16.5994 143.158 16.6875 143.403 16.8295C143.647 16.9687 143.843 17.1562 143.991 17.392C144.141 17.6278 144.217 17.9091 144.217 18.2358C144.217 18.5824 144.127 18.8892 143.948 19.1562C143.769 19.4205 143.509 19.6278 143.168 19.7784C142.83 19.9261 142.423 20 141.945 20H138.817ZM140.015 18.9347H141.945C142.261 18.9347 142.508 18.8594 142.687 18.7088C142.866 18.5582 142.955 18.3537 142.955 18.0952C142.955 17.7912 142.866 17.5526 142.687 17.3793C142.508 17.2031 142.261 17.1151 141.945 17.1151H140.015V18.9347ZM140.015 16.1818H141.545C141.783 16.1818 141.988 16.1477 142.158 16.0795C142.332 16.0114 142.464 15.9148 142.555 15.7898C142.648 15.6619 142.695 15.5114 142.695 15.3381C142.695 15.0852 142.592 14.8878 142.384 14.7457C142.177 14.6037 141.893 14.5327 141.532 14.5327H140.015V16.1818ZM147.519 20.1449C147.104 20.1449 146.729 20.0682 146.394 19.9148C146.059 19.7585 145.793 19.5327 145.597 19.2372C145.404 18.9418 145.308 18.5795 145.308 18.1506C145.308 17.7812 145.379 17.4773 145.521 17.2386C145.663 17 145.854 16.8111 146.096 16.6719C146.337 16.5327 146.607 16.4276 146.906 16.3565C147.204 16.2855 147.508 16.2315 147.817 16.1946C148.21 16.1491 148.528 16.1122 148.772 16.0838C149.016 16.0526 149.194 16.0028 149.305 15.9347C149.415 15.8665 149.471 15.7557 149.471 15.6023V15.5724C149.471 15.2003 149.366 14.9119 149.156 14.7074C148.948 14.5028 148.638 14.4006 148.227 14.4006C147.798 14.4006 147.46 14.4957 147.212 14.6861C146.968 14.8736 146.799 15.0824 146.705 15.3125L145.508 15.0398C145.65 14.642 145.857 14.321 146.13 14.0767C146.406 13.8295 146.722 13.6506 147.08 13.5398C147.438 13.4261 147.815 13.3693 148.21 13.3693C148.471 13.3693 148.748 13.4006 149.04 13.4631C149.336 13.5227 149.612 13.6335 149.867 13.7955C150.126 13.9574 150.337 14.1889 150.502 14.4901C150.667 14.7884 150.749 15.1761 150.749 15.6534V20H149.505V19.1051H149.454C149.371 19.2699 149.248 19.4318 149.083 19.5909C148.918 19.75 148.707 19.8821 148.448 19.9872C148.19 20.0923 147.88 20.1449 147.519 20.1449ZM147.796 19.1222C148.148 19.1222 148.45 19.0526 148.7 18.9134C148.952 18.7741 149.144 18.5923 149.275 18.3679C149.408 18.1406 149.475 17.8977 149.475 17.6392V16.7955C149.43 16.8409 149.342 16.8835 149.211 16.9233C149.083 16.9602 148.937 16.9929 148.772 17.0213C148.607 17.0469 148.447 17.071 148.29 17.0938C148.134 17.1136 148.004 17.1307 147.898 17.1449C147.651 17.1761 147.425 17.2287 147.221 17.3026C147.019 17.3764 146.857 17.483 146.735 17.6222C146.616 17.7585 146.556 17.9403 146.556 18.1676C146.556 18.483 146.673 18.7216 146.906 18.8835C147.138 19.0426 147.435 19.1222 147.796 19.1222ZM156.882 16.1776V17.2812H153.337V16.1776H156.882ZM153.695 13.4545V20H152.446V13.4545H153.695ZM157.773 13.4545V20H156.529V13.4545H157.773ZM163.914 16.1776V17.2812H160.368V16.1776H163.914ZM160.726 13.4545V20H159.478V13.4545H160.726ZM164.804 13.4545V20H163.56V13.4545H164.804ZM167.468 15.7045H169.368C170.169 15.7045 170.786 15.9034 171.218 16.3011C171.65 16.6989 171.865 17.2116 171.865 17.8395C171.865 18.2486 171.769 18.6165 171.576 18.9432C171.382 19.2699 171.1 19.5284 170.728 19.7188C170.355 19.9062 169.902 20 169.368 20H166.509V13.4545H167.757V18.9006H169.368C169.735 18.9006 170.036 18.8054 170.272 18.6151C170.507 18.4219 170.625 18.1761 170.625 17.8778C170.625 17.5625 170.507 17.3054 170.272 17.1065C170.036 16.9048 169.735 16.804 169.368 16.804H167.468V15.7045ZM172.794 20V13.4545H174.069V20H172.794ZM178.599 20.1321C177.955 20.1321 177.399 19.9943 176.933 19.7188C176.47 19.4403 176.112 19.0497 175.859 18.5469C175.609 18.0412 175.484 17.4489 175.484 16.7699C175.484 16.0994 175.609 15.5085 175.859 14.9972C176.112 14.4858 176.464 14.0866 176.916 13.7997C177.371 13.5128 177.902 13.3693 178.51 13.3693C178.879 13.3693 179.237 13.4304 179.584 13.5526C179.93 13.6747 180.241 13.8665 180.517 14.1278C180.793 14.3892 181.01 14.7287 181.169 15.1463C181.328 15.5611 181.408 16.0653 181.408 16.6591V17.1108H176.205V16.1562H180.159C180.159 15.821 180.091 15.5241 179.955 15.2656C179.818 15.0043 179.626 14.7983 179.379 14.6477C179.135 14.4972 178.848 14.4219 178.518 14.4219C178.161 14.4219 177.848 14.5099 177.581 14.6861C177.317 14.8594 177.112 15.0866 176.967 15.3679C176.825 15.6463 176.754 15.9489 176.754 16.2756V17.0213C176.754 17.4588 176.831 17.831 176.984 18.1378C177.141 18.4446 177.358 18.679 177.636 18.8409C177.915 19 178.24 19.0795 178.612 19.0795C178.854 19.0795 179.074 19.0455 179.273 18.9773C179.472 18.9062 179.643 18.8011 179.788 18.6619C179.933 18.5227 180.044 18.3509 180.121 18.1463L181.327 18.3636C181.23 18.7187 181.057 19.0298 180.807 19.2969C180.56 19.5611 180.249 19.767 179.874 19.9148C179.501 20.0597 179.077 20.1321 178.599 20.1321Z" fill="#00A47D"/>
<path d="M233 13.5L238 18.5L243 13.5" stroke="#00A47D" stroke-width="2" stroke-linecap="round" stroke-linejoin="round"/>
<path d="M72 1H256V-1H72V1ZM263 8V24H265V8H263ZM256 31H72V33H256V31ZM65 24V8H63V24H65ZM72 31C68.134 31 65 27.866 65 24H63C63 28.9706 67.0294 33 72 33V31ZM263 24C263 27.866 259.866 31 256 31V33C260.971 33 265 28.9706 265 24H263ZM256 1C259.866 1 263 4.13401 263 8H265C265 3.02944 260.971 -1 256 -1V1ZM72 -1C67.0294 -1 63 3.02944 63 8H65C65 4.13401 68.134 1 72 1V-1Z" fill="#00A47D"/>
<path d="M291.959 20V11.2727H295.155C295.774 11.2727 296.287 11.375 296.693 11.5795C297.099 11.7812 297.403 12.0554 297.605 12.402C297.807 12.7457 297.908 13.1335 297.908 13.5653C297.908 13.929 297.841 14.2358 297.707 14.4858C297.574 14.733 297.395 14.9318 297.17 15.0824C296.949 15.2301 296.705 15.3381 296.438 15.4062V15.4915C296.727 15.5057 297.01 15.5994 297.286 15.7727C297.564 15.9432 297.794 16.1861 297.976 16.5014C298.158 16.8168 298.249 17.2003 298.249 17.652C298.249 18.098 298.143 18.4986 297.933 18.8537C297.726 19.206 297.405 19.4858 296.97 19.6932C296.536 19.8977 295.98 20 295.304 20H291.959ZM293.276 18.8707H295.176C295.807 18.8707 296.259 18.7486 296.531 18.5043C296.804 18.2599 296.94 17.9545 296.94 17.5881C296.94 17.3125 296.871 17.0597 296.732 16.8295C296.592 16.5994 296.393 16.4162 296.135 16.2798C295.879 16.1435 295.575 16.0753 295.223 16.0753H293.276V18.8707ZM293.276 15.0483H295.04C295.335 15.0483 295.601 14.9915 295.837 14.8778C296.075 14.7642 296.264 14.6051 296.403 14.4006C296.545 14.1932 296.616 13.9489 296.616 13.6676C296.616 13.3068 296.49 13.0043 296.237 12.7599C295.984 12.5156 295.597 12.3935 295.074 12.3935H293.276V15.0483ZM302.465 20.1321C301.832 20.1321 301.286 19.9886 300.829 19.7017C300.374 19.4119 300.025 19.0128 299.781 18.5043C299.536 17.9957 299.414 17.4134 299.414 16.7571C299.414 16.0923 299.539 15.5057 299.789 14.9972C300.039 14.4858 300.391 14.0866 300.846 13.7997C301.3 13.5128 301.836 13.3693 302.452 13.3693C302.95 13.3693 303.393 13.4616 303.782 13.6463C304.171 13.8281 304.485 14.0838 304.724 14.4134C304.965 14.7429 305.109 15.1278 305.154 15.5682H303.914C303.846 15.2614 303.69 14.9972 303.445 14.7756C303.204 14.554 302.88 14.4432 302.474 14.4432C302.119 14.4432 301.808 14.5369 301.54 14.7244C301.276 14.9091 301.07 15.1733 300.923 15.517C300.775 15.858 300.701 16.2614 300.701 16.7273C300.701 17.2045 300.773 17.6165 300.918 17.9631C301.063 18.3097 301.268 18.5781 301.532 18.7685C301.799 18.9588 302.113 19.054 302.474 19.054C302.715 19.054 302.934 19.0099 303.13 18.9219C303.329 18.831 303.495 18.7017 303.629 18.5341C303.765 18.3665 303.86 18.1648 303.914 17.929H305.154C305.109 18.3523 304.971 18.7301 304.741 19.0625C304.511 19.3949 304.202 19.6562 303.816 19.8466C303.433 20.0369 302.982 20.1321 302.465 20.1321ZM309.338 20.1321C308.693 20.1321 308.137 19.9943 307.672 19.7188C307.208 19.4403 306.85 19.0497 306.598 18.5469C306.348 18.0412 306.223 17.4489 306.223 16.7699C306.223 16.0994 306.348 15.5085 306.598 14.9972C306.85 14.4858 307.203 14.0866 307.654 13.7997C308.109 13.5128 308.64 13.3693 309.248 13.3693C309.618 13.3693 309.975 13.4304 310.322 13.5526C310.669 13.6747 310.98 13.8665 311.255 14.1278C311.531 14.3892 311.748 14.7287 311.907 15.1463C312.066 15.5611 312.146 16.0653 312.146 16.6591V17.1108H306.943V16.1562H310.897C310.897 15.821 310.829 15.5241 310.693 15.2656C310.556 15.0043 310.365 14.7983 310.118 14.6477C309.873 14.4972 309.586 14.4219 309.257 14.4219C308.899 14.4219 308.586 14.5099 308.319 14.6861C308.055 14.8594 307.85 15.0866 307.706 15.3679C307.564 15.6463 307.493 15.9489 307.493 16.2756V17.0213C307.493 17.4588 307.569 17.831 307.723 18.1378C307.879 18.4446 308.096 18.679 308.375 18.8409C308.653 19 308.978 19.0795 309.35 19.0795C309.592 19.0795 309.812 19.0455 310.011 18.9773C310.21 18.9062 310.382 18.8011 310.527 18.6619C310.672 18.5227 310.782 18.3509 310.859 18.1463L312.065 18.3636C311.968 18.7187 311.795 19.0298 311.545 19.2969C311.298 19.5611 310.987 19.767 310.612 19.9148C310.24 20.0597 309.815 20.1321 309.338 20.1321Z" fill="#00A47D"/>
<path d="M444 13.5L449 18.5L454 13.5" stroke="#00A47D" stroke-width="2" stroke-linecap="round" stroke-linejoin="round"/>
<path d="M283 1H467V-1H283V1ZM474 8V24H476V8H474ZM467 31H283V33H467V31ZM276 24V8H274V24H276ZM283 31C279.134 31 276 27.866 276 24H274C274 28.9706 278.029 33 283 33V31ZM474 24C474 27.866 470.866 31 467 31V33C471.971 33 476 28.9706 476 24H474ZM467 1C470.866 1 474 4.13401 474 8H476C476 3.02944 471.971 -1 467 -1V1ZM283 -1C278.029 -1 274 3.02944 274 8H276C276 4.13401 279.134 1 283 1V-1Z" fill="#00A47D"/>
</svg>
