<svg width="352" height="139" viewBox="0 0 352 139" fill="none" xmlns="http://www.w3.org/2000/svg">
<rect width="352" height="139" rx="8" fill="white"/>
<path fill-rule="evenodd" clip-rule="evenodd" d="M118.343 139C142.429 120.841 158 91.9887 158 59.5C158 37.1902 150.657 16.5952 138.257 0H8C3.58172 0 0 3.58172 0 8V131C0 135.418 3.58173 139 8.00001 139H118.343Z" fill="#80D1BE"/>
<path opacity="0.2" fill-rule="evenodd" clip-rule="evenodd" d="M108.167 53.2627H93.375C94.8584 50.7317 95.6488 47.8538 95.6667 44.9193H108.167C108.167 40.3113 104.436 36.5759 99.8333 36.5759H93.375C90.3828 31.47 84.9127 28.3335 79 28.3335C73.0873 28.3335 67.6172 31.47 64.625 36.5759H54C47.0964 36.5759 41.5 42.1791 41.5 49.091V103.323C41.5 107.931 45.231 111.667 49.8333 111.667H108.167C112.769 111.667 116.5 107.931 116.5 103.323V61.6062C116.5 56.9982 112.769 53.2627 108.167 53.2627ZM79 36.5759C83.6024 36.5759 87.3333 40.3113 87.3333 44.9193C87.3333 49.5273 83.6024 53.2627 79 53.2627C74.3976 53.2627 70.6667 49.5273 70.6667 44.9193C70.6667 40.3113 74.3976 36.5759 79 36.5759ZM62.3333 44.9193H54C51.6988 44.9193 49.8333 46.787 49.8333 49.091C49.8333 51.395 51.6988 53.2627 54 53.2627H64.625C63.1416 50.7317 62.3512 47.8538 62.3333 44.9193ZM108.167 69.9496H79C76.6988 69.9496 74.8333 71.8174 74.8333 74.1213V90.8082C74.8333 93.1122 76.6988 94.9799 79 94.9799H108.167V103.323H49.8333V61.6062H108.167V69.9496ZM91.5 84.5506V80.3789C91.5 79.2269 90.5673 78.2931 89.4167 78.2931H85.25C84.0994 78.2931 83.1667 79.2269 83.1667 80.3789V84.5506C83.1667 85.7026 84.0994 86.6365 85.25 86.6365H89.4167C90.5673 86.6365 91.5 85.7026 91.5 84.5506Z" fill="white"/>
<path opacity="0.5" d="M233.318 38H232.437C232.385 37.7467 232.294 37.5241 232.163 37.3324C232.036 37.1406 231.879 36.9796 231.695 36.8494C231.512 36.7169 231.31 36.6174 231.087 36.5511C230.865 36.4848 230.633 36.4517 230.391 36.4517C229.951 36.4517 229.552 36.563 229.195 36.7855C228.84 37.008 228.557 37.3359 228.346 37.7692C228.138 38.2024 228.033 38.7339 228.033 39.3636C228.033 39.9934 228.138 40.5249 228.346 40.9581C228.557 41.3913 228.84 41.7192 229.195 41.9418C229.552 42.1643 229.951 42.2756 230.391 42.2756C230.633 42.2756 230.865 42.2424 231.087 42.1761C231.31 42.1098 231.512 42.0116 231.695 41.8814C231.879 41.7488 232.036 41.5866 232.163 41.3949C232.294 41.2008 232.385 40.9782 232.437 40.7273H233.318C233.251 41.099 233.13 41.4316 232.955 41.7251C232.78 42.0187 232.562 42.2685 232.302 42.4744C232.041 42.678 231.749 42.8331 231.425 42.9396C231.103 43.0462 230.758 43.0994 230.391 43.0994C229.771 43.0994 229.219 42.9479 228.737 42.6449C228.254 42.3419 227.874 41.911 227.597 41.3523C227.32 40.7936 227.181 40.1307 227.181 39.3636C227.181 38.5966 227.32 37.9337 227.597 37.375C227.874 36.8163 228.254 36.3854 228.737 36.0824C229.219 35.7794 229.771 35.6278 230.391 35.6278C230.758 35.6278 231.103 35.6811 231.425 35.7876C231.749 35.8942 232.041 36.0504 232.302 36.2564C232.562 36.46 232.78 36.7086 232.955 37.0021C233.13 37.2933 233.251 37.6259 233.318 38ZM234.627 45.0455V37.5455H235.437V38.4119H235.536C235.598 38.3172 235.683 38.1965 235.792 38.0497C235.903 37.9006 236.062 37.768 236.268 37.652C236.476 37.5336 236.758 37.4744 237.113 37.4744C237.572 37.4744 237.977 37.5893 238.327 37.8189C238.678 38.0485 238.951 38.3741 239.148 38.7955C239.344 39.2169 239.442 39.714 239.442 40.2869C239.442 40.8646 239.344 41.3653 239.148 41.7891C238.951 42.2105 238.679 42.5372 238.331 42.7692C237.983 42.9988 237.582 43.1136 237.127 43.1136C236.777 43.1136 236.496 43.0556 236.285 42.9396C236.075 42.8213 235.912 42.6875 235.799 42.5384C235.685 42.3868 235.598 42.2614 235.536 42.1619H235.465V45.0455H234.627ZM235.451 40.2727C235.451 40.6847 235.511 41.0481 235.632 41.3629C235.753 41.6754 235.929 41.9205 236.161 42.098C236.393 42.2732 236.677 42.3608 237.013 42.3608C237.364 42.3608 237.656 42.2685 237.89 42.0838C238.127 41.8968 238.305 41.6458 238.423 41.331C238.544 41.0137 238.604 40.661 238.604 40.2727C238.604 39.8892 238.545 39.5436 238.427 39.2358C238.311 38.9257 238.134 38.6806 237.898 38.5007C237.663 38.3184 237.368 38.2273 237.013 38.2273C236.672 38.2273 236.386 38.3137 236.154 38.4865C235.922 38.657 235.747 38.8961 235.628 39.2038C235.51 39.5092 235.451 39.8655 235.451 40.2727ZM243.008 43.1136C242.482 43.1136 242.029 42.9976 241.648 42.7656C241.269 42.5312 240.976 42.2045 240.77 41.7855C240.567 41.3641 240.465 40.8741 240.465 40.3153C240.465 39.7566 240.567 39.2642 240.77 38.8381C240.976 38.4096 241.263 38.0758 241.63 37.8366C241.999 37.5952 242.43 37.4744 242.922 37.4744C243.207 37.4744 243.487 37.5218 243.764 37.6165C244.041 37.7112 244.293 37.8651 244.52 38.0781C244.748 38.2888 244.929 38.5682 245.064 38.9162C245.199 39.2642 245.266 39.6927 245.266 40.2017V40.5568H241.062V39.8324H244.414C244.414 39.5246 244.352 39.25 244.229 39.0085C244.109 38.767 243.936 38.5765 243.711 38.4368C243.488 38.2971 243.225 38.2273 242.922 38.2273C242.589 38.2273 242.3 38.3101 242.056 38.4759C241.814 38.6392 241.629 38.8523 241.498 39.1151C241.368 39.3778 241.303 39.6596 241.303 39.9602V40.4432C241.303 40.8551 241.374 41.2043 241.516 41.4908C241.661 41.7749 241.861 41.9915 242.116 42.1406C242.372 42.2874 242.669 42.3608 243.008 42.3608C243.228 42.3608 243.427 42.33 243.604 42.2685C243.784 42.2045 243.939 42.1098 244.069 41.9844C244.2 41.8565 244.3 41.6979 244.371 41.5085L245.181 41.7358C245.096 42.0104 244.953 42.2519 244.751 42.4602C244.55 42.6662 244.301 42.8272 244.006 42.9432C243.71 43.0568 243.377 43.1136 243.008 43.1136ZM245.959 44.5625V42.2188H246.413C246.524 42.1027 246.62 41.9773 246.701 41.8423C246.781 41.7074 246.851 41.5476 246.91 41.3629C246.972 41.1759 247.024 40.9486 247.067 40.6811C247.109 40.4112 247.147 40.0857 247.18 39.7045L247.365 37.5455H250.831V42.2188H251.669V44.5625H250.831V43H246.797V44.5625H245.959ZM247.365 42.2188H249.993V38.3267H248.146L248.004 39.7045C247.945 40.2751 247.872 40.7734 247.784 41.1996C247.696 41.6257 247.557 41.9654 247.365 42.2188ZM256.432 39.8892V40.6705H253.42V39.8892H256.432ZM253.619 37.5455V43H252.781V37.5455H253.619ZM257.071 37.5455V43H256.233V37.5455H257.071ZM261.883 43V38.3125H260.434C260.107 38.3125 259.85 38.3883 259.663 38.5398C259.476 38.6913 259.383 38.8996 259.383 39.1648C259.383 39.4252 259.467 39.63 259.635 39.7791C259.805 39.9283 260.039 40.0028 260.335 40.0028H262.096V40.7841H260.335C259.965 40.7841 259.647 40.719 259.379 40.5888C259.112 40.4586 258.906 40.2727 258.761 40.0312C258.617 39.7874 258.545 39.4986 258.545 39.1648C258.545 38.8286 258.621 38.5398 258.772 38.2983C258.924 38.0568 259.14 37.871 259.422 37.7408C259.706 37.6106 260.043 37.5455 260.434 37.5455H262.678V43H261.883ZM258.246 43L259.795 40.2869H260.704L259.156 43H258.246ZM267.498 43V38.3125H266.049C265.723 38.3125 265.466 38.3883 265.279 38.5398C265.092 38.6913 264.998 38.8996 264.998 39.1648C264.998 39.4252 265.082 39.63 265.25 39.7791C265.421 39.9283 265.654 40.0028 265.95 40.0028H267.711V40.7841H265.95C265.58 40.7841 265.262 40.719 264.995 40.5888C264.727 40.4586 264.521 40.2727 264.377 40.0312C264.232 39.7874 264.16 39.4986 264.16 39.1648C264.16 38.8286 264.236 38.5398 264.387 38.2983C264.539 38.0568 264.755 37.871 265.037 37.7408C265.321 37.6106 265.659 37.5455 266.049 37.5455H268.294V43H267.498ZM263.862 43L265.41 40.2869H266.319L264.771 43H263.862ZM272.062 44.5625V42.2188H272.517C272.628 42.1027 272.724 41.9773 272.804 41.8423C272.885 41.7074 272.955 41.5476 273.014 41.3629C273.075 41.1759 273.128 40.9486 273.17 40.6811C273.213 40.4112 273.251 40.0857 273.284 39.7045L273.468 37.5455H276.934V42.2188H277.772V44.5625H276.934V43H272.9V44.5625H272.062ZM273.468 42.2188H276.096V38.3267H274.25L274.108 39.7045C274.048 40.2751 273.975 40.7734 273.887 41.1996C273.8 41.6257 273.66 41.9654 273.468 42.2188ZM281.101 43.1136C280.608 43.1136 280.176 42.9964 279.805 42.7621C279.435 42.5277 279.146 42.1998 278.938 41.7784C278.732 41.357 278.629 40.8646 278.629 40.3011C278.629 39.733 278.732 39.237 278.938 38.8132C279.146 38.3894 279.435 38.0604 279.805 37.826C280.176 37.5916 280.608 37.4744 281.101 37.4744C281.593 37.4744 282.024 37.5916 282.393 37.826C282.765 38.0604 283.054 38.3894 283.26 38.8132C283.468 39.237 283.572 39.733 283.572 40.3011C283.572 40.8646 283.468 41.357 283.26 41.7784C283.054 42.1998 282.765 42.5277 282.393 42.7621C282.024 42.9964 281.593 43.1136 281.101 43.1136ZM281.101 42.3608C281.475 42.3608 281.783 42.2649 282.024 42.0732C282.265 41.8814 282.444 41.6293 282.56 41.3168C282.676 41.0043 282.734 40.6657 282.734 40.3011C282.734 39.9366 282.676 39.5968 282.56 39.282C282.444 38.9671 282.265 38.7126 282.024 38.5185C281.783 38.3243 281.475 38.2273 281.101 38.2273C280.727 38.2273 280.419 38.3243 280.177 38.5185C279.936 38.7126 279.757 38.9671 279.641 39.282C279.525 39.5968 279.467 39.9366 279.467 40.3011C279.467 40.6657 279.525 41.0043 279.641 41.3168C279.757 41.6293 279.936 41.8814 280.177 42.0732C280.419 42.2649 280.727 42.3608 281.101 42.3608ZM285.252 37.5455L286.559 39.7756L287.866 37.5455H288.832L287.07 40.2727L288.832 43H287.866L286.559 40.8835L285.252 43H284.286L286.019 40.2727L284.286 37.5455H285.252ZM292.019 43.1136C291.526 43.1136 291.094 42.9964 290.723 42.7621C290.353 42.5277 290.064 42.1998 289.856 41.7784C289.65 41.357 289.547 40.8646 289.547 40.3011C289.547 39.733 289.65 39.237 289.856 38.8132C290.064 38.3894 290.353 38.0604 290.723 37.826C291.094 37.5916 291.526 37.4744 292.019 37.4744C292.511 37.4744 292.942 37.5916 293.311 37.826C293.683 38.0604 293.972 38.3894 294.178 38.8132C294.386 39.237 294.49 39.733 294.49 40.3011C294.49 40.8646 294.386 41.357 294.178 41.7784C293.972 42.1998 293.683 42.5277 293.311 42.7621C292.942 42.9964 292.511 43.1136 292.019 43.1136ZM292.019 42.3608C292.393 42.3608 292.7 42.2649 292.942 42.0732C293.183 41.8814 293.362 41.6293 293.478 41.3168C293.594 41.0043 293.652 40.6657 293.652 40.3011C293.652 39.9366 293.594 39.5968 293.478 39.282C293.362 38.9671 293.183 38.7126 292.942 38.5185C292.7 38.3243 292.393 38.2273 292.019 38.2273C291.645 38.2273 291.337 38.3243 291.095 38.5185C290.854 38.7126 290.675 38.9671 290.559 39.282C290.443 39.5968 290.385 39.9366 290.385 40.3011C290.385 40.6657 290.443 41.0043 290.559 41.3168C290.675 41.6293 290.854 41.8814 291.095 42.0732C291.337 42.2649 291.645 42.3608 292.019 42.3608ZM295.187 44.5625V42.2188H295.642C295.753 42.1027 295.849 41.9773 295.929 41.8423C296.01 41.7074 296.08 41.5476 296.139 41.3629C296.2 41.1759 296.253 40.9486 296.295 40.6811C296.338 40.4112 296.376 40.0857 296.409 39.7045L296.593 37.5455H300.059V42.2188H300.897V44.5625H300.059V43H296.025V44.5625H295.187ZM296.593 42.2188H299.221V38.3267H297.375L297.233 39.7045C297.173 40.2751 297.1 40.7734 297.012 41.1996C296.925 41.6257 296.785 41.9654 296.593 42.2188ZM305.66 39.8892V40.6705H302.649V39.8892H305.66ZM302.848 37.5455V43H302.01V37.5455H302.848ZM306.3 37.5455V43H305.462V37.5455H306.3ZM310.046 43.1136C309.554 43.1136 309.122 42.9964 308.75 42.7621C308.381 42.5277 308.092 42.1998 307.883 41.7784C307.677 41.357 307.574 40.8646 307.574 40.3011C307.574 39.733 307.677 39.237 307.883 38.8132C308.092 38.3894 308.381 38.0604 308.75 37.826C309.122 37.5916 309.554 37.4744 310.046 37.4744C310.538 37.4744 310.969 37.5916 311.339 37.826C311.71 38.0604 311.999 38.3894 312.205 38.8132C312.413 39.237 312.518 39.733 312.518 40.3011C312.518 40.8646 312.413 41.357 312.205 41.7784C311.999 42.1998 311.71 42.5277 311.339 42.7621C310.969 42.9964 310.538 43.1136 310.046 43.1136ZM310.046 42.3608C310.42 42.3608 310.728 42.2649 310.969 42.0732C311.211 41.8814 311.39 41.6293 311.506 41.3168C311.622 41.0043 311.68 40.6657 311.68 40.3011C311.68 39.9366 311.622 39.5968 311.506 39.282C311.39 38.9671 311.211 38.7126 310.969 38.5185C310.728 38.3243 310.42 38.2273 310.046 38.2273C309.672 38.2273 309.364 38.3243 309.123 38.5185C308.881 38.7126 308.703 38.9671 308.587 39.282C308.47 39.5968 308.412 39.9366 308.412 40.3011C308.412 40.6657 308.47 41.0043 308.587 41.3168C308.703 41.6293 308.881 41.8814 309.123 42.0732C309.364 42.2649 309.672 42.3608 310.046 42.3608ZM316.013 43.1136C315.501 43.1136 315.061 42.9929 314.692 42.7514C314.322 42.5099 314.038 42.1773 313.84 41.7536C313.641 41.3298 313.541 40.8456 313.541 40.3011C313.541 39.7472 313.643 39.2583 313.847 38.8345C314.053 38.4084 314.339 38.0758 314.706 37.8366C315.075 37.5952 315.506 37.4744 315.999 37.4744C316.382 37.4744 316.728 37.5455 317.036 37.6875C317.343 37.8295 317.595 38.0284 317.792 38.2841C317.988 38.5398 318.11 38.8381 318.158 39.179H317.32C317.256 38.9304 317.114 38.7102 316.893 38.5185C316.676 38.3243 316.382 38.2273 316.013 38.2273C315.686 38.2273 315.4 38.3125 315.153 38.483C314.91 38.651 314.719 38.889 314.582 39.1967C314.447 39.5021 314.379 39.8608 314.379 40.2727C314.379 40.6941 314.446 41.0611 314.578 41.3736C314.713 41.6861 314.902 41.9287 315.146 42.1016C315.393 42.2744 315.681 42.3608 316.013 42.3608C316.231 42.3608 316.428 42.3229 316.606 42.2472C316.783 42.1714 316.934 42.0625 317.057 41.9205C317.18 41.7784 317.268 41.608 317.32 41.4091H318.158C318.11 41.7311 317.993 42.0211 317.806 42.2791C317.621 42.5348 317.376 42.7384 317.071 42.8899C316.768 43.0391 316.415 43.1136 316.013 43.1136ZM318.953 38.3267V37.5455H323.385V38.3267H321.595V43H320.757V38.3267H318.953ZM325.332 39.5199H326.894C327.534 39.5199 328.022 39.6821 328.361 40.0064C328.7 40.3307 328.869 40.7415 328.869 41.2386C328.869 41.5653 328.793 41.8625 328.642 42.13C328.49 42.3951 328.267 42.607 327.974 42.7656C327.68 42.9219 327.321 43 326.894 43H324.607V37.5455H325.446V42.2188H326.894C327.226 42.2188 327.498 42.1312 327.711 41.956C327.924 41.7808 328.031 41.5559 328.031 41.2812C328.031 40.9924 327.924 40.7569 327.711 40.5746C327.498 40.3923 327.226 40.3011 326.894 40.3011H325.332V39.5199ZM332.957 43V37.5455H337.247V43H336.409V38.3267H333.795V43H332.957ZM340.993 43.1136C340.501 43.1136 340.069 42.9964 339.697 42.7621C339.328 42.5277 339.039 42.1998 338.831 41.7784C338.625 41.357 338.522 40.8646 338.522 40.3011C338.522 39.733 338.625 39.237 338.831 38.8132C339.039 38.3894 339.328 38.0604 339.697 37.826C340.069 37.5916 340.501 37.4744 340.993 37.4744C341.486 37.4744 341.917 37.5916 342.286 37.826C342.658 38.0604 342.946 38.3894 343.152 38.8132C343.361 39.237 343.465 39.733 343.465 40.3011C343.465 40.8646 343.361 41.357 343.152 41.7784C342.946 42.1998 342.658 42.5277 342.286 42.7621C341.917 42.9964 341.486 43.1136 340.993 43.1136ZM340.993 42.3608C341.367 42.3608 341.675 42.2649 341.917 42.0732C342.158 41.8814 342.337 41.6293 342.453 41.3168C342.569 41.0043 342.627 40.6657 342.627 40.3011C342.627 39.9366 342.569 39.5968 342.453 39.282C342.337 38.9671 342.158 38.7126 341.917 38.5185C341.675 38.3243 341.367 38.2273 340.993 38.2273C340.619 38.2273 340.311 38.3243 340.07 38.5185C339.829 38.7126 339.65 38.9671 339.534 39.282C339.418 39.5968 339.36 39.9366 339.36 40.3011C339.36 40.6657 339.418 41.0043 339.534 41.3168C339.65 41.6293 339.829 41.8814 340.07 42.0732C340.311 42.2649 340.619 42.3608 340.993 42.3608ZM295.555 53V47.5455H299.844V53H299.006V48.3267H296.393V53H295.555ZM303.591 53.1136C303.099 53.1136 302.666 52.9964 302.295 52.7621C301.925 52.5277 301.637 52.1998 301.428 51.7784C301.222 51.357 301.119 50.8646 301.119 50.3011C301.119 49.733 301.222 49.237 301.428 48.8132C301.637 48.3894 301.925 48.0604 302.295 47.826C302.666 47.5916 303.099 47.4744 303.591 47.4744C304.083 47.4744 304.514 47.5916 304.884 47.826C305.255 48.0604 305.544 48.3894 305.75 48.8132C305.958 49.237 306.063 49.733 306.063 50.3011C306.063 50.8646 305.958 51.357 305.75 51.7784C305.544 52.1998 305.255 52.5277 304.884 52.7621C304.514 52.9964 304.083 53.1136 303.591 53.1136ZM303.591 52.3608C303.965 52.3608 304.273 52.2649 304.514 52.0732C304.756 51.8814 304.934 51.6293 305.05 51.3168C305.166 51.0043 305.224 50.6657 305.224 50.3011C305.224 49.9366 305.166 49.5968 305.05 49.282C304.934 48.9671 304.756 48.7126 304.514 48.5185C304.273 48.3243 303.965 48.2273 303.591 48.2273C303.217 48.2273 302.909 48.3243 302.668 48.5185C302.426 48.7126 302.247 48.9671 302.131 49.282C302.015 49.5968 301.957 49.9366 301.957 50.3011C301.957 50.6657 302.015 51.0043 302.131 51.3168C302.247 51.6293 302.426 51.8814 302.668 52.0732C302.909 52.2649 303.217 52.3608 303.591 52.3608ZM307.342 55.0455V47.5455H308.151V48.4119H308.251C308.312 48.3172 308.398 48.1965 308.507 48.0497C308.618 47.9006 308.776 47.768 308.982 47.652C309.191 47.5336 309.473 47.4744 309.828 47.4744C310.287 47.4744 310.692 47.5893 311.042 47.8189C311.392 48.0485 311.666 48.3741 311.862 48.7955C312.059 49.2169 312.157 49.714 312.157 50.2869C312.157 50.8646 312.059 51.3653 311.862 51.7891C311.666 52.2105 311.394 52.5372 311.046 52.7692C310.698 52.9988 310.296 53.1136 309.842 53.1136C309.491 53.1136 309.211 53.0556 309 52.9396C308.79 52.8213 308.627 52.6875 308.514 52.5384C308.4 52.3868 308.312 52.2614 308.251 52.1619H308.18V55.0455H307.342ZM308.166 50.2727C308.166 50.6847 308.226 51.0481 308.347 51.3629C308.468 51.6754 308.644 51.9205 308.876 52.098C309.108 52.2732 309.392 52.3608 309.728 52.3608C310.079 52.3608 310.371 52.2685 310.605 52.0838C310.842 51.8968 311.02 51.6458 311.138 51.331C311.259 51.0137 311.319 50.661 311.319 50.2727C311.319 49.8892 311.26 49.5436 311.142 49.2358C311.026 48.9257 310.849 48.6806 310.612 48.5007C310.378 48.3184 310.083 48.2273 309.728 48.2273C309.387 48.2273 309.101 48.3137 308.869 48.4865C308.637 48.657 308.462 48.8961 308.343 49.2038C308.225 49.5092 308.166 49.8655 308.166 50.2727ZM312.723 48.3267V47.5455H317.155V48.3267H315.365V53H314.527V48.3267H312.723ZM320.31 54.8608V45.7273H321.148V54.8608H320.31ZM320.31 53.1136C319.94 53.1136 319.604 53.0473 319.301 52.9148C318.998 52.7798 318.738 52.5893 318.52 52.343C318.302 52.0945 318.134 51.7973 318.016 51.4517C317.897 51.1061 317.838 50.7225 317.838 50.3011C317.838 49.875 317.897 49.4891 318.016 49.1435C318.134 48.7955 318.302 48.4972 318.52 48.2486C318.738 48 318.998 47.8094 319.301 47.6768C319.604 47.5419 319.94 47.4744 320.31 47.4744H320.565V53.1136H320.31ZM320.31 52.3608H320.452V48.2273H320.31C320.03 48.2273 319.788 48.2841 319.582 48.3977C319.376 48.509 319.205 48.6617 319.07 48.8558C318.938 49.0476 318.838 49.2678 318.772 49.5163C318.708 49.7649 318.676 50.0265 318.676 50.3011C318.676 50.6657 318.734 51.0043 318.85 51.3168C318.966 51.6293 319.145 51.8814 319.386 52.0732C319.628 52.2649 319.936 52.3608 320.31 52.3608ZM321.148 53.1136H320.892V47.4744H321.148C321.517 47.4744 321.853 47.5419 322.156 47.6768C322.459 47.8094 322.72 48 322.938 48.2486C323.155 48.4972 323.323 48.7955 323.442 49.1435C323.56 49.4891 323.619 49.875 323.619 50.3011C323.619 50.7225 323.56 51.1061 323.442 51.4517C323.323 51.7973 323.155 52.0945 322.938 52.343C322.72 52.5893 322.459 52.7798 322.156 52.9148C321.853 53.0473 321.517 53.1136 321.148 53.1136ZM321.148 52.3608C321.429 52.3608 321.672 52.3063 321.876 52.1974C322.082 52.0862 322.251 51.9347 322.384 51.7429C322.518 51.5488 322.618 51.3286 322.682 51.0824C322.748 50.8338 322.781 50.5734 322.781 50.3011C322.781 49.9366 322.723 49.5968 322.607 49.282C322.491 48.9671 322.313 48.7126 322.071 48.5185C321.83 48.3243 321.522 48.2273 321.148 48.2273H321.006V52.3608H321.148ZM327.187 53.1136C326.662 53.1136 326.208 52.9976 325.827 52.7656C325.448 52.5312 325.156 52.2045 324.95 51.7855C324.747 51.3641 324.645 50.8741 324.645 50.3153C324.645 49.7566 324.747 49.2642 324.95 48.8381C325.156 48.4096 325.443 48.0758 325.81 47.8366C326.179 47.5952 326.61 47.4744 327.102 47.4744C327.386 47.4744 327.667 47.5218 327.944 47.6165C328.221 47.7112 328.473 47.8651 328.7 48.0781C328.927 48.2888 329.109 48.5682 329.243 48.9162C329.378 49.2642 329.446 49.6927 329.446 50.2017V50.5568H325.241V49.8324H328.594C328.594 49.5246 328.532 49.25 328.409 49.0085C328.288 48.767 328.115 48.5765 327.89 48.4368C327.668 48.2971 327.405 48.2273 327.102 48.2273C326.768 48.2273 326.479 48.3101 326.236 48.4759C325.994 48.6392 325.808 48.8523 325.678 49.1151C325.548 49.3778 325.483 49.6596 325.483 49.9602V50.4432C325.483 50.8551 325.554 51.2043 325.696 51.4908C325.84 51.7749 326.04 51.9915 326.296 52.1406C326.552 52.2874 326.849 52.3608 327.187 52.3608C327.408 52.3608 327.606 52.33 327.784 52.2685C327.964 52.2045 328.119 52.1098 328.249 51.9844C328.379 51.8565 328.48 51.6979 328.551 51.5085L329.361 51.7358C329.275 52.0104 329.132 52.2519 328.931 52.4602C328.73 52.6662 328.481 52.8272 328.185 52.9432C327.889 53.0568 327.557 53.1136 327.187 53.1136ZM330.238 53V52.2188H330.437C330.6 52.2188 330.736 52.1868 330.845 52.1229C330.954 52.0566 331.042 51.9418 331.108 51.7784C331.176 51.6127 331.229 51.383 331.264 51.0895C331.302 50.7936 331.329 50.4171 331.346 49.9602L331.445 47.5455H335.082V53H334.243V48.3267H332.241L332.155 50.2727C332.136 50.7202 332.096 51.1143 332.035 51.4553C331.975 51.7938 331.884 52.0779 331.761 52.3075C331.64 52.5372 331.479 52.71 331.278 52.826C331.077 52.942 330.825 53 330.522 53H330.238ZM339.233 49.9318V50.7131H336.349V49.9318H339.233ZM337.06 47.5455V53H336.221V47.5455H337.06ZM340.909 53.1136C340.417 53.1136 339.984 52.9964 339.613 52.7621C339.243 52.5277 338.955 52.1998 338.746 51.7784C338.54 51.357 338.437 50.8646 338.437 50.3011C338.437 49.733 338.54 49.237 338.746 48.8132C338.955 48.3894 339.243 48.0604 339.613 47.826C339.984 47.5916 340.417 47.4744 340.909 47.4744C341.401 47.4744 341.832 47.5916 342.202 47.826C342.573 48.0604 342.862 48.3894 343.068 48.8132C343.276 49.237 343.381 49.733 343.381 50.3011C343.381 50.8646 343.276 51.357 343.068 51.7784C342.862 52.1998 342.573 52.5277 342.202 52.7621C341.832 52.9964 341.401 53.1136 340.909 53.1136ZM340.909 52.3608C341.283 52.3608 341.591 52.2649 341.832 52.0732C342.074 51.8814 342.252 51.6293 342.368 51.3168C342.484 51.0043 342.542 50.6657 342.542 50.3011C342.542 49.9366 342.484 49.5968 342.368 49.282C342.252 48.9671 342.074 48.7126 341.832 48.5185C341.591 48.3243 341.283 48.2273 340.909 48.2273C340.535 48.2273 340.227 48.3243 339.986 48.5185C339.744 48.7126 339.565 48.9671 339.449 49.282C339.333 49.5968 339.275 49.9366 339.275 50.3011C339.275 50.6657 339.333 51.0043 339.449 51.3168C339.565 51.6293 339.744 51.8814 339.986 52.0732C340.227 52.2649 340.535 52.3608 340.909 52.3608Z" fill="#1A3154"/>
<path d="M298.42 14.57L298.924 16.334L301.462 15.614V26H303.532V13.4H301.732L298.42 14.57ZM305.153 15.38H310.913L306.557 26H308.735L313.163 15.2V13.4H305.153V15.38ZM313.305 23.516C312.531 23.516 311.955 24.128 311.955 24.866C311.955 25.604 312.567 26.216 313.305 26.216C314.043 26.216 314.655 25.604 314.655 24.866C314.655 24.128 314.043 23.516 313.305 23.516ZM324.282 21.806V18.53H322.194V21.806H318.252L322.59 13.4H320.34L316.002 21.806V23.732H322.194V26H324.282V23.732H325.722V21.806H324.282ZM337.316 16.046C337.316 15.236 337.028 14.552 336.47 13.994C335.912 13.436 335.228 13.166 334.382 13.166C333.536 13.166 332.834 13.454 332.276 14.012C331.718 14.57 331.43 15.236 331.43 16.046C331.43 16.856 331.718 17.54 332.276 18.098C332.834 18.656 333.536 18.926 334.382 18.926C335.228 18.926 335.912 18.656 336.47 18.098C337.028 17.54 337.316 16.856 337.316 16.046ZM334.364 17.342C333.626 17.342 333.086 16.766 333.086 16.046C333.086 15.308 333.626 14.732 334.364 14.732C335.138 14.732 335.66 15.308 335.66 16.046C335.66 16.766 335.138 17.342 334.364 17.342ZM333.464 24.722L341.762 15.47L340.79 14.912L332.492 24.146L333.464 24.722ZM340.142 26.216C340.97 26.216 341.672 25.946 342.23 25.388C342.788 24.83 343.076 24.146 343.076 23.336C343.076 22.526 342.788 21.86 342.23 21.302C341.672 20.744 340.97 20.456 340.142 20.456C339.296 20.456 338.594 20.744 338.036 21.302C337.478 21.86 337.19 22.526 337.19 23.336C337.19 24.146 337.478 24.83 338.036 25.388C338.594 25.946 339.296 26.216 340.142 26.216ZM340.124 24.632C339.386 24.632 338.846 24.056 338.846 23.336C338.846 22.598 339.386 22.022 340.124 22.022C340.898 22.022 341.42 22.598 341.42 23.336C341.42 24.056 340.898 24.632 340.124 24.632Z" fill="#1A3154"/>
<path d="M7.31653 134.11V132.75C7.31653 132.646 7.29538 132.556 7.25306 132.479C7.21237 132.401 7.15052 132.341 7.06751 132.298C6.9845 132.256 6.88196 132.235 6.75989 132.235C6.64596 132.235 6.54586 132.254 6.4596 132.293C6.37497 132.333 6.30823 132.384 6.25941 132.447C6.2122 132.511 6.1886 132.579 6.1886 132.652H5.73694C5.73694 132.558 5.76136 132.464 5.81019 132.372C5.85901 132.279 5.929 132.195 6.02015 132.12C6.11292 132.044 6.2236 131.983 6.35218 131.939C6.48239 131.894 6.62724 131.871 6.78675 131.871C6.97881 131.871 7.14808 131.904 7.29456 131.969C7.44267 132.034 7.55823 132.132 7.64124 132.264C7.72588 132.394 7.76819 132.558 7.76819 132.755V133.985C7.76819 134.073 7.77552 134.167 7.79017 134.266C7.80644 134.365 7.83004 134.451 7.86097 134.522V134.562H7.38978C7.36699 134.509 7.34909 134.44 7.33607 134.354C7.32304 134.266 7.31653 134.185 7.31653 134.11ZM7.39466 132.96L7.39954 133.277H6.943C6.81442 133.277 6.69967 133.288 6.59876 133.309C6.49785 133.329 6.41321 133.359 6.34485 133.399C6.27649 133.44 6.22441 133.491 6.1886 133.553C6.1528 133.613 6.13489 133.684 6.13489 133.766C6.13489 133.849 6.15361 133.924 6.19105 133.993C6.22848 134.061 6.28463 134.116 6.3595 134.156C6.436 134.195 6.52959 134.215 6.64026 134.215C6.77861 134.215 6.90068 134.186 7.00648 134.127C7.11227 134.068 7.19609 133.997 7.25794 133.912C7.32142 133.827 7.3556 133.745 7.36048 133.666L7.55335 133.883C7.54196 133.951 7.51103 134.027 7.46058 134.11C7.41012 134.193 7.34258 134.273 7.25794 134.349C7.17493 134.424 7.07565 134.487 6.96009 134.537C6.84616 134.586 6.71758 134.61 6.57435 134.61C6.39531 134.61 6.23825 134.575 6.10316 134.505C5.96969 134.435 5.86552 134.342 5.79066 134.225C5.71741 134.106 5.68079 133.973 5.68079 133.827C5.68079 133.685 5.70846 133.561 5.7638 133.453C5.81914 133.344 5.89889 133.254 6.00306 133.182C6.10722 133.109 6.23255 133.054 6.37903 133.016C6.52552 132.979 6.68909 132.96 6.86976 132.96H7.39466ZM10.2389 131.92V132.293H8.90345V131.92H10.2389ZM8.96937 131.92V134.562H8.51771V131.92H8.96937ZM10.6393 131.92V134.562H10.1852V131.92H10.6393ZM11.816 132.428V135.577H11.3619V131.92H11.777L11.816 132.428ZM13.5958 133.219V133.27C13.5958 133.462 13.573 133.64 13.5275 133.805C13.4819 133.967 13.4152 134.109 13.3273 134.229C13.241 134.35 13.1344 134.444 13.0075 134.51C12.8805 134.577 12.7348 134.61 12.5704 134.61C12.4028 134.61 12.2547 134.583 12.1261 134.527C11.9975 134.472 11.8885 134.391 11.799 134.286C11.7094 134.18 11.6378 134.053 11.5841 133.905C11.532 133.757 11.4962 133.59 11.4767 133.404V133.131C11.4962 132.936 11.5328 132.761 11.5866 132.606C11.6403 132.451 11.7111 132.319 11.799 132.21C11.8885 132.1 11.9967 132.016 12.1237 131.959C12.2506 131.9 12.3971 131.871 12.5631 131.871C12.7291 131.871 12.8764 131.904 13.005 131.969C13.1336 132.032 13.2418 132.123 13.3297 132.242C13.4176 132.361 13.4835 132.503 13.5275 132.669C13.573 132.834 13.5958 133.017 13.5958 133.219ZM13.1417 133.27V133.219C13.1417 133.087 13.1279 132.963 13.1002 132.848C13.0726 132.73 13.0294 132.628 12.9708 132.54C12.9139 132.451 12.8406 132.381 12.7511 132.33C12.6616 132.278 12.555 132.252 12.4313 132.252C12.3173 132.252 12.2181 132.271 12.1334 132.311C12.0504 132.35 11.9796 132.403 11.921 132.469C11.8624 132.534 11.8144 132.609 11.777 132.694C11.7412 132.777 11.7143 132.863 11.6964 132.953V133.585C11.729 133.699 11.7745 133.806 11.8331 133.907C11.8917 134.007 11.9699 134.087 12.0675 134.149C12.1652 134.209 12.2881 134.239 12.4362 134.239C12.5582 134.239 12.6632 134.214 12.7511 134.164C12.8406 134.111 12.9139 134.041 12.9708 133.951C13.0294 133.862 13.0726 133.759 13.1002 133.644C13.1279 133.526 13.1417 133.402 13.1417 133.27Z" fill="#C4D0D9"/>
<path d="M63.7985 133.961L64.697 131.92H65.1315L63.9548 134.562H63.6423L62.4704 131.92H62.905L63.7985 133.961ZM62.7731 131.92V134.562H62.3215V131.92H62.7731ZM64.8093 134.562V131.92H65.2634V134.562H64.8093ZM67.5485 134.11V132.75C67.5485 132.646 67.5274 132.556 67.4851 132.479C67.4444 132.401 67.3825 132.341 67.2995 132.298C67.2165 132.256 67.114 132.235 66.9919 132.235C66.878 132.235 66.7779 132.254 66.6916 132.293C66.607 132.333 66.5402 132.384 66.4914 132.447C66.4442 132.511 66.4206 132.579 66.4206 132.652H65.9689C65.9689 132.558 65.9934 132.464 66.0422 132.372C66.091 132.279 66.161 132.195 66.2522 132.12C66.3449 132.044 66.4556 131.983 66.5842 131.939C66.7144 131.894 66.8592 131.871 67.0188 131.871C67.2108 131.871 67.3801 131.904 67.5266 131.969C67.6747 132.034 67.7902 132.132 67.8732 132.264C67.9579 132.394 68.0002 132.558 68.0002 132.755V133.985C68.0002 134.073 68.0075 134.167 68.0222 134.266C68.0384 134.365 68.062 134.451 68.093 134.522V134.562H67.6218C67.599 134.509 67.5811 134.44 67.5681 134.354C67.555 134.266 67.5485 134.185 67.5485 134.11ZM67.6267 132.96L67.6315 133.277H67.175C67.0464 133.277 66.9317 133.288 66.8308 133.309C66.7299 133.329 66.6452 133.359 66.5769 133.399C66.5085 133.44 66.4564 133.491 66.4206 133.553C66.3848 133.613 66.3669 133.684 66.3669 133.766C66.3669 133.849 66.3856 133.924 66.423 133.993C66.4605 134.061 66.5166 134.116 66.5915 134.156C66.668 134.195 66.7616 134.215 66.8723 134.215C67.0106 134.215 67.1327 134.186 67.2385 134.127C67.3443 134.068 67.4281 133.997 67.4899 133.912C67.5534 133.827 67.5876 133.745 67.5925 133.666L67.7854 133.883C67.774 133.951 67.743 134.027 67.6926 134.11C67.6421 134.193 67.5746 134.273 67.4899 134.349C67.4069 134.424 67.3077 134.487 67.1921 134.537C67.0782 134.586 66.9496 134.61 66.8064 134.61C66.6273 134.61 66.4703 134.575 66.3352 134.505C66.2017 134.435 66.0975 134.342 66.0227 134.225C65.9494 134.106 65.9128 133.973 65.9128 133.827C65.9128 133.685 65.9405 133.561 65.9958 133.453C66.0511 133.344 66.1309 133.254 66.2351 133.182C66.3392 133.109 66.4646 133.054 66.611 133.016C66.7575 132.979 66.9211 132.96 67.1018 132.96H67.6267ZM69.1989 133.846L70.4172 131.92H70.8713V134.562H70.4172V132.635L69.1989 134.562H68.7497V131.92H69.1989V133.846ZM70.1706 130.963H70.5368C70.5368 131.09 70.5075 131.203 70.4489 131.302C70.3903 131.4 70.3065 131.476 70.1975 131.532C70.0884 131.587 69.959 131.615 69.8093 131.615C69.583 131.615 69.404 131.555 69.2722 131.434C69.142 131.312 69.0769 131.155 69.0769 130.963H69.4431C69.4431 131.059 69.4707 131.144 69.5261 131.217C69.5814 131.29 69.6758 131.327 69.8093 131.327C69.9395 131.327 70.0323 131.29 70.0876 131.217C70.1429 131.144 70.1706 131.059 70.1706 130.963Z" fill="#C4D0D9"/>
<path d="M119.472 133.846L120.691 131.92H121.145V134.562H120.691V132.635L119.472 134.562H119.023V131.92H119.472V133.846ZM123.374 133.041V133.409H121.97V133.041H123.374ZM122.363 131.92V134.562H121.911V131.92H122.363ZM122.988 133.27V133.214C122.988 133.023 123.016 132.847 123.071 132.684C123.126 132.52 123.206 132.377 123.31 132.257C123.416 132.135 123.542 132.04 123.689 131.974C123.837 131.905 124.003 131.871 124.187 131.871C124.374 131.871 124.542 131.905 124.69 131.974C124.838 132.04 124.964 132.135 125.068 132.257C125.174 132.377 125.254 132.52 125.31 132.684C125.365 132.847 125.393 133.023 125.393 133.214V133.27C125.393 133.46 125.365 133.637 125.31 133.8C125.254 133.963 125.175 134.105 125.071 134.227C124.966 134.347 124.84 134.442 124.692 134.51C124.544 134.577 124.377 134.61 124.192 134.61C124.006 134.61 123.839 134.577 123.691 134.51C123.543 134.442 123.416 134.347 123.31 134.227C123.206 134.105 123.126 133.963 123.071 133.8C123.016 133.637 122.988 133.46 122.988 133.27ZM123.442 133.214V133.27C123.442 133.402 123.458 133.526 123.489 133.644C123.519 133.759 123.566 133.862 123.628 133.951C123.691 134.041 123.769 134.111 123.862 134.164C123.956 134.214 124.066 134.239 124.192 134.239C124.317 134.239 124.426 134.214 124.519 134.164C124.613 134.111 124.691 134.041 124.753 133.951C124.815 133.862 124.861 133.759 124.892 133.644C124.925 133.526 124.941 133.402 124.941 133.27V133.214C124.941 133.084 124.925 132.961 124.892 132.845C124.861 132.728 124.814 132.625 124.751 132.535C124.689 132.444 124.611 132.372 124.516 132.32C124.422 132.268 124.312 132.242 124.187 132.242C124.063 132.242 123.955 132.268 123.862 132.32C123.769 132.372 123.691 132.444 123.628 132.535C123.566 132.625 123.519 132.728 123.489 132.845C123.458 132.961 123.442 133.084 123.442 133.214ZM127.744 133.065V133.431H126.347V133.065H127.744ZM126.443 131.92V134.562H125.991V131.92H126.443ZM128.11 131.92V134.562H127.656V131.92H128.11Z" fill="#C4D0D9"/>
<path d="M176.46 133.846L177.678 131.92H178.132V134.562H177.678V132.635L176.46 134.562H176.01V131.92H176.46V133.846ZM180.361 133.041V133.409H178.957V133.041H180.361ZM179.35 131.92V134.562H178.899V131.92H179.35ZM179.975 133.27V133.214C179.975 133.023 180.003 132.847 180.058 132.684C180.114 132.52 180.193 132.377 180.298 132.257C180.403 132.135 180.53 132.04 180.676 131.974C180.824 131.905 180.99 131.871 181.174 131.871C181.361 131.871 181.529 131.905 181.677 131.974C181.825 132.04 181.951 132.135 182.055 132.257C182.161 132.377 182.242 132.52 182.297 132.684C182.352 132.847 182.38 133.023 182.38 133.214V133.27C182.38 133.46 182.352 133.637 182.297 133.8C182.242 133.963 182.162 134.105 182.058 134.227C181.954 134.347 181.828 134.442 181.679 134.51C181.531 134.577 181.364 134.61 181.179 134.61C180.993 134.61 180.827 134.577 180.678 134.51C180.53 134.442 180.403 134.347 180.298 134.227C180.193 134.105 180.114 133.963 180.058 133.8C180.003 133.637 179.975 133.46 179.975 133.27ZM180.429 133.214V133.27C180.429 133.402 180.445 133.526 180.476 133.644C180.507 133.759 180.553 133.862 180.615 133.951C180.678 134.041 180.757 134.111 180.849 134.164C180.944 134.214 181.054 134.239 181.179 134.239C181.304 134.239 181.413 134.214 181.506 134.164C181.6 134.111 181.679 134.041 181.74 133.951C181.802 133.862 181.849 133.759 181.88 133.644C181.912 133.526 181.928 133.402 181.928 133.27V133.214C181.928 133.084 181.912 132.961 181.88 132.845C181.849 132.728 181.802 132.625 181.738 132.535C181.676 132.444 181.598 132.372 181.504 132.32C181.409 132.268 181.299 132.242 181.174 132.242C181.05 132.242 180.942 132.268 180.849 132.32C180.757 132.372 180.678 132.444 180.615 132.535C180.553 132.625 180.507 132.728 180.476 132.845C180.445 132.961 180.429 133.084 180.429 133.214ZM184.67 131.92V132.293H183.393V131.92H184.67ZM185.068 131.92V134.562H184.616V131.92H185.068ZM183.283 131.92H183.738L183.669 133.194C183.658 133.391 183.639 133.565 183.613 133.717C183.589 133.867 183.554 133.995 183.51 134.103C183.468 134.21 183.414 134.298 183.349 134.366C183.286 134.433 183.209 134.483 183.12 134.515C183.03 134.546 182.927 134.562 182.81 134.562H182.668V134.164L182.766 134.156C182.836 134.151 182.895 134.135 182.944 134.107C182.995 134.08 183.037 134.039 183.071 133.985C183.105 133.93 183.133 133.859 183.154 133.773C183.177 133.687 183.194 133.584 183.205 133.465C183.218 133.347 183.228 133.208 183.235 133.05L183.283 131.92Z" fill="#C4D0D9"/>
<path d="M235.574 134.11V132.75C235.574 132.646 235.553 132.556 235.51 132.479C235.47 132.401 235.408 132.341 235.325 132.298C235.242 132.256 235.139 132.235 235.017 132.235C234.903 132.235 234.803 132.254 234.717 132.293C234.632 132.333 234.566 132.384 234.517 132.447C234.469 132.511 234.446 132.579 234.446 132.652H233.994C233.994 132.558 234.019 132.464 234.067 132.372C234.116 132.279 234.186 132.195 234.277 132.12C234.37 132.044 234.481 131.983 234.609 131.939C234.74 131.894 234.885 131.871 235.044 131.871C235.236 131.871 235.405 131.904 235.552 131.969C235.7 132.034 235.816 132.132 235.899 132.264C235.983 132.394 236.025 132.558 236.025 132.755V133.985C236.025 134.073 236.033 134.167 236.047 134.266C236.064 134.365 236.087 134.451 236.118 134.522V134.562H235.647C235.624 134.509 235.606 134.44 235.593 134.354C235.58 134.266 235.574 134.185 235.574 134.11ZM235.652 132.96L235.657 133.277H235.2C235.072 133.277 234.957 133.288 234.856 133.309C234.755 133.329 234.671 133.359 234.602 133.399C234.534 133.44 234.482 133.491 234.446 133.553C234.41 133.613 234.392 133.684 234.392 133.766C234.392 133.849 234.411 133.924 234.448 133.993C234.486 134.061 234.542 134.116 234.617 134.156C234.693 134.195 234.787 134.215 234.898 134.215C235.036 134.215 235.158 134.186 235.264 134.127C235.37 134.068 235.453 133.997 235.515 133.912C235.579 133.827 235.613 133.745 235.618 133.666L235.811 133.883C235.799 133.951 235.768 134.027 235.718 134.11C235.667 134.193 235.6 134.273 235.515 134.349C235.432 134.424 235.333 134.487 235.217 134.537C235.103 134.586 234.975 134.61 234.832 134.61C234.653 134.61 234.496 134.575 234.36 134.505C234.227 134.435 234.123 134.342 234.048 134.225C233.975 134.106 233.938 133.973 233.938 133.827C233.938 133.685 233.966 133.561 234.021 133.453C234.076 133.344 234.156 133.254 234.26 133.182C234.365 133.109 234.49 133.054 234.636 133.016C234.783 132.979 234.946 132.96 235.127 132.96H235.652ZM237.976 133.399H237.109L237.105 133.038H237.813C237.953 133.038 238.069 133.024 238.162 132.997C238.256 132.969 238.327 132.927 238.374 132.872C238.421 132.817 238.445 132.748 238.445 132.667C238.445 132.604 238.431 132.548 238.403 132.501C238.377 132.452 238.337 132.412 238.284 132.381C238.23 132.349 238.163 132.325 238.084 132.311C238.005 132.294 237.914 132.286 237.808 132.286H237.229V134.562H236.777V131.92H237.808C237.975 131.92 238.126 131.935 238.259 131.964C238.394 131.993 238.509 132.038 238.604 132.098C238.7 132.157 238.773 132.232 238.823 132.323C238.874 132.414 238.899 132.521 238.899 132.645C238.899 132.725 238.883 132.8 238.85 132.872C238.818 132.944 238.77 133.007 238.706 133.062C238.643 133.118 238.565 133.163 238.472 133.199C238.379 133.233 238.272 133.255 238.152 133.265L237.976 133.399ZM237.976 134.562H236.946L237.171 134.195H237.976C238.101 134.195 238.206 134.18 238.289 134.149C238.372 134.116 238.434 134.071 238.474 134.012C238.517 133.952 238.538 133.88 238.538 133.797C238.538 133.714 238.517 133.644 238.474 133.585C238.434 133.525 238.372 133.479 238.289 133.448C238.206 133.416 238.101 133.399 237.976 133.399H237.29L237.295 133.038H238.152L238.316 133.175C238.46 133.186 238.583 133.222 238.684 133.282C238.785 133.342 238.862 133.419 238.914 133.512C238.966 133.603 238.992 133.702 238.992 133.81C238.992 133.933 238.968 134.042 238.921 134.137C238.875 134.231 238.809 134.31 238.721 134.374C238.633 134.435 238.526 134.483 238.401 134.515C238.276 134.546 238.134 134.562 237.976 134.562ZM241.304 131.92V132.293H240.083V134.562H239.631V131.92H241.304Z" fill="#C4D0D9"/>
<path d="M291.809 134.239C291.916 134.239 292.015 134.217 292.107 134.173C292.198 134.129 292.273 134.069 292.331 133.993C292.39 133.915 292.423 133.826 292.431 133.727H292.861C292.853 133.883 292.8 134.028 292.702 134.164C292.606 134.297 292.48 134.405 292.324 134.488C292.168 134.57 291.996 134.61 291.809 134.61C291.61 134.61 291.437 134.575 291.289 134.505C291.142 134.435 291.02 134.339 290.922 134.217C290.826 134.095 290.754 133.955 290.705 133.797C290.658 133.638 290.634 133.469 290.634 133.292V133.189C290.634 133.012 290.658 132.844 290.705 132.687C290.754 132.527 290.826 132.386 290.922 132.264C291.02 132.142 291.142 132.046 291.289 131.976C291.437 131.906 291.61 131.871 291.809 131.871C292.015 131.871 292.196 131.913 292.351 131.998C292.505 132.081 292.627 132.195 292.714 132.34C292.804 132.483 292.853 132.646 292.861 132.828H292.431C292.423 132.719 292.392 132.621 292.339 132.533C292.286 132.445 292.215 132.375 292.124 132.323C292.034 132.269 291.929 132.242 291.809 132.242C291.67 132.242 291.554 132.27 291.46 132.325C291.367 132.379 291.293 132.452 291.237 132.545C291.184 132.636 291.145 132.738 291.12 132.85C291.097 132.961 291.086 133.074 291.086 133.189V133.292C291.086 133.408 291.097 133.521 291.12 133.634C291.143 133.746 291.181 133.848 291.235 133.939C291.29 134.03 291.364 134.103 291.457 134.159C291.552 134.212 291.669 134.239 291.809 134.239ZM294.465 134.61C294.281 134.61 294.114 134.579 293.964 134.518C293.816 134.454 293.689 134.365 293.581 134.251C293.475 134.138 293.394 134.002 293.337 133.846C293.28 133.69 293.252 133.519 293.252 133.333V133.231C293.252 133.016 293.283 132.825 293.347 132.657C293.41 132.488 293.497 132.345 293.606 132.228C293.715 132.11 293.838 132.022 293.977 131.961C294.115 131.901 294.258 131.871 294.406 131.871C294.595 131.871 294.758 131.904 294.895 131.969C295.033 132.034 295.146 132.125 295.234 132.242C295.322 132.358 295.387 132.494 295.429 132.652C295.472 132.809 295.493 132.979 295.493 133.165V133.368H293.52V132.999H295.041V132.965C295.035 132.848 295.01 132.734 294.968 132.623C294.927 132.512 294.862 132.421 294.773 132.35C294.683 132.278 294.561 132.242 294.406 132.242C294.304 132.242 294.209 132.264 294.123 132.308C294.037 132.35 293.963 132.414 293.901 132.499C293.839 132.583 293.791 132.687 293.757 132.809C293.723 132.931 293.706 133.071 293.706 133.231V133.333C293.706 133.459 293.723 133.577 293.757 133.688C293.793 133.797 293.844 133.893 293.911 133.976C293.979 134.059 294.061 134.124 294.157 134.171C294.255 134.218 294.366 134.242 294.489 134.242C294.649 134.242 294.784 134.209 294.895 134.144C295.005 134.079 295.102 133.992 295.185 133.883L295.459 134.1C295.402 134.186 295.329 134.269 295.241 134.347C295.153 134.425 295.045 134.488 294.917 134.537C294.79 134.586 294.639 134.61 294.465 134.61ZM297.812 133.065V133.431H296.416V133.065H297.812ZM296.511 131.92V134.562H296.059V131.92H296.511ZM298.178 131.92V134.562H297.724V131.92H298.178Z" fill="#C4D0D9"/>
<path d="M339.188 133.27V133.214C339.188 133.023 339.215 132.847 339.271 132.684C339.326 132.52 339.406 132.377 339.51 132.257C339.614 132.135 339.74 132.04 339.888 131.974C340.036 131.905 340.202 131.871 340.386 131.871C340.572 131.871 340.739 131.905 340.887 131.974C341.037 132.04 341.163 132.135 341.268 132.257C341.373 132.377 341.454 132.52 341.509 132.684C341.565 132.847 341.592 133.023 341.592 133.214V133.27C341.592 133.46 341.565 133.637 341.509 133.8C341.454 133.963 341.373 134.105 341.268 134.227C341.163 134.347 341.037 134.442 340.889 134.51C340.743 134.577 340.577 134.61 340.391 134.61C340.206 134.61 340.039 134.577 339.891 134.51C339.743 134.442 339.616 134.347 339.51 134.227C339.406 134.105 339.326 133.963 339.271 133.8C339.215 133.637 339.188 133.46 339.188 133.27ZM339.639 133.214V133.27C339.639 133.402 339.655 133.526 339.686 133.644C339.717 133.759 339.763 133.862 339.825 133.951C339.888 134.041 339.967 134.111 340.062 134.164C340.156 134.214 340.266 134.239 340.391 134.239C340.515 134.239 340.623 134.214 340.716 134.164C340.81 134.111 340.888 134.041 340.95 133.951C341.012 133.862 341.059 133.759 341.089 133.644C341.122 133.526 341.138 133.402 341.138 133.27V133.214C341.138 133.084 341.122 132.961 341.089 132.845C341.059 132.728 341.011 132.625 340.948 132.535C340.886 132.444 340.808 132.372 340.713 132.32C340.621 132.268 340.512 132.242 340.386 132.242C340.263 132.242 340.154 132.268 340.059 132.32C339.966 132.372 339.888 132.444 339.825 132.535C339.763 132.625 339.717 132.728 339.686 132.845C339.655 132.961 339.639 133.084 339.639 133.214ZM342.649 131.92V134.562H342.198V131.92H342.649ZM344.383 131.92L343.13 133.434H342.498L342.43 133.038H342.947L343.834 131.92H344.383ZM343.897 134.562L342.925 133.365L343.216 133.038L344.471 134.562H343.897ZM345.941 131.92V134.562H345.486V131.92H345.941ZM346.827 131.92V132.286H344.617V131.92H346.827Z" fill="#C4D0D9"/>
<path d="M0 106.429C0 106.429 35.2 106.429 58.6666 106.429C82.1333 106.429 93.8666 106.429 117.333 106.429C140.8 106.429 152.533 63 176 63C199.467 63 211.2 122.714 234.666 122.714C258.133 122.714 269.866 106.429 293.333 106.429C316.8 106.429 352 106.429 352 106.429" stroke="#AEBDCA"/>
<path d="M0 106.429C0 106.429 35.2 106.429 58.6666 106.429C82.1333 106.429 93.8666 106.429 117.333 106.429C140.8 106.429 152.533 63 176 63C199.467 63 211.2 122.714 234.666 122.714C258.133 122.714 269.866 106.429 293.333 106.429C316.8 106.429 352 106.429 352 106.429V139C352 139 316.8 139 293.333 139C269.866 139 258.133 139 234.666 139C211.2 139 199.467 139 176 139C152.533 139 140.8 139 117.333 139C93.8666 139 82.1333 139 58.6666 139C35.2 139 0 139 0 139V106.429Z" fill="url(#paint0_linear_931_8615)"/>
<defs>
<linearGradient id="paint0_linear_931_8615" x1="176" y1="63" x2="176" y2="139" gradientUnits="userSpaceOnUse">
<stop stop-color="#E1E7EB"/>
<stop offset="0.671133" stop-color="white" stop-opacity="0"/>
</linearGradient>
</defs>
</svg>
