<svg width="1096" height="206" viewBox="0 0 1096 206" fill="none" xmlns="http://www.w3.org/2000/svg">
<rect width="1096" height="206" rx="8" fill="white"/>
<path d="M20.44 34.68V30.84H28V28.2H17.68V45H24.04C25.6 45 26.872 44.52 27.904 43.536C28.936 42.552 29.44 41.328 29.44 39.84C29.44 38.352 28.936 37.128 27.904 36.144C26.872 35.16 25.6 34.68 24.04 34.68H20.44ZM20.44 42.408V37.272H24.04C25.552 37.272 26.68 38.304 26.68 39.84C26.68 41.376 25.552 42.408 24.04 42.408H20.44ZM43.1431 40.104C43.2151 39.648 43.2391 39.288 43.2391 39.024C43.2391 37.272 42.6631 35.76 41.5351 34.536C40.4071 33.312 38.9671 32.688 37.2151 32.688C35.3671 32.688 33.8311 33.288 32.6551 34.512C31.4791 35.712 30.8791 37.2 30.8791 39C30.8791 40.824 31.4791 42.336 32.6791 43.536C33.8791 44.712 35.4631 45.312 37.4071 45.312C39.7351 45.312 41.4871 44.448 42.6631 42.696L40.5271 41.448C39.8311 42.432 38.7991 42.936 37.4311 42.936C35.4391 42.936 33.9751 41.928 33.5911 40.104H43.1431ZM33.5671 37.992C33.9271 36.168 35.2711 35.04 37.1911 35.04C38.8951 35.04 40.2631 36.048 40.6231 37.992H33.5671ZM52.0294 38.856C52.9654 38.28 53.4214 37.392 53.4214 36.192C53.4214 35.208 53.0134 34.392 52.2214 33.72C51.4294 33.024 50.3734 32.688 49.0294 32.688C46.8934 32.688 45.3574 33.576 44.4694 35.376L46.5814 36.576C47.0374 35.52 47.8774 34.992 49.0774 34.992C50.2054 34.992 50.9254 35.568 50.9254 36.408C50.9254 37.272 50.3014 37.8 49.2454 37.8H47.9734V40.08H49.6774C50.7574 40.08 51.4054 40.608 51.4054 41.448C51.4054 42.384 50.5894 42.984 49.2454 42.984C47.8054 42.984 46.8694 42.384 46.4374 41.184L44.3254 42.432C45.1654 44.352 46.7974 45.312 49.2214 45.312C52.1974 45.312 53.9494 43.752 53.9494 41.712C53.9494 40.392 53.3014 39.432 52.0294 38.856ZM61.7307 45.312C63.5067 45.312 64.9947 44.712 66.2187 43.488C67.4427 42.264 68.0667 40.776 68.0667 39C68.0667 37.224 67.4427 35.736 66.2187 34.512C64.9947 33.288 63.5067 32.688 61.7307 32.688C59.9787 32.688 58.4667 33.288 57.2427 34.512C56.0187 35.736 55.3947 37.224 55.3947 39C55.3947 40.776 56.0187 42.264 57.2427 43.488C58.4667 44.712 59.9787 45.312 61.7307 45.312ZM59.0667 41.712C58.3467 40.992 57.9867 40.08 57.9867 39C57.9867 37.92 58.3467 37.008 59.0667 36.288C59.7867 35.568 60.6747 35.208 61.7307 35.208C62.7867 35.208 63.6747 35.568 64.3947 36.288C65.1147 37.008 65.4747 37.92 65.4747 39C65.4747 40.08 65.1147 40.992 64.3947 41.712C63.6747 42.432 62.7867 42.792 61.7307 42.792C60.6747 42.792 59.7867 42.432 59.0667 41.712ZM70.4104 33V45H73.0024V35.448H78.4984V45H81.0904V33H70.4104ZM93.6019 34.704C92.6179 33.36 91.2259 32.688 89.4019 32.688C87.7459 32.688 86.3539 33.288 85.1779 34.512C84.0019 35.736 83.4259 37.224 83.4259 39C83.4259 40.752 84.0019 42.264 85.1779 43.488C86.3539 44.712 87.7459 45.312 89.4019 45.312C91.2259 45.312 92.6179 44.64 93.6019 43.272V45H96.1939V33H93.6019V34.704ZM87.0979 41.76C86.3779 41.016 86.0179 40.104 86.0179 39C86.0179 37.896 86.3779 36.984 87.0979 36.264C87.8179 35.52 88.7299 35.16 89.8099 35.16C90.8899 35.16 91.8019 35.52 92.5219 36.264C93.2419 36.984 93.6019 37.896 93.6019 39C93.6019 40.104 93.2419 41.016 92.5219 41.76C91.8019 42.48 90.8899 42.84 89.8099 42.84C88.7299 42.84 87.8179 42.48 87.0979 41.76ZM104.879 45.312C107.207 45.312 109.247 44.112 110.279 42.192L108.047 40.92C107.471 42.048 106.271 42.768 104.855 42.768C103.799 42.768 102.911 42.408 102.191 41.688C101.495 40.968 101.135 40.08 101.135 39C101.135 37.92 101.495 37.032 102.191 36.312C102.911 35.592 103.799 35.232 104.855 35.232C106.295 35.232 107.447 35.928 107.999 37.08L110.231 35.784C109.271 33.888 107.207 32.688 104.879 32.688C103.079 32.688 101.567 33.288 100.343 34.512C99.1431 35.712 98.5431 37.2 98.5431 39C98.5431 40.776 99.1431 42.264 100.343 43.488C101.567 44.712 103.079 45.312 104.879 45.312ZM110.763 33V35.496H114.699V45H117.291V35.496H121.203V33H110.763ZM131.045 37.776H125.549V33H122.957V45H125.549V40.224H131.045V45H133.637V33H131.045V37.776ZM142.309 45.312C144.085 45.312 145.573 44.712 146.797 43.488C148.021 42.264 148.645 40.776 148.645 39C148.645 37.224 148.021 35.736 146.797 34.512C145.573 33.288 144.085 32.688 142.309 32.688C140.557 32.688 139.045 33.288 137.821 34.512C136.597 35.736 135.973 37.224 135.973 39C135.973 40.776 136.597 42.264 137.821 43.488C139.045 44.712 140.557 45.312 142.309 45.312ZM139.645 41.712C138.925 40.992 138.565 40.08 138.565 39C138.565 37.92 138.925 37.008 139.645 36.288C140.365 35.568 141.253 35.208 142.309 35.208C143.365 35.208 144.253 35.568 144.973 36.288C145.693 37.008 146.053 37.92 146.053 39C146.053 40.08 145.693 40.992 144.973 41.712C144.253 42.432 143.365 42.792 142.309 42.792C141.253 42.792 140.365 42.432 139.645 41.712ZM156.653 45.312C158.981 45.312 161.021 44.112 162.053 42.192L159.821 40.92C159.245 42.048 158.045 42.768 156.629 42.768C155.573 42.768 154.685 42.408 153.965 41.688C153.269 40.968 152.909 40.08 152.909 39C152.909 37.92 153.269 37.032 153.965 36.312C154.685 35.592 155.573 35.232 156.629 35.232C158.069 35.232 159.221 35.928 159.773 37.08L162.005 35.784C161.045 33.888 158.981 32.688 156.653 32.688C154.853 32.688 153.341 33.288 152.117 34.512C150.917 35.712 150.317 37.2 150.317 39C150.317 40.776 150.917 42.264 152.117 43.488C153.341 44.712 154.853 45.312 156.653 45.312ZM162.537 33V35.496H166.473V45H169.065V35.496H172.977V33H162.537ZM177.323 37.08V33H174.731V45H179.963C181.235 45 182.291 44.64 183.107 43.896C183.923 43.152 184.331 42.216 184.331 41.04C184.331 39.864 183.923 38.904 183.107 38.184C182.291 37.44 181.235 37.08 179.963 37.08H177.323ZM177.323 42.672V39.408H179.987C181.019 39.408 181.787 40.056 181.787 41.04C181.787 42 181.019 42.672 179.987 42.672H177.323Z" fill="#164368"/>
<line x1="17" y1="59" x2="1079" y2="59" stroke="#80D1BE" stroke-width="2" stroke-linecap="round"/>
<path d="M24.484 85.6V94H23.608V86.368H18.292V94H17.416V85.6H24.484ZM29.2863 87.64C30.1103 87.64 30.7423 87.848 31.1823 88.264C31.6223 88.672 31.8423 89.28 31.8423 90.088V94H31.0263V93.016C30.8343 93.344 30.5503 93.6 30.1743 93.784C29.8063 93.968 29.3663 94.06 28.8543 94.06C28.1503 94.06 27.5903 93.892 27.1743 93.556C26.7583 93.22 26.5503 92.776 26.5503 92.224C26.5503 91.688 26.7423 91.256 27.1263 90.928C27.5183 90.6 28.1383 90.436 28.9863 90.436H30.9903V90.052C30.9903 89.508 30.8383 89.096 30.5343 88.816C30.2303 88.528 29.7863 88.384 29.2023 88.384C28.8023 88.384 28.4183 88.452 28.0503 88.588C27.6823 88.716 27.3663 88.896 27.1023 89.128L26.7183 88.492C27.0383 88.22 27.4223 88.012 27.8703 87.868C28.3183 87.716 28.7903 87.64 29.2863 87.64ZM28.9863 93.388C29.4663 93.388 29.8783 93.28 30.2223 93.064C30.5663 92.84 30.8223 92.52 30.9903 92.104V91.072H29.0103C27.9303 91.072 27.3903 91.448 27.3903 92.2C27.3903 92.568 27.5303 92.86 27.8103 93.076C28.0903 93.284 28.4823 93.388 28.9863 93.388ZM37.3624 87.64C37.9544 87.64 38.4904 87.776 38.9704 88.048C39.4504 88.312 39.8264 88.688 40.0984 89.176C40.3704 89.664 40.5064 90.22 40.5064 90.844C40.5064 91.476 40.3704 92.036 40.0984 92.524C39.8264 93.012 39.4504 93.392 38.9704 93.664C38.4984 93.928 37.9624 94.06 37.3624 94.06C36.8504 94.06 36.3864 93.956 35.9704 93.748C35.5624 93.532 35.2264 93.22 34.9624 92.812V96.328H34.1104V87.688H34.9264V88.936C35.1824 88.52 35.5184 88.2 35.9344 87.976C36.3584 87.752 36.8344 87.64 37.3624 87.64ZM37.3024 93.304C37.7424 93.304 38.1424 93.204 38.5024 93.004C38.8624 92.796 39.1424 92.504 39.3424 92.128C39.5504 91.752 39.6544 91.324 39.6544 90.844C39.6544 90.364 39.5504 89.94 39.3424 89.572C39.1424 89.196 38.8624 88.904 38.5024 88.696C38.1424 88.488 37.7424 88.384 37.3024 88.384C36.8544 88.384 36.4504 88.488 36.0904 88.696C35.7384 88.904 35.4584 89.196 35.2504 89.572C35.0504 89.94 34.9504 90.364 34.9504 90.844C34.9504 91.324 35.0504 91.752 35.2504 92.128C35.4584 92.504 35.7384 92.796 36.0904 93.004C36.4504 93.204 36.8544 93.304 37.3024 93.304ZM44.941 94.06C44.333 94.06 43.785 93.924 43.297 93.652C42.809 93.372 42.425 92.988 42.145 92.5C41.865 92.012 41.725 91.46 41.725 90.844C41.725 90.228 41.865 89.676 42.145 89.188C42.425 88.7 42.809 88.32 43.297 88.048C43.785 87.776 44.333 87.64 44.941 87.64C45.549 87.64 46.097 87.776 46.585 88.048C47.073 88.32 47.453 88.7 47.725 89.188C48.005 89.676 48.145 90.228 48.145 90.844C48.145 91.46 48.005 92.012 47.725 92.5C47.453 92.988 47.073 93.372 46.585 93.652C46.097 93.924 45.549 94.06 44.941 94.06ZM44.941 93.304C45.389 93.304 45.789 93.204 46.141 93.004C46.501 92.796 46.781 92.504 46.981 92.128C47.181 91.752 47.281 91.324 47.281 90.844C47.281 90.364 47.181 89.936 46.981 89.56C46.781 89.184 46.501 88.896 46.141 88.696C45.789 88.488 45.389 88.384 44.941 88.384C44.493 88.384 44.089 88.488 43.729 88.696C43.377 88.896 43.097 89.184 42.889 89.56C42.689 89.936 42.589 90.364 42.589 90.844C42.589 91.324 42.689 91.752 42.889 92.128C43.097 92.504 43.377 92.796 43.729 93.004C44.089 93.204 44.493 93.304 44.941 93.304ZM55.0908 87.688V94H54.2388V88.444H51.2148L51.1308 90.004C51.0668 91.316 50.9148 92.324 50.6748 93.028C50.4348 93.732 50.0068 94.084 49.3908 94.084C49.2228 94.084 49.0188 94.052 48.7788 93.988L48.8388 93.256C48.9828 93.288 49.0828 93.304 49.1388 93.304C49.4668 93.304 49.7148 93.152 49.8828 92.848C50.0508 92.544 50.1628 92.168 50.2188 91.72C50.2747 91.272 50.3228 90.68 50.3628 89.944L50.4708 87.688H55.0908ZM60.2248 89.92C61.0168 89.928 61.6168 90.104 62.0248 90.448C62.4408 90.792 62.6488 91.288 62.6488 91.936C62.6488 92.608 62.4248 93.124 61.9768 93.484C61.5368 93.844 60.8968 94.02 60.0568 94.012L57.5128 94V87.688H58.3648V89.896L60.2248 89.92ZM60.0088 93.364C60.5928 93.372 61.0328 93.256 61.3288 93.016C61.6328 92.768 61.7848 92.408 61.7848 91.936C61.7848 91.472 61.6368 91.128 61.3408 90.904C61.0448 90.68 60.6008 90.564 60.0088 90.556L58.3648 90.532V93.34L60.0088 93.364Z" fill="#1A3154"/>
<path d="M33.416 117.6H34.292V124.56L39.668 117.6H40.472V126H39.596V119.052L34.22 126H33.416V117.6ZM47.1226 122.736C47.9786 122.936 48.4066 123.452 48.4066 124.284C48.4066 124.836 48.2026 125.26 47.7946 125.556C47.3866 125.852 46.7786 126 45.9706 126H43.1026V119.688H45.8866C46.6066 119.688 47.1706 119.828 47.5786 120.108C47.9866 120.388 48.1906 120.788 48.1906 121.308C48.1906 121.652 48.0946 121.948 47.9026 122.196C47.7186 122.436 47.4586 122.616 47.1226 122.736ZM43.9306 122.496H45.8266C46.3146 122.496 46.6866 122.404 46.9426 122.22C47.2066 122.036 47.3386 121.768 47.3386 121.416C47.3386 121.064 47.2066 120.8 46.9426 120.624C46.6866 120.448 46.3146 120.36 45.8266 120.36H43.9306V122.496ZM45.9346 125.328C46.4786 125.328 46.8866 125.24 47.1586 125.064C47.4306 124.888 47.5666 124.612 47.5666 124.236C47.5666 123.86 47.4426 123.584 47.1946 123.408C46.9466 123.224 46.5546 123.132 46.0186 123.132H43.9306V125.328H45.9346ZM52.5754 119.64C53.3994 119.64 54.0314 119.848 54.4714 120.264C54.9114 120.672 55.1314 121.28 55.1314 122.088V126H54.3154V125.016C54.1234 125.344 53.8394 125.6 53.4634 125.784C53.0954 125.968 52.6554 126.06 52.1434 126.06C51.4394 126.06 50.8794 125.892 50.4634 125.556C50.0474 125.22 49.8394 124.776 49.8394 124.224C49.8394 123.688 50.0314 123.256 50.4154 122.928C50.8074 122.6 51.4274 122.436 52.2754 122.436H54.2794V122.052C54.2794 121.508 54.1274 121.096 53.8234 120.816C53.5194 120.528 53.0754 120.384 52.4914 120.384C52.0914 120.384 51.7074 120.452 51.3394 120.588C50.9714 120.716 50.6554 120.896 50.3914 121.128L50.0074 120.492C50.3274 120.22 50.7114 120.012 51.1594 119.868C51.6074 119.716 52.0794 119.64 52.5754 119.64ZM52.2754 125.388C52.7554 125.388 53.1674 125.28 53.5114 125.064C53.8554 124.84 54.1114 124.52 54.2794 124.104V123.072H52.2994C51.2194 123.072 50.6794 123.448 50.6794 124.2C50.6794 124.568 50.8194 124.86 51.0994 125.076C51.3794 125.284 51.7714 125.388 52.2754 125.388ZM57.3995 119.688H58.2515V122.484H62.2235V119.688H63.0755V126H62.2235V123.216H58.2515V126H57.3995V119.688ZM68.1012 126.06C67.4932 126.06 66.9452 125.924 66.4572 125.652C65.9692 125.372 65.5852 124.988 65.3052 124.5C65.0252 124.012 64.8852 123.46 64.8852 122.844C64.8852 122.228 65.0252 121.676 65.3052 121.188C65.5852 120.7 65.9692 120.32 66.4572 120.048C66.9452 119.776 67.4932 119.64 68.1012 119.64C68.7092 119.64 69.2572 119.776 69.7452 120.048C70.2332 120.32 70.6132 120.7 70.8852 121.188C71.1652 121.676 71.3052 122.228 71.3052 122.844C71.3052 123.46 71.1652 124.012 70.8852 124.5C70.6132 124.988 70.2332 125.372 69.7452 125.652C69.2572 125.924 68.7092 126.06 68.1012 126.06ZM68.1012 125.304C68.5492 125.304 68.9492 125.204 69.3012 125.004C69.6612 124.796 69.9412 124.504 70.1412 124.128C70.3412 123.752 70.4412 123.324 70.4412 122.844C70.4412 122.364 70.3412 121.936 70.1412 121.56C69.9412 121.184 69.6612 120.896 69.3012 120.696C68.9492 120.488 68.5492 120.384 68.1012 120.384C67.6532 120.384 67.2492 120.488 66.8892 120.696C66.5372 120.896 66.2572 121.184 66.0492 121.56C65.8492 121.936 65.7492 122.364 65.7492 122.844C65.7492 123.324 65.8492 123.752 66.0492 124.128C66.2572 124.504 66.5372 124.796 66.8892 125.004C67.2492 125.204 67.6532 125.304 68.1012 125.304ZM77.1461 122.736C78.0021 122.936 78.4301 123.452 78.4301 124.284C78.4301 124.836 78.2261 125.26 77.8181 125.556C77.4101 125.852 76.8021 126 75.9941 126H73.1261V119.688H75.9101C76.6301 119.688 77.1941 119.828 77.6021 120.108C78.0101 120.388 78.2141 120.788 78.2141 121.308C78.2141 121.652 78.1181 121.948 77.9261 122.196C77.7421 122.436 77.4821 122.616 77.1461 122.736ZM73.9541 122.496H75.8501C76.3381 122.496 76.7101 122.404 76.9661 122.22C77.2301 122.036 77.3621 121.768 77.3621 121.416C77.3621 121.064 77.2301 120.8 76.9661 120.624C76.7101 120.448 76.3381 120.36 75.8501 120.36H73.9541V122.496ZM75.9581 125.328C76.5021 125.328 76.9101 125.24 77.1821 125.064C77.4541 124.888 77.5901 124.612 77.5901 124.236C77.5901 123.86 77.4661 123.584 77.2181 123.408C76.9701 123.224 76.5781 123.132 76.0421 123.132H73.9541V125.328H75.9581Z" fill="#53647F"/>
<path d="M321 122C321 122 324.273 115.5 330 115.5C335.727 115.5 339 122 339 122C339 122 335.727 128.5 330 128.5C324.273 128.5 321 122 321 122Z" stroke="#8C98A9" stroke-width="2" stroke-linecap="round" stroke-linejoin="round"/>
<path d="M330 124.438C331.356 124.438 332.455 123.346 332.455 122C332.455 120.654 331.356 119.562 330 119.562C328.644 119.562 327.545 120.654 327.545 122C327.545 123.346 328.644 124.438 330 124.438Z" stroke="#8C98A9" stroke-width="2" stroke-linecap="round" stroke-linejoin="round"/>
<path d="M24 103H348V101H24V103ZM355 110V134H357V110H355ZM348 141H24V143H348V141ZM17 134V110H15V134H17ZM24 141C20.134 141 17 137.866 17 134H15C15 138.971 19.0294 143 24 143V141ZM355 134C355 137.866 351.866 141 348 141V143C352.971 143 357 138.971 357 134H355ZM348 103C351.866 103 355 106.134 355 110H357C357 105.029 352.971 101 348 101V103ZM24 101C19.0294 101 15 105.029 15 110H17C17 106.134 20.134 103 24 103V101Z" fill="#8C98A9"/>
<path d="M380.484 85.6V94H379.608V86.368H374.292V94H373.416V85.6H380.484ZM385.718 94.06C385.11 94.06 384.562 93.924 384.074 93.652C383.586 93.372 383.202 92.988 382.922 92.5C382.642 92.012 382.502 91.46 382.502 90.844C382.502 90.228 382.642 89.676 382.922 89.188C383.202 88.7 383.586 88.32 384.074 88.048C384.562 87.776 385.11 87.64 385.718 87.64C386.326 87.64 386.874 87.776 387.362 88.048C387.85 88.32 388.23 88.7 388.502 89.188C388.782 89.676 388.922 90.228 388.922 90.844C388.922 91.46 388.782 92.012 388.502 92.5C388.23 92.988 387.85 93.372 387.362 93.652C386.874 93.924 386.326 94.06 385.718 94.06ZM385.718 93.304C386.166 93.304 386.566 93.204 386.918 93.004C387.278 92.796 387.558 92.504 387.758 92.128C387.958 91.752 388.058 91.324 388.058 90.844C388.058 90.364 387.958 89.936 387.758 89.56C387.558 89.184 387.278 88.896 386.918 88.696C386.566 88.488 386.166 88.384 385.718 88.384C385.27 88.384 384.866 88.488 384.506 88.696C384.154 88.896 383.874 89.184 383.666 89.56C383.466 89.936 383.366 90.364 383.366 90.844C383.366 91.324 383.466 91.752 383.666 92.128C383.874 92.504 384.154 92.796 384.506 93.004C384.866 93.204 385.27 93.304 385.718 93.304ZM394.763 90.736C395.619 90.936 396.047 91.452 396.047 92.284C396.047 92.836 395.843 93.26 395.435 93.556C395.027 93.852 394.419 94 393.611 94H390.743V87.688H393.527C394.247 87.688 394.811 87.828 395.219 88.108C395.627 88.388 395.831 88.788 395.831 89.308C395.831 89.652 395.735 89.948 395.543 90.196C395.359 90.436 395.099 90.616 394.763 90.736ZM391.571 90.496H393.467C393.955 90.496 394.327 90.404 394.583 90.22C394.847 90.036 394.979 89.768 394.979 89.416C394.979 89.064 394.847 88.8 394.583 88.624C394.327 88.448 393.955 88.36 393.467 88.36H391.571V90.496ZM393.575 93.328C394.119 93.328 394.527 93.24 394.799 93.064C395.071 92.888 395.207 92.612 395.207 92.236C395.207 91.86 395.083 91.584 394.835 91.408C394.587 91.224 394.195 91.132 393.659 91.132H391.571V93.328H393.575ZM402.484 88.444H400.096V94H399.244V88.444H396.856V87.688H402.484V88.444ZM406.027 94.06C405.419 94.06 404.871 93.924 404.383 93.652C403.895 93.372 403.511 92.988 403.231 92.5C402.951 92.012 402.811 91.46 402.811 90.844C402.811 90.228 402.951 89.676 403.231 89.188C403.511 88.7 403.895 88.32 404.383 88.048C404.871 87.776 405.419 87.64 406.027 87.64C406.635 87.64 407.183 87.776 407.671 88.048C408.159 88.32 408.539 88.7 408.811 89.188C409.091 89.676 409.231 90.228 409.231 90.844C409.231 91.46 409.091 92.012 408.811 92.5C408.539 92.988 408.159 93.372 407.671 93.652C407.183 93.924 406.635 94.06 406.027 94.06ZM406.027 93.304C406.475 93.304 406.875 93.204 407.227 93.004C407.587 92.796 407.867 92.504 408.067 92.128C408.267 91.752 408.367 91.324 408.367 90.844C408.367 90.364 408.267 89.936 408.067 89.56C407.867 89.184 407.587 88.896 407.227 88.696C406.875 88.488 406.475 88.384 406.027 88.384C405.579 88.384 405.175 88.488 404.815 88.696C404.463 88.896 404.183 89.184 403.975 89.56C403.775 89.936 403.675 90.364 403.675 90.844C403.675 91.324 403.775 91.752 403.975 92.128C404.183 92.504 404.463 92.796 404.815 93.004C405.175 93.204 405.579 93.304 406.027 93.304ZM414.304 87.64C414.896 87.64 415.432 87.776 415.912 88.048C416.392 88.312 416.768 88.688 417.04 89.176C417.312 89.664 417.448 90.22 417.448 90.844C417.448 91.476 417.312 92.036 417.04 92.524C416.768 93.012 416.392 93.392 415.912 93.664C415.44 93.928 414.904 94.06 414.304 94.06C413.792 94.06 413.328 93.956 412.912 93.748C412.504 93.532 412.168 93.22 411.904 92.812V96.328H411.052V87.688H411.868V88.936C412.124 88.52 412.46 88.2 412.876 87.976C413.3 87.752 413.776 87.64 414.304 87.64ZM414.244 93.304C414.684 93.304 415.084 93.204 415.444 93.004C415.804 92.796 416.084 92.504 416.284 92.128C416.492 91.752 416.596 91.324 416.596 90.844C416.596 90.364 416.492 89.94 416.284 89.572C416.084 89.196 415.804 88.904 415.444 88.696C415.084 88.488 414.684 88.384 414.244 88.384C413.796 88.384 413.392 88.488 413.032 88.696C412.68 88.904 412.4 89.196 412.192 89.572C411.992 89.94 411.892 90.364 411.892 90.844C411.892 91.324 411.992 91.752 412.192 92.128C412.4 92.504 412.68 92.796 413.032 93.004C413.392 93.204 413.796 93.304 414.244 93.304ZM419.278 87.688H420.13V92.704L424.342 87.688H425.098V94H424.246V88.984L420.046 94H419.278V87.688ZM431.98 88.444H429.592V94H428.74V88.444H426.352V87.688H431.98V88.444ZM435.924 89.92C436.716 89.928 437.316 90.104 437.724 90.448C438.14 90.792 438.348 91.288 438.348 91.936C438.348 92.608 438.124 93.124 437.676 93.484C437.236 93.844 436.596 94.02 435.756 94.012L433.212 94V87.688H434.064V89.896L435.924 89.92ZM435.708 93.364C436.292 93.372 436.732 93.256 437.028 93.016C437.332 92.768 437.484 92.408 437.484 91.936C437.484 91.472 437.336 91.128 437.04 90.904C436.744 90.68 436.3 90.564 435.708 90.556L434.064 90.532V93.34L435.708 93.364ZM448.778 87.688V94H447.926V88.444H443.966V94H443.114V87.688H448.778ZM453.372 87.64C454.196 87.64 454.828 87.848 455.268 88.264C455.708 88.672 455.928 89.28 455.928 90.088V94H455.112V93.016C454.92 93.344 454.636 93.6 454.26 93.784C453.892 93.968 453.452 94.06 452.94 94.06C452.236 94.06 451.676 93.892 451.26 93.556C450.844 93.22 450.636 92.776 450.636 92.224C450.636 91.688 450.828 91.256 451.212 90.928C451.604 90.6 452.224 90.436 453.072 90.436H455.076V90.052C455.076 89.508 454.924 89.096 454.62 88.816C454.316 88.528 453.872 88.384 453.288 88.384C452.888 88.384 452.504 88.452 452.136 88.588C451.768 88.716 451.452 88.896 451.188 89.128L450.804 88.492C451.124 88.22 451.508 88.012 451.956 87.868C452.404 87.716 452.876 87.64 453.372 87.64ZM453.072 93.388C453.552 93.388 453.964 93.28 454.308 93.064C454.652 92.84 454.908 92.52 455.076 92.104V91.072H453.096C452.016 91.072 451.476 91.448 451.476 92.2C451.476 92.568 451.616 92.86 451.896 93.076C452.176 93.284 452.568 93.388 453.072 93.388ZM461.448 87.64C462.04 87.64 462.576 87.776 463.056 88.048C463.536 88.312 463.912 88.688 464.184 89.176C464.456 89.664 464.592 90.22 464.592 90.844C464.592 91.476 464.456 92.036 464.184 92.524C463.912 93.012 463.536 93.392 463.056 93.664C462.584 93.928 462.048 94.06 461.448 94.06C460.936 94.06 460.472 93.956 460.056 93.748C459.648 93.532 459.312 93.22 459.048 92.812V96.328H458.196V87.688H459.012V88.936C459.268 88.52 459.604 88.2 460.02 87.976C460.444 87.752 460.92 87.64 461.448 87.64ZM461.388 93.304C461.828 93.304 462.228 93.204 462.588 93.004C462.948 92.796 463.228 92.504 463.428 92.128C463.636 91.752 463.74 91.324 463.74 90.844C463.74 90.364 463.636 89.94 463.428 89.572C463.228 89.196 462.948 88.904 462.588 88.696C462.228 88.488 461.828 88.384 461.388 88.384C460.94 88.384 460.536 88.488 460.176 88.696C459.824 88.904 459.544 89.196 459.336 89.572C459.136 89.94 459.036 90.364 459.036 90.844C459.036 91.324 459.136 91.752 459.336 92.128C459.544 92.504 459.824 92.796 460.176 93.004C460.536 93.204 460.94 93.304 461.388 93.304ZM469.027 94.06C468.419 94.06 467.871 93.924 467.383 93.652C466.895 93.372 466.511 92.988 466.231 92.5C465.951 92.012 465.811 91.46 465.811 90.844C465.811 90.228 465.951 89.676 466.231 89.188C466.511 88.7 466.895 88.32 467.383 88.048C467.871 87.776 468.419 87.64 469.027 87.64C469.635 87.64 470.183 87.776 470.671 88.048C471.159 88.32 471.539 88.7 471.811 89.188C472.091 89.676 472.231 90.228 472.231 90.844C472.231 91.46 472.091 92.012 471.811 92.5C471.539 92.988 471.159 93.372 470.671 93.652C470.183 93.924 469.635 94.06 469.027 94.06ZM469.027 93.304C469.475 93.304 469.875 93.204 470.227 93.004C470.587 92.796 470.867 92.504 471.067 92.128C471.267 91.752 471.367 91.324 471.367 90.844C471.367 90.364 471.267 89.936 471.067 89.56C470.867 89.184 470.587 88.896 470.227 88.696C469.875 88.488 469.475 88.384 469.027 88.384C468.579 88.384 468.175 88.488 467.815 88.696C467.463 88.896 467.183 89.184 466.975 89.56C466.775 89.936 466.675 90.364 466.675 90.844C466.675 91.324 466.775 91.752 466.975 92.128C467.183 92.504 467.463 92.796 467.815 93.004C468.175 93.204 468.579 93.304 469.027 93.304ZM479.177 87.688V94H478.325V88.444H475.301L475.217 90.004C475.153 91.316 475.001 92.324 474.761 93.028C474.521 93.732 474.093 94.084 473.477 94.084C473.309 94.084 473.105 94.052 472.865 93.988L472.925 93.256C473.069 93.288 473.169 93.304 473.225 93.304C473.553 93.304 473.801 93.152 473.969 92.848C474.137 92.544 474.249 92.168 474.305 91.72C474.361 91.272 474.409 90.68 474.449 89.944L474.557 87.688H479.177ZM484.311 89.92C485.103 89.928 485.703 90.104 486.111 90.448C486.527 90.792 486.735 91.288 486.735 91.936C486.735 92.608 486.511 93.124 486.063 93.484C485.623 93.844 484.983 94.02 484.143 94.012L481.599 94V87.688H482.451V89.896L484.311 89.92ZM484.095 93.364C484.679 93.372 485.119 93.256 485.415 93.016C485.719 92.768 485.871 92.408 485.871 91.936C485.871 91.472 485.723 91.128 485.427 90.904C485.131 90.68 484.687 90.564 484.095 90.556L482.451 90.532V93.34L484.095 93.364Z" fill="#1A3154"/>
<path d="M389.416 117.6H390.292V124.56L395.668 117.6H396.472V126H395.596V119.052L390.22 126H389.416V117.6ZM403.123 122.736C403.979 122.936 404.407 123.452 404.407 124.284C404.407 124.836 404.203 125.26 403.795 125.556C403.387 125.852 402.779 126 401.971 126H399.103V119.688H401.887C402.607 119.688 403.171 119.828 403.579 120.108C403.987 120.388 404.191 120.788 404.191 121.308C404.191 121.652 404.095 121.948 403.903 122.196C403.719 122.436 403.459 122.616 403.123 122.736ZM399.931 122.496H401.827C402.315 122.496 402.687 122.404 402.943 122.22C403.207 122.036 403.339 121.768 403.339 121.416C403.339 121.064 403.207 120.8 402.943 120.624C402.687 120.448 402.315 120.36 401.827 120.36H399.931V122.496ZM401.935 125.328C402.479 125.328 402.887 125.24 403.159 125.064C403.431 124.888 403.567 124.612 403.567 124.236C403.567 123.86 403.443 123.584 403.195 123.408C402.947 123.224 402.555 123.132 402.019 123.132H399.931V125.328H401.935ZM408.575 119.64C409.399 119.64 410.031 119.848 410.471 120.264C410.911 120.672 411.131 121.28 411.131 122.088V126H410.315V125.016C410.123 125.344 409.839 125.6 409.463 125.784C409.095 125.968 408.655 126.06 408.143 126.06C407.439 126.06 406.879 125.892 406.463 125.556C406.047 125.22 405.839 124.776 405.839 124.224C405.839 123.688 406.031 123.256 406.415 122.928C406.807 122.6 407.427 122.436 408.275 122.436H410.279V122.052C410.279 121.508 410.127 121.096 409.823 120.816C409.519 120.528 409.075 120.384 408.491 120.384C408.091 120.384 407.707 120.452 407.339 120.588C406.971 120.716 406.655 120.896 406.391 121.128L406.007 120.492C406.327 120.22 406.711 120.012 407.159 119.868C407.607 119.716 408.079 119.64 408.575 119.64ZM408.275 125.388C408.755 125.388 409.167 125.28 409.511 125.064C409.855 124.84 410.111 124.52 410.279 124.104V123.072H408.299C407.219 123.072 406.679 123.448 406.679 124.2C406.679 124.568 406.819 124.86 407.099 125.076C407.379 125.284 407.771 125.388 408.275 125.388ZM413.4 119.688H414.252V122.484H418.224V119.688H419.076V126H418.224V123.216H414.252V126H413.4V119.688Z" fill="#53647F"/>
<path d="M677 122C677 122 680.273 115.5 686 115.5C691.727 115.5 695 122 695 122C695 122 691.727 128.5 686 128.5C680.273 128.5 677 122 677 122Z" stroke="#8C98A9" stroke-width="2" stroke-linecap="round" stroke-linejoin="round"/>
<path d="M686 124.438C687.356 124.438 688.455 123.346 688.455 122C688.455 120.654 687.356 119.562 686 119.562C684.644 119.562 683.545 120.654 683.545 122C683.545 123.346 684.644 124.438 686 124.438Z" stroke="#8C98A9" stroke-width="2" stroke-linecap="round" stroke-linejoin="round"/>
<path d="M380 103H704V101H380V103ZM711 110V134H713V110H711ZM704 141H380V143H704V141ZM373 134V110H371V134H373ZM380 141C376.134 141 373 137.866 373 134H371C371 138.971 375.029 143 380 143V141ZM711 134C711 137.866 707.866 141 704 141V143C708.971 143 713 138.971 713 134H711ZM704 103C707.866 103 711 106.134 711 110H713C713 105.029 708.971 101 704 101V103ZM380 101C375.029 101 371 105.029 371 110H373C373 106.134 376.134 103 380 103V101Z" fill="#8C98A9"/>
<path d="M16 166C16 161.582 19.5817 158 24 158H103C107.418 158 111 161.582 111 166V182C111 186.418 107.418 190 103 190H24C19.5817 190 16 186.418 16 182V166Z" fill="#1A3154"/>
<path d="M33.39 169.6H34.578V176.08L39.546 169.6H40.65V178H39.474V171.532L34.494 178H33.39V169.6ZM46.5209 174.688C46.9449 174.8 47.2729 174.98 47.5049 175.228C47.7369 175.476 47.8529 175.784 47.8529 176.152C47.8529 176.528 47.7249 176.864 47.4689 177.16C47.2129 177.448 46.8569 177.676 46.4009 177.844C45.9529 178.004 45.4489 178.084 44.8889 178.084C44.4169 178.084 43.9529 178.024 43.4969 177.904C43.0489 177.776 42.6489 177.596 42.2969 177.364L42.6449 176.488C42.9489 176.68 43.2969 176.832 43.6889 176.944C44.0809 177.048 44.4769 177.1 44.8769 177.1C45.4209 177.1 45.8529 177.008 46.1729 176.824C46.5009 176.632 46.6649 176.376 46.6649 176.056C46.6649 175.76 46.5329 175.532 46.2689 175.372C46.0129 175.212 45.6489 175.132 45.1769 175.132H44.0129V174.304H45.0929C45.5249 174.304 45.8649 174.228 46.1129 174.076C46.3609 173.924 46.4849 173.716 46.4849 173.452C46.4849 173.164 46.3369 172.94 46.0409 172.78C45.7529 172.62 45.3609 172.54 44.8649 172.54C44.2329 172.54 43.5649 172.704 42.8609 173.032L42.5489 172.144C43.3249 171.752 44.1369 171.556 44.9849 171.556C45.4969 171.556 45.9569 171.628 46.3649 171.772C46.7729 171.916 47.0929 172.12 47.3249 172.384C47.5569 172.648 47.6729 172.948 47.6729 173.284C47.6729 173.596 47.5689 173.876 47.3609 174.124C47.1529 174.372 46.8729 174.56 46.5209 174.688ZM56.9363 171.64V178H55.8923V173.356L53.5163 177.28H53.0123L50.6603 173.344V178H49.6043V171.64H50.7923L53.2883 175.936L55.8563 171.64H56.9363ZM64.9265 174.856C64.9265 174.944 64.9185 175.06 64.9025 175.204H59.7425C59.8145 175.764 60.0585 176.216 60.4745 176.56C60.8985 176.896 61.4225 177.064 62.0465 177.064C62.8065 177.064 63.4185 176.808 63.8825 176.296L64.5185 177.04C64.2305 177.376 63.8705 177.632 63.4385 177.808C63.0145 177.984 62.5385 178.072 62.0105 178.072C61.3385 178.072 60.7425 177.936 60.2225 177.664C59.7025 177.384 59.2985 176.996 59.0105 176.5C58.7305 176.004 58.5905 175.444 58.5905 174.82C58.5905 174.204 58.7265 173.648 58.9985 173.152C59.2785 172.656 59.6585 172.272 60.1385 172C60.6265 171.72 61.1745 171.58 61.7825 171.58C62.3905 171.58 62.9305 171.72 63.4025 172C63.8825 172.272 64.2545 172.656 64.5185 173.152C64.7905 173.648 64.9265 174.216 64.9265 174.856ZM61.7825 172.552C61.2305 172.552 60.7665 172.72 60.3905 173.056C60.0225 173.392 59.8065 173.832 59.7425 174.376H63.8225C63.7585 173.84 63.5385 173.404 63.1625 173.068C62.7945 172.724 62.3345 172.552 61.7825 172.552ZM66.7137 171.64H67.8657V174.34H71.4897V171.64H72.6417V178H71.4897V175.336H67.8657V178H66.7137V171.64ZM74.8816 171.64H76.0336V176.272L79.9336 171.64H80.9776V178H79.8256V173.368L75.9376 178H74.8816V171.64ZM87.9537 172.648H85.6257V178H84.4737V172.648H82.1457V171.64H87.9537V172.648ZM92.0716 173.8C92.8796 173.808 93.4956 173.992 93.9196 174.352C94.3436 174.712 94.5556 175.22 94.5556 175.876C94.5556 176.564 94.3236 177.096 93.8596 177.472C93.4036 177.84 92.7476 178.02 91.8916 178.012L89.1316 178V171.64H90.2836V173.788L92.0716 173.8ZM91.7956 177.136C92.3156 177.144 92.7076 177.04 92.9716 176.824C93.2436 176.608 93.3796 176.288 93.3796 175.864C93.3796 175.448 93.2476 175.144 92.9836 174.952C92.7276 174.76 92.3316 174.66 91.7956 174.652L90.2836 174.628V177.124L91.7956 177.136Z" fill="white"/>
</svg>
