<svg width="118" height="31" viewBox="0 0 118 31" fill="none" xmlns="http://www.w3.org/2000/svg">
<path d="M9.34953 30.48C7.4562 30.48 5.70953 30.1333 4.10953 29.44C2.5362 28.72 1.24286 27.7067 0.22953 26.4L3.82953 22.08C4.60286 23.0933 5.4162 23.8667 6.26953 24.4C7.12286 24.9067 8.04286 25.16 9.02953 25.16C11.6695 25.16 12.9895 23.6133 12.9895 20.52V7.2H3.14953V2H19.4295V20.16C19.4295 23.6267 18.5762 26.2133 16.8695 27.92C15.1629 29.6267 12.6562 30.48 9.34953 30.48ZM34.6702 30.32C32.8835 30.32 31.2835 29.9733 29.8702 29.28C28.4835 28.5867 27.4035 27.5333 26.6302 26.12C25.8568 24.68 25.4702 22.8533 25.4702 20.64V8.48H31.7102V19.72C31.7102 21.5067 32.0835 22.8267 32.8302 23.68C33.6035 24.5067 34.6835 24.92 36.0702 24.92C37.0302 24.92 37.8835 24.72 38.6302 24.32C39.3768 23.8933 39.9635 23.2533 40.3902 22.4C40.8168 21.52 41.0302 20.4267 41.0302 19.12V8.48H47.2702V30H41.3502V24.08L42.4302 25.8C41.7102 27.2933 40.6435 28.4267 39.2302 29.2C37.8435 29.9467 36.3235 30.32 34.6702 30.32ZM58.4111 25.6L58.5711 18L68.6111 8.48H76.0511L66.4111 18.28L63.1711 20.92L58.4111 25.6ZM53.2511 30V0.319998H59.4911V30H53.2511ZM69.2911 30L62.0111 20.96L65.9311 16.12L76.8511 30H69.2911ZM88.6573 30.32C86.124 30.32 84.1507 29.68 82.7373 28.4C81.324 27.0933 80.6173 25.16 80.6173 22.6V3.72H86.8573V22.52C86.8573 23.4267 87.0973 24.1333 87.5773 24.64C88.0573 25.12 88.7107 25.36 89.5373 25.36C90.524 25.36 91.364 25.0933 92.0573 24.56L93.7373 28.96C93.0973 29.4133 92.324 29.76 91.4173 30C90.5373 30.2133 89.6173 30.32 88.6573 30.32ZM77.2973 13.76V8.96H92.2173V13.76H77.2973ZM107.456 30.32C105.003 30.32 102.843 29.84 100.976 28.88C99.1361 27.92 97.7094 26.6133 96.6961 24.96C95.6828 23.28 95.1761 21.3733 95.1761 19.24C95.1761 17.08 95.6694 15.1733 96.6561 13.52C97.6694 11.84 99.0428 10.5333 100.776 9.6C102.509 8.64 104.469 8.16 106.656 8.16C108.763 8.16 110.656 8.61333 112.336 9.52C114.043 10.4 115.389 11.68 116.376 13.36C117.363 15.0133 117.856 17 117.856 19.32C117.856 19.56 117.843 19.84 117.816 20.16C117.789 20.4533 117.763 20.7333 117.736 21H100.256V17.36H114.456L112.056 18.44C112.056 17.32 111.829 16.3467 111.376 15.52C110.923 14.6933 110.296 14.0533 109.496 13.6C108.696 13.12 107.763 12.88 106.696 12.88C105.629 12.88 104.683 13.12 103.856 13.6C103.056 14.0533 102.429 14.7067 101.976 15.56C101.523 16.3867 101.296 17.3733 101.296 18.52V19.48C101.296 20.6533 101.549 21.6933 102.056 22.6C102.589 23.48 103.323 24.16 104.256 24.64C105.216 25.0933 106.336 25.32 107.616 25.32C108.763 25.32 109.763 25.1467 110.616 24.8C111.496 24.4533 112.296 23.9333 113.016 23.24L116.336 26.84C115.349 27.96 114.109 28.8267 112.616 29.44C111.123 30.0267 109.403 30.32 107.456 30.32Z" fill="#00CCA6"/>
</svg>
