<svg width="194" height="48" viewBox="0 0 194 48" fill="none" xmlns="http://www.w3.org/2000/svg">
<path d="M30.5141 43.3862C31.3574 43.3862 32.0409 42.7026 32.0409 41.8593C32.0409 41.0161 31.3574 40.3325 30.5141 40.3325C29.6709 40.3325 28.9873 41.0161 28.9873 41.8593C28.9873 42.7026 29.6709 43.3862 30.5141 43.3862Z" fill="#C9C9C9"/>
<path d="M30.5146 38.8978C31.6968 38.8978 32.6551 37.9395 32.6551 36.7573C32.6551 35.5751 31.6968 34.6167 30.5146 34.6167C29.3324 34.6167 28.374 35.5751 28.374 36.7573C28.374 37.9395 29.3324 38.8978 30.5146 38.8978Z" fill="#C9C9C9"/>
<path d="M35.3886 38.8978C36.5708 38.8978 37.5292 37.9395 37.5292 36.7573C37.5292 35.5751 36.5708 34.6167 35.3886 34.6167C34.2064 34.6167 33.248 35.5751 33.248 36.7573C33.248 37.9395 34.2064 38.8978 35.3886 38.8978Z" fill="#C9C9C9"/>
<path d="M30.5148 33.1834C31.359 33.1834 32.0433 32.4991 32.0433 31.655C32.0433 30.8108 31.359 30.1265 30.5148 30.1265C29.6707 30.1265 28.9863 30.8108 28.9863 31.655C28.9863 32.4991 29.6707 33.1834 30.5148 33.1834Z" fill="#C9C9C9"/>
<path d="M35.3886 33.7958C36.5708 33.7958 37.5292 32.8374 37.5292 31.6552C37.5292 30.473 36.5708 29.5146 35.3886 29.5146C34.2064 29.5146 33.248 30.473 33.248 31.6552C33.248 32.8374 34.2064 33.7958 35.3886 33.7958Z" fill="#C9C9C9"/>
<path d="M40.2644 33.1834C41.1085 33.1834 41.7929 32.4991 41.7929 31.655C41.7929 30.8108 41.1085 30.1265 40.2644 30.1265C39.4202 30.1265 38.7358 30.8108 38.7358 31.655C38.7358 32.4991 39.4202 33.1834 40.2644 33.1834Z" fill="#C9C9C9"/>
<path d="M35.3886 28.6918C36.5708 28.6918 37.5292 27.7334 37.5292 26.5512C37.5292 25.369 36.5708 24.4106 35.3886 24.4106C34.2064 24.4106 33.248 25.369 33.248 26.5512C33.248 27.7334 34.2064 28.6918 35.3886 28.6918Z" fill="#C9C9C9"/>
<path d="M40.2636 28.6918C41.4458 28.6918 42.4041 27.7334 42.4041 26.5512C42.4041 25.369 41.4458 24.4106 40.2636 24.4106C39.0814 24.4106 38.123 25.369 38.123 26.5512C38.123 27.7334 39.0814 28.6918 40.2636 28.6918Z" fill="#C9C9C9"/>
<path d="M35.3886 23.5897C36.5708 23.5897 37.5292 22.6313 37.5292 21.4492C37.5292 20.267 36.5708 19.3086 35.3886 19.3086C34.2064 19.3086 33.248 20.267 33.248 21.4492C33.248 22.6313 34.2064 23.5897 35.3886 23.5897Z" fill="#C9C9C9"/>
<path d="M40.2636 23.5897C41.4458 23.5897 42.4041 22.6313 42.4041 21.4492C42.4041 20.267 41.4458 19.3086 40.2636 19.3086C39.0814 19.3086 38.123 20.267 38.123 21.4492C38.123 22.6313 39.0814 23.5897 40.2636 23.5897Z" fill="#C9C9C9"/>
<path d="M30.5148 17.8734C31.359 17.8734 32.0433 17.1891 32.0433 16.3449C32.0433 15.5007 31.359 14.8164 30.5148 14.8164C29.6707 14.8164 28.9863 15.5007 28.9863 16.3449C28.9863 17.1891 29.6707 17.8734 30.5148 17.8734Z" fill="#C9C9C9"/>
<path d="M35.3886 18.4857C36.5708 18.4857 37.5292 17.5273 37.5292 16.3451C37.5292 15.1629 36.5708 14.2046 35.3886 14.2046C34.2064 14.2046 33.248 15.1629 33.248 16.3451C33.248 17.5273 34.2064 18.4857 35.3886 18.4857Z" fill="#C9C9C9"/>
<path d="M40.2644 17.8734C41.1085 17.8734 41.7929 17.1891 41.7929 16.3449C41.7929 15.5007 41.1085 14.8164 40.2644 14.8164C39.4202 14.8164 38.7358 15.5007 38.7358 16.3449C38.7358 17.1891 39.4202 17.8734 40.2644 17.8734Z" fill="#C9C9C9"/>
<path d="M30.5146 13.3832C31.6968 13.3832 32.6551 12.4248 32.6551 11.2426C32.6551 10.0604 31.6968 9.10205 30.5146 9.10205C29.3324 9.10205 28.374 10.0604 28.374 11.2426C28.374 12.4248 29.3324 13.3832 30.5146 13.3832Z" fill="#C9C9C9"/>
<path d="M35.3886 13.3832C36.5708 13.3832 37.5292 12.4248 37.5292 11.2426C37.5292 10.0604 36.5708 9.10205 35.3886 9.10205C34.2064 9.10205 33.248 10.0604 33.248 11.2426C33.248 12.4248 34.2064 13.3832 35.3886 13.3832Z" fill="#C9C9C9"/>
<path d="M30.5146 7.6674C31.3579 7.6674 32.0414 6.98382 32.0414 6.14058C32.0414 5.29735 31.3579 4.61377 30.5146 4.61377C29.6714 4.61377 28.9878 5.29735 28.9878 6.14058C28.9878 6.98382 29.6714 7.6674 30.5146 7.6674Z" fill="#C9C9C9"/>
<path d="M15.8906 7.6674C16.7338 7.6674 17.4174 6.98382 17.4174 6.14058C17.4174 5.29735 16.7338 4.61377 15.8906 4.61377C15.0474 4.61377 14.3638 5.29735 14.3638 6.14058C14.3638 6.98382 15.0474 7.6674 15.8906 7.6674Z" fill="#00AE7F"/>
<path d="M25.6401 8.2811C26.8223 8.2811 27.7806 7.32275 27.7806 6.14055C27.7806 4.95836 26.8223 4 25.6401 4C24.4579 4 23.4995 4.95836 23.4995 6.14055C23.4995 7.32275 24.4579 8.2811 25.6401 8.2811Z" fill="#00AE7F"/>
<path d="M20.7646 8.2811C21.9468 8.2811 22.9051 7.32275 22.9051 6.14055C22.9051 4.95836 21.9468 4 20.7646 4C19.5824 4 18.624 4.95836 18.624 6.14055C18.624 7.32275 19.5824 8.2811 20.7646 8.2811Z" fill="#00AE7F"/>
<path d="M25.6401 13.3832C26.8223 13.3832 27.7806 12.4248 27.7806 11.2426C27.7806 10.0604 26.8223 9.10205 25.6401 9.10205C24.4579 9.10205 23.4995 10.0604 23.4995 11.2426C23.4995 12.4248 24.4579 13.3832 25.6401 13.3832Z" fill="#00AE7F"/>
<path d="M20.7646 13.3832C21.9468 13.3832 22.9051 12.4248 22.9051 11.2426C22.9051 10.0604 21.9468 9.10205 20.7646 9.10205C19.5824 9.10205 18.624 10.0604 18.624 11.2426C18.624 12.4248 19.5824 13.3832 20.7646 13.3832Z" fill="#00AE7F"/>
<path d="M15.8901 13.3832C17.0723 13.3832 18.0306 12.4248 18.0306 11.2426C18.0306 10.0604 17.0723 9.10205 15.8901 9.10205C14.7079 9.10205 13.7495 10.0604 13.7495 11.2426C13.7495 12.4248 14.7079 13.3832 15.8901 13.3832Z" fill="#00AE7F"/>
<path d="M11.0151 13.3832C12.1973 13.3832 13.1556 12.4248 13.1556 11.2426C13.1556 10.0604 12.1973 9.10205 11.0151 9.10205C9.83287 9.10205 8.87451 10.0604 8.87451 11.2426C8.87451 12.4248 9.83287 13.3832 11.0151 13.3832Z" fill="#00AE7F"/>
<path d="M15.8903 17.8734C16.7345 17.8734 17.4188 17.1891 17.4188 16.3449C17.4188 15.5007 16.7345 14.8164 15.8903 14.8164C15.0462 14.8164 14.3618 15.5007 14.3618 16.3449C14.3618 17.1891 15.0462 17.8734 15.8903 17.8734Z" fill="#00AE7F"/>
<path d="M11.0151 18.4857C12.1973 18.4857 13.1556 17.5273 13.1556 16.3451C13.1556 15.1629 12.1973 14.2046 11.0151 14.2046C9.83287 14.2046 8.87451 15.1629 8.87451 16.3451C8.87451 17.5273 9.83287 18.4857 11.0151 18.4857Z" fill="#00AE7F"/>
<path d="M6.14078 17.8734C6.98494 17.8734 7.66926 17.1891 7.66926 16.3449C7.66926 15.5007 6.98494 14.8164 6.14078 14.8164C5.29663 14.8164 4.6123 15.5007 4.6123 16.3449C4.6123 17.1891 5.29663 17.8734 6.14078 17.8734Z" fill="#00AE7F"/>
<path d="M11.0151 23.5892C12.1973 23.5892 13.1556 22.6309 13.1556 21.4487C13.1556 20.2665 12.1973 19.3081 11.0151 19.3081C9.83287 19.3081 8.87451 20.2665 8.87451 21.4487C8.87451 22.6309 9.83287 23.5892 11.0151 23.5892Z" fill="#00AE7F"/>
<path d="M6.14055 23.5892C7.32274 23.5892 8.28109 22.6309 8.28109 21.4487C8.28109 20.2665 7.32274 19.3081 6.14055 19.3081C4.95836 19.3081 4 20.2665 4 21.4487C4 22.6309 4.95836 23.5892 6.14055 23.5892Z" fill="#00AE7F"/>
<path d="M11.0151 28.6918C12.1973 28.6918 13.1556 27.7334 13.1556 26.5512C13.1556 25.369 12.1973 24.4106 11.0151 24.4106C9.83287 24.4106 8.87451 25.369 8.87451 26.5512C8.87451 27.7334 9.83287 28.6918 11.0151 28.6918Z" fill="#00AE7F"/>
<path d="M6.14055 28.6918C7.32274 28.6918 8.28109 27.7334 8.28109 26.5512C8.28109 25.369 7.32274 24.4106 6.14055 24.4106C4.95836 24.4106 4 25.369 4 26.5512C4 27.7334 4.95836 28.6918 6.14055 28.6918Z" fill="#00AE7F"/>
<path d="M15.8903 33.1834C16.7345 33.1834 17.4188 32.4991 17.4188 31.655C17.4188 30.8108 16.7345 30.1265 15.8903 30.1265C15.0462 30.1265 14.3618 30.8108 14.3618 31.655C14.3618 32.4991 15.0462 33.1834 15.8903 33.1834Z" fill="#00AE7F"/>
<path d="M11.0151 33.7958C12.1973 33.7958 13.1556 32.8374 13.1556 31.6552C13.1556 30.473 12.1973 29.5146 11.0151 29.5146C9.83287 29.5146 8.87451 30.473 8.87451 31.6552C8.87451 32.8374 9.83287 33.7958 11.0151 33.7958Z" fill="#00AE7F"/>
<path d="M6.14078 33.1834C6.98494 33.1834 7.66926 32.4991 7.66926 31.655C7.66926 30.8108 6.98494 30.1265 6.14078 30.1265C5.29663 30.1265 4.6123 30.8108 4.6123 31.655C4.6123 32.4991 5.29663 33.1834 6.14078 33.1834Z" fill="#00AE7F"/>
<path d="M25.6401 38.8978C26.8223 38.8978 27.7806 37.9395 27.7806 36.7573C27.7806 35.5751 26.8223 34.6167 25.6401 34.6167C24.4579 34.6167 23.4995 35.5751 23.4995 36.7573C23.4995 37.9395 24.4579 38.8978 25.6401 38.8978Z" fill="#00AE7F"/>
<path d="M20.7646 38.8978C21.9468 38.8978 22.9051 37.9395 22.9051 36.7573C22.9051 35.5751 21.9468 34.6167 20.7646 34.6167C19.5824 34.6167 18.624 35.5751 18.624 36.7573C18.624 37.9395 19.5824 38.8978 20.7646 38.8978Z" fill="#00AE7F"/>
<path d="M15.8901 38.8978C17.0723 38.8978 18.0306 37.9395 18.0306 36.7573C18.0306 35.5751 17.0723 34.6167 15.8901 34.6167C14.7079 34.6167 13.7495 35.5751 13.7495 36.7573C13.7495 37.9395 14.7079 38.8978 15.8901 38.8978Z" fill="#00AE7F"/>
<path d="M11.0151 38.8978C12.1973 38.8978 13.1556 37.9395 13.1556 36.7573C13.1556 35.5751 12.1973 34.6167 11.0151 34.6167C9.83287 34.6167 8.87451 35.5751 8.87451 36.7573C8.87451 37.9395 9.83287 38.8978 11.0151 38.8978Z" fill="#00AE7F"/>
<path d="M25.6401 43.9999C26.8223 43.9999 27.7806 43.0415 27.7806 41.8593C27.7806 40.6771 26.8223 39.7188 25.6401 39.7188C24.4579 39.7188 23.4995 40.6771 23.4995 41.8593C23.4995 43.0415 24.4579 43.9999 25.6401 43.9999Z" fill="#00AE7F"/>
<path d="M20.7646 43.9999C21.9468 43.9999 22.9051 43.0415 22.9051 41.8593C22.9051 40.6771 21.9468 39.7188 20.7646 39.7188C19.5824 39.7188 18.624 40.6771 18.624 41.8593C18.624 43.0415 19.5824 43.9999 20.7646 43.9999Z" fill="#00AE7F"/>
<path d="M15.8906 43.3862C16.7338 43.3862 17.4174 42.7026 17.4174 41.8593C17.4174 41.0161 16.7338 40.3325 15.8906 40.3325C15.0474 40.3325 14.3638 41.0161 14.3638 41.8593C14.3638 42.7026 15.0474 43.3862 15.8906 43.3862Z" fill="#00AE7F"/>
<path d="M54.1981 27.9764C52.9262 26.6846 52.2993 25.0992 52.2993 23.2186C52.2993 21.3381 52.9262 19.7511 54.1981 18.4609C55.47 17.1707 57.0936 16.5239 59.0487 16.5239C61.4085 16.5239 63.5113 17.7411 64.6174 19.6598L63.1233 20.5272C62.3853 19.1076 60.8182 18.1856 59.0471 18.1856C57.5529 18.1856 56.3357 18.6648 55.3954 19.6234C54.4551 20.5819 53.9941 21.7809 53.9941 23.2203C53.9941 24.6398 54.4551 25.8388 55.3954 26.7973C56.3357 27.7559 57.5529 28.2351 59.0471 28.2351C60.8182 28.2351 62.3853 27.3131 63.1233 25.9118L64.6174 26.7609C64.0818 27.7194 63.3073 28.4938 62.3123 29.066C61.3157 29.6381 60.2278 29.915 59.0487 29.915C57.0936 29.9117 55.4717 29.2666 54.1981 27.9764Z" fill="#013471"/>
<path d="M74.3915 29.6727L71.4961 24.7308H68.453V29.6727H66.7383V16.7642H71.9023C73.0085 16.7642 73.9487 17.1506 74.7431 17.9449C75.5358 18.7193 75.9238 19.6596 75.9238 20.7657C75.9238 21.5949 75.6651 22.371 75.1676 23.0526C74.6701 23.7342 74.0433 24.2333 73.2489 24.5103L76.292 29.6743H74.3915V29.6727ZM68.453 18.3678V23.1803H71.9023C72.5474 23.1803 73.0831 22.9398 73.5259 22.4788C73.9869 21.9995 74.2074 21.4274 74.2074 20.7641C74.2074 20.1007 73.9869 19.5286 73.5259 19.0676C73.0831 18.6066 72.5491 18.3661 71.9023 18.3661H68.453V18.3678Z" fill="#013471"/>
<path d="M79.3901 18.4772C80.6803 17.1671 82.2673 16.522 84.1297 16.522C85.992 16.522 87.579 17.1671 88.8692 18.4772C90.1793 19.7673 90.8244 21.3544 90.8244 23.2167C90.8244 25.079 90.1793 26.6461 88.8692 27.9562C87.579 29.2663 85.992 29.9114 84.1297 29.9114C82.2673 29.9114 80.6803 29.2663 79.3901 27.9562C78.0999 26.6461 77.4531 25.079 77.4531 23.2167C77.4531 21.3544 78.0982 19.769 79.3901 18.4772ZM87.6702 19.6397C86.73 18.6629 85.5492 18.182 84.1297 18.182C82.7101 18.182 81.5294 18.6612 80.5708 19.6397C79.6305 20.5982 79.1513 21.7972 79.1513 23.2167C79.1513 24.6362 79.6305 25.817 80.5708 26.7937C81.5294 27.7523 82.7101 28.2315 84.1297 28.2315C85.5492 28.2315 86.73 27.7523 87.6702 26.7937C88.6288 25.817 89.108 24.6362 89.108 23.2167C89.108 21.7972 88.6288 20.5982 87.6702 19.6397Z" fill="#013471"/>
<path d="M95.285 29.6727L91.5786 16.7642H93.3862L96.3364 27.3858L99.4724 16.7642H101.205L104.341 27.3858L107.291 16.7642H109.099L105.393 29.6727H103.401L100.34 19.3644L97.2784 29.6727H95.285V29.6727Z" fill="#013471"/>
<path d="M116.162 16.7622C117.913 16.7622 119.371 17.3891 120.534 18.6428C121.696 19.8782 122.285 21.4089 122.285 23.2165C122.285 25.0241 121.694 26.5547 120.534 27.8084C119.371 29.0439 117.915 29.6707 116.162 29.6707H111.127V16.7622H116.162V16.7622ZM116.162 28.0489C117.472 28.0489 118.56 27.5879 119.389 26.6658C120.218 25.7438 120.643 24.5995 120.643 23.2181C120.643 21.8351 120.218 20.6908 119.389 19.7688C118.56 18.8467 117.471 18.3857 116.162 18.3857H112.842V28.0489H116.162Z" fill="#013471"/>
<path d="M126.268 28.0492H131.837V29.6727H124.552V16.7642H126.266V28.0492H126.268Z" fill="#013471"/>
<path d="M135.45 28.0492H141.443V29.6727H133.735V16.7642H141.352V18.3877H135.45V22.3528H140.891V23.9564H135.45V28.0492V28.0492Z" fill="#013471"/>
<path d="M151.717 16.7622H153.431V29.6707H152.048L145.41 20.0258V29.6707H143.695V16.7622H145.078L151.717 26.3889V16.7622Z" fill="#013471"/>
<path d="M161.417 16.7622C163.168 16.7622 164.625 17.3891 165.788 18.6428C166.95 19.8782 167.539 21.4089 167.539 23.2165C167.539 25.0241 166.949 26.5547 165.788 27.8084C164.625 29.0439 163.169 29.6707 161.417 29.6707H156.382V16.7622H161.417V16.7622ZM161.417 28.0489C162.727 28.0489 163.815 27.5879 164.644 26.6658C165.473 25.7438 165.897 24.5995 165.897 23.2181C165.897 21.8351 165.473 20.6908 164.644 19.7688C163.815 18.8467 162.725 18.3857 161.417 18.3857H158.097V28.0489H161.417Z" fill="#013471"/>
<path d="M171.522 28.0492H177.516V29.6727H169.808V16.7642H177.424V18.3877H171.522V22.3528H176.963V23.9564H171.522V28.0492V28.0492Z" fill="#013471"/>
<path d="M187.417 29.6727L184.522 24.7308H181.479V29.6727H179.764V16.7642H184.928C186.034 16.7642 186.975 17.1506 187.769 17.9449C188.562 18.7193 188.95 19.6596 188.95 20.7657C188.95 21.5949 188.691 22.371 188.193 23.0526C187.696 23.7342 187.069 24.2333 186.275 24.5103L189.318 29.6743H187.417V29.6727ZM181.481 18.3678V23.1803H184.93C185.575 23.1803 186.111 22.9398 186.553 22.4788C187.014 21.9995 187.235 21.4274 187.235 20.7641C187.235 20.1007 187.014 19.5286 186.553 19.0676C186.111 18.6066 185.577 18.3661 184.93 18.3661H181.481V18.3678Z" fill="#013471"/>
</svg>
